<svg width="194" viewBox="0 0 280 40" fill="#000" xmlns="http://www.w3.org/2000/svg"> <path d="M38.9749 34.1031C38.9249 33.1532 38.8499 32.1782 38.7999 31.2282C38.7749 30.5032 38.7249 29.7782 38.6999 29.0532C38.2499 21.6032 37.7999 15.7282 37.3499 8.27822C36.9249 3.80323 36.5499 1.97823 35.9249 1.22824C35.2999 0.403238 34.3499 0.303238 32.1498 0.453238C31.4748 0.503238 30.8498 0.553237 30.3998 0.903236C29.5498 1.52823 28.5248 5.00323 27.9748 6.40322C26.2248 11.2532 24.4998 16.1032 22.7748 20.9532C22.0498 22.8282 21.4498 24.7532 20.6998 26.6032C20.3498 27.4532 20.0248 28.4532 19.0248 28.6282C18.1498 28.7782 17.7748 28.0032 17.5498 27.4782C17.1748 25.7782 16.8498 23.9532 16.4748 21.8782C15.6998 17.1532 14.8998 12.4282 14.1248 7.67822C13.8498 6.00322 13.3498 2.82823 12.6498 2.25323C12.0998 1.62823 9.57481 1.35324 8.24981 1.75323C6.34981 2.32823 6.29981 5.65322 5.64981 8.07822C4.3998 14.2782 0.474797 33.4532 0.0747967 35.2531C-0.100204 36.1031 0.0247965 37.0531 0.524797 37.4281C1.1498 37.9031 2.2498 37.8031 2.8248 37.3531C3.6248 36.7531 3.8748 34.6281 4.1748 33.1531C5.1998 27.9532 6.32481 21.1282 7.19981 16.0032C7.59981 14.2032 7.74981 11.6782 9.22481 11.7782C10.7248 11.8532 10.7748 14.4282 11.3998 17.5282C11.4998 18.2032 12.7748 24.7032 13.4498 28.3032C13.8748 30.4032 14.1248 32.2282 14.8498 33.7031C15.5498 35.0531 17.3498 36.0781 19.1748 35.3031C21.1998 34.4781 21.7998 31.7532 22.5998 29.7282C24.5248 24.7532 26.4248 19.7782 28.3498 14.8032C28.9998 13.0782 29.6498 11.3532 30.2998 9.62821C30.5248 9.05322 30.8998 8.22822 31.7998 8.25322C33.4498 8.10322 33.6249 11.5282 33.8999 15.8032C34.1249 22.1782 34.3499 27.0282 34.5749 33.4031C34.6999 36.3031 34.3249 38.9781 36.9499 39.0031C37.2499 39.0031 37.4749 39.0031 37.7249 38.9281C39.2749 38.4281 39.0999 36.3281 38.9749 34.1031ZM106.9 11.7032C106.05 11.8282 105.625 12.2032 105.375 13.0282C105.05 14.2282 106.15 15.5532 107.4 15.3532C109.625 14.9532 109.55 11.5782 106.9 11.7032ZM97.1249 32.4532C96.8749 33.0032 96.2499 33.2781 95.5749 33.4031C94.1999 33.6531 92.1749 32.6782 92.7499 31.2282C93.1249 30.2782 94.5499 29.7282 95.0499 29.7032C95.4249 29.6282 95.6499 29.7032 95.8749 29.7782C96.6249 30.1032 97.6249 31.3532 97.1249 32.4532ZM81.3249 33.7031C79.9249 34.1031 77.6749 33.2782 78.0499 31.8032C78.3249 30.7032 79.7999 30.0282 80.4249 30.0282C82.3999 30.0532 83.3749 33.1281 81.3249 33.7031ZM166.325 28.3782C167.45 24.7532 164.975 21.9032 162.575 20.9532C160.775 20.2282 157.7 20.2032 155.9 20.9282C155.55 21.0782 154.325 21.6282 154.6 22.1532C154.75 22.4282 155.3 22.3532 155.625 22.2782C156.525 22.0782 157.75 21.8032 158.875 22.0032C161.5 22.4782 163.85 24.3282 162.825 27.6782C162.675 28.1782 162.425 28.6782 162.175 29.0782C161.1 30.7032 157.725 32.6032 154.75 31.7282C152.95 31.2032 151.55 30.0282 151.025 28.2532C150.625 26.9282 150.65 24.7532 150.875 23.2282C151.05 22.3032 150.775 21.6282 150.075 21.7782C149.125 22.0032 148.675 24.6532 148.3 25.6032C147.35 28.0032 145.975 30.5532 143.125 31.0282C141.825 31.2532 141.15 29.9282 140.825 29.1282C140.05 27.2782 139.825 24.9282 139.325 22.8032C139.075 21.7032 138.975 20.5032 137.85 20.2782C136.975 20.1032 136.3 20.6782 135.95 21.1282C134.95 22.4032 134.35 24.1282 133.375 25.4532C133 25.9532 132.35 26.7532 131.35 26.5532C129.575 26.2282 129.25 23.7532 128.65 22.2282C128.4 21.6032 127.975 20.2282 127 20.4282C125.25 20.7532 124.675 24.3032 123.925 25.8032C123.6 26.4532 122.925 27.5032 121.775 27.0282C119.75 26.1782 120.9 21.1032 118.65 20.5532C117.3 20.2282 116.45 21.9032 116 22.8282C115.15 24.6282 114.25 26.7532 113.125 28.4782C112.625 29.2032 112.025 30.0282 111 30.2282C109.8 30.4532 109.3 29.2782 108.975 28.5282C108.325 26.9782 108.075 25.1032 107.725 23.2282C107.5 22.0782 107.6 20.9532 106.775 20.4532C105.575 19.7032 104.675 21.0782 104.025 21.6032C102.625 22.7032 101.1 23.5532 99.4999 24.4782C99.0499 24.7532 98.1249 25.4032 97.3499 25.2532C96.4499 25.1032 95.9499 24.4032 95.3499 23.9282C94.2249 23.0282 93.1749 22.0532 92.1249 21.0532C91.5499 20.5032 90.8249 19.4032 89.8749 19.4532C89.5999 19.5032 89.4499 19.5532 89.2499 19.6532C88.5499 20.1032 88.2249 21.1032 87.7749 21.8282C87.0749 22.9532 84.8499 25.3532 83.3999 25.6032C82.4499 25.7782 81.7249 24.8032 81.2999 24.3782C79.8999 22.9782 78.6999 21.6282 76.8249 20.6782C76.1499 20.3282 74.7749 19.7032 73.8499 20.2782C73.1249 20.7282 73.0999 22.8532 72.7999 23.7782C71.8999 26.3282 70.4999 29.1282 68.5749 30.6532C67.8749 31.2032 66.8749 32.1282 65.4499 31.7782C63.0249 31.1782 62.4999 28.2532 61.8999 25.6282C61.6249 24.3282 61.5249 22.1282 60.4999 21.9032C59.6749 21.7032 59.4999 22.5532 59.3999 23.1532C59.2749 23.8532 59.3249 24.4032 59.3249 25.4532C59.2999 25.8782 59.2999 26.3282 59.2749 26.7532C59.1999 27.8282 59.0999 28.4032 58.7999 29.0532C57.9499 31.0532 54.8999 33.2032 51.6749 32.7032C50.9499 32.6032 50.3749 32.4782 49.7999 32.2532C48.0249 31.5532 46.9749 30.2032 46.6499 28.0532C46.5499 27.3782 46.7249 26.6532 46.8749 26.2032C47.6749 23.9032 49.9499 23.0032 52.3999 22.9282C53.3249 22.7782 56.0749 23.2032 56.3999 22.5782C56.6249 22.0032 55.5749 21.5282 55.2249 21.3782C53.8249 20.6782 51.3749 20.2032 49.3749 20.6782C46.6249 21.3282 44.3999 22.9032 43.3749 25.2532C42.0499 28.2782 43.9249 31.8782 45.6749 33.2781C47.8749 35.0281 51.4499 35.9531 55.0999 34.8781C56.9249 34.3281 58.2999 33.3281 60.2499 32.9781C60.7499 32.9031 61.2999 33.0282 61.6249 33.1282C63.4249 33.6781 65.0999 35.8281 67.5499 35.0781C68.3499 34.8281 69.0499 34.4281 69.6749 34.0032C71.2999 32.8532 72.6249 31.2032 73.4749 29.3032C73.9999 28.1032 74.4249 26.6032 75.0999 25.5282C75.4999 24.8782 76.3749 24.4782 77.2499 24.9782C77.6249 25.1782 77.9499 25.4532 78.2499 25.7282C78.5249 25.9782 78.8499 26.2532 79.0249 26.6282C79.2499 27.1032 79.1249 27.6532 78.8499 27.9782C78.5749 28.3282 78.0749 28.5782 77.6999 28.8532C76.9999 29.3532 76.2999 29.9782 75.7999 30.6782C74.5999 32.2782 74.8249 33.8031 76.4499 34.7781C78.9999 36.2781 85.0999 36.5531 85.8749 33.3281C86.1499 32.1282 85.5749 30.9282 85.2499 30.1532C85.0749 29.7532 84.6999 29.2032 84.8749 28.5532C85.0499 27.8782 85.6999 27.5282 86.1999 27.1532C87.2499 26.2782 88.2999 25.4032 89.3499 24.5282C89.8249 24.1532 90.3999 24.1032 90.9749 24.3282C91.4499 24.5032 91.7999 24.8532 92.1749 25.1282C92.5999 25.4532 93.6749 26.2282 93.4999 27.1032C93.3749 27.6782 92.8749 27.9782 92.4499 28.2782C91.3249 29.0782 88.2999 31.5282 89.9749 33.4531C90.2749 33.8031 90.6999 34.1031 91.1249 34.3531C91.8749 34.8031 92.8249 35.1031 93.7999 35.3031C96.7749 35.9531 100.05 35.1781 100.65 32.8531C101.225 30.6032 98.3499 28.8532 100.55 27.4032C100.925 27.2032 101.325 27.0032 101.7 26.8032C102.2 26.5782 102.825 26.1532 103.625 26.3032C105.05 26.5782 105.175 28.1532 105.65 29.3532C106.4 31.2532 107.675 34.4781 109.6 35.0781C110.6 35.3781 111.45 34.7781 111.975 34.3781C113.5 33.2032 114.525 31.4282 115.675 29.8782C116.05 29.3532 116.875 28.0782 117.875 28.2782C119.55 28.5782 119.7 31.9532 120.175 33.5281C120.375 34.1781 120.625 34.9531 121.3 35.1281C122.25 35.3781 122.875 33.9781 123.15 33.3782C123.9 31.6782 124.875 27.9032 126.6 27.4282C127.4 27.2032 127.95 27.7032 128.25 28.1532C129.15 29.5032 128.9 32.1782 129.475 33.8281C129.7 34.4531 130.175 35.4031 131.15 35.2031C132.275 34.9781 132.55 33.4032 132.875 32.3532C133.45 30.5782 134.05 28.4032 135.85 27.8782C137.175 27.4782 137.65 28.7032 137.975 29.5032C138.75 31.4782 139.075 34.2531 141 35.0531C141.95 35.4531 143.2 35.1031 143.9 34.7281C145.6 33.8531 146.525 32.3032 148.725 31.9282C149.35 31.8282 149.9 32.1032 150.275 32.2782C151.35 32.8282 152.175 33.6031 153.2 34.2031C156.1 35.9031 160.025 35.1281 162.375 33.5532C164.125 32.3532 165.625 30.6282 166.325 28.3782ZM216.95 23.1532C217.25 21.9782 217.5 19.8282 217.425 18.1282C217.3 16.4782 217.125 15.1532 216.875 14.2032C216.425 12.4032 215.875 10.7532 215.025 9.32821C211.525 3.37823 205.475 -0.121761 195.7 0.0032388C195.125 0.0032388 194.875 0.0282388 194.275 0.0782386C193.25 0.178238 192.525 0.303238 191.65 0.428238C188.7 0.953236 185.375 1.52823 182.675 2.57823C181.75 2.92823 180.825 3.20323 180.025 3.65323C179.75 3.80323 179.25 4.05323 179.35 4.52823C179.5 5.27823 180.7 4.95323 181.275 4.80323C182.925 4.37823 185.25 3.50323 185.325 5.70322C185.475 9.55321 185.6 13.4032 185.75 17.2532C185.775 18.4032 185.8 19.5532 185.825 20.7032C185.85 22.2282 185.875 23.7282 185.9 25.2532V26.6032C185.925 28.3782 185.8 30.9032 187.1 31.4282C187.825 31.7282 188.25 31.0782 188.45 30.6282C188.9 29.5782 189 28.6532 189.1 26.8782C189.125 26.4782 189.125 26.0532 189.15 25.6532C189.175 24.3532 189.2 23.0282 189.225 21.7282C189.275 19.0282 189.3 16.3032 189.35 13.6032C189.375 12.2532 189.375 10.8782 189.4 9.52821V8.47822C189.4 7.65322 189.4 6.80322 189.4 5.97822C189.4 5.42822 189.375 4.85323 189.475 4.37823C189.575 3.92823 189.8 3.57823 190.15 3.35323C190.975 2.85323 194.45 2.65323 196.175 2.82823C197.425 2.97823 198.325 3.15323 199.35 3.40323C203.05 4.35323 206.225 6.07822 208.275 8.67822C209.4 10.1032 210.375 11.7282 211 13.6532C211.35 14.7532 211.6 15.6782 211.725 16.8532C212.075 19.9032 211.55 23.4032 210.8 25.3032C208.425 31.4032 203.9 34.2531 196.95 35.7781C195.725 36.0531 194.425 36.1281 193.525 36.1781C193.025 36.2031 192.525 36.2031 192.025 36.2281H190.425C189.775 36.2031 189.2 36.2031 188.475 36.1531C186.925 36.0281 184.425 35.7031 182.925 35.5031C182.325 35.4281 181.3 35.1781 181.025 35.3781C180.975 35.4031 180.95 35.4531 180.95 35.5531C181 35.9031 181.975 36.2031 182.5 36.4281C183.95 37.0031 185.525 37.3031 187.225 37.6531C195.9 39.4281 204.7 37.0031 209.6 33.5281C213.15 31.1032 215.725 27.9282 216.95 23.1532ZM269.225 11.3532C268.375 11.4782 267.95 11.8532 267.7 12.6782C267.375 13.8782 268.475 15.2032 269.725 15.0032C271.95 14.6032 271.85 11.2282 269.225 11.3532ZM255.675 18.0282C255.675 18.8282 255.675 19.6282 255.675 20.4282C255.675 21.0282 255.675 21.4782 255.675 22.1282C255.65 23.5282 255.6 25.4782 255.25 26.9032C254.9 28.2782 254.275 29.2782 253.525 30.2032C252.925 30.9532 251.875 31.9282 250.425 31.5782C246.6 30.6282 247.1 25.6032 247.1 20.8782C247.1 19.5532 247.025 16.5282 247.55 15.8282C248.275 14.8782 251.5 14.9782 252.8 14.8782C253.15 14.8532 253.575 14.8782 253.925 14.8532C255.925 14.8782 255.675 16.1782 255.675 18.0282ZM279.575 32.6032C279.575 32.5532 279.55 32.5282 279.5 32.4782C279.1 32.1782 277.575 32.8531 276.85 32.9781C274.4 33.3781 272.65 31.5532 272 30.0532C271.525 28.9782 271.425 27.6032 271.175 25.9782C271.075 25.3282 271.025 24.3282 270.975 23.4532C270.9 22.3282 270.95 20.5032 269.675 20.2532C267.75 19.9032 268.05 23.1782 267.825 25.1782C267.55 28.0532 266.575 30.5282 264.075 31.5032C262.775 32.0032 261.35 32.0782 260.325 31.2782C258.55 29.8782 258.625 27.1282 258.625 23.9782C258.6 22.5282 258.6 21.0782 258.575 19.6282C258.575 18.4032 258.3 15.9782 258.8 15.2032C259.45 14.2032 261.625 14.7782 262.8 14.2782C263.125 14.1282 263.575 13.8282 263.45 13.2282C263.1 11.5782 260.125 12.7782 259 11.9032C257.625 10.8532 259.4 6.62822 257.525 5.85322C256.925 5.60322 256.35 5.97822 256.1 6.30322C255.5 7.07822 255.675 8.75322 255.675 10.1032C255.675 10.6532 255.675 11.1532 255.525 11.5532C255.4 11.8532 255.125 12.1032 254.825 12.2282C254.35 12.4282 253.8 12.4032 253.125 12.4032C252.15 12.4282 251.175 12.4532 250.2 12.4782C249.575 12.4782 248.85 12.5782 248.3 12.4282C245.85 11.8032 248.7 5.80322 245.675 5.77822C245 5.87822 244.775 6.15322 244.575 6.72822C244.075 8.10322 244.8 10.4282 244.225 11.7532C243.65 13.1282 241.225 12.1532 240.325 13.5032C240.2 13.6782 240.05 13.9782 240.125 14.3282C240.5 16.2532 243.325 15.0032 244.1 16.2282C244.6 17.0032 244.425 19.3282 244.4 20.5532C244.3 24.4532 244.275 27.1282 242.825 29.5032C242.5 30.0282 242.175 30.5532 241.725 30.9282C241.35 31.2282 240.925 31.5282 240.45 31.7282C239.875 31.9532 238.975 32.0282 238.35 31.8032C236 30.9782 235.95 26.8532 235.825 23.8282C235.725 22.2782 236.05 20.4532 234.55 20.2032C232.875 19.9282 232.725 22.6782 232.425 24.0032C231.775 26.9282 230.05 31.2532 227.1 31.8782C225.275 32.2532 224.25 30.9532 223.925 29.6532C223.775 29.0032 223.75 28.3532 223.725 27.4032C223.8 26.0532 224 24.3282 224.075 23.2782C224.225 21.0532 223.775 19.9032 222.45 20.1532C221.3 20.3782 221.225 21.6532 220.925 23.0032C220.175 26.7032 220.475 32.3782 222.7 34.1531C223.15 34.5031 223.65 34.8281 224.225 35.0531C226.75 35.9531 229.35 34.4781 230.775 33.4282C231.475 32.9032 232.45 32.0532 233.775 32.3782C235.675 32.8532 236.275 34.7281 238.325 35.1281C239.375 35.3531 240.275 34.8781 240.9 34.5031C242.025 33.8031 242.9 32.9781 244.475 32.7281C245.325 32.5781 246.05 33.0032 246.55 33.2532C247.75 33.9031 248.7 34.7781 250.25 35.0531C251.125 35.2031 251.875 34.8281 252.35 34.5531C253.5 33.8781 254.4 32.9032 255.925 32.6532C256.725 32.5282 257.375 32.9031 257.825 33.1531C258.875 33.8031 259.65 34.7281 261.025 35.0531C263.5 35.6281 265.95 33.4281 267.55 32.7281C268.25 32.4282 269.225 32.4282 269.85 32.8032C270.475 33.1781 271 33.7282 271.6 34.1282C272.7 34.9031 274.7 35.4531 276.55 35.0031C277.125 34.8531 277.625 34.6531 278.075 34.3781C278.425 34.1031 279.7 33.2032 279.575 32.6032Z" fill="#000"></path> </svg>