<svg width="542" height="342" viewBox="0 0 542 342" fill="none" xmlns="http://www.w3.org/2000/svg">
<g clip-path="url(#clip0_64_49)">
<path d="M534.939 142.734C532.928 112.146 514.33 82.9662 487.005 60.7294C471.02 47.7175 451.974 36.4303 431.35 27.763C409.948 18.7656 386.667 8.68191 361.28 7.60309C355.012 7.33889 348.619 7.66914 342.512 9.07821C319.129 14.487 366.623 30.9408 372.847 33.37C306.681 15.3163 238.211 -2.98694 166.93 0.410973C153.183 1.06413 138.966 2.66401 127.113 8.24158C115.252 13.8191 106.349 24.2771 108.61 34.4047C110.474 42.7784 119.054 51.9887 111.7 58.7259C109.601 60.6486 106.547 61.8302 103.553 62.8577C88.162 68.1417 71.428 71.0992 56.9178 77.7042C34.4516 87.942 19.6331 106.179 13.2331 125.18C6.83305 144.173 8.07342 163.966 11.7799 183.061C18.7524 219.015 34.9213 254.476 65.6298 281.894C109.498 321.055 179.385 339.982 248.618 341.861C332.391 344.136 422.058 320.871 475.115 270.358C482.983 262.865 490.139 254.601 492.708 245.361C495.277 236.122 492.444 225.715 482.998 219.888C480.451 218.318 477.192 216.666 477.346 214.134C477.559 210.714 483.387 209.437 487.842 208.623C517.053 203.295 532.76 178.078 534.793 155.665C535.182 151.343 535.226 147.027 534.947 142.742L534.939 142.734Z" fill="#475D87"/>
<path opacity="0.7" d="M534.939 142.734C532.928 112.146 514.33 82.9662 487.005 60.7294C471.02 47.7175 451.974 36.4303 431.35 27.763C409.948 18.7656 386.667 8.68191 361.28 7.60309C355.012 7.33889 348.619 7.66914 342.512 9.07821C319.129 14.487 366.623 30.9408 372.847 33.37C306.681 15.3163 238.211 -2.98694 166.93 0.410973C153.183 1.06413 138.966 2.66401 127.113 8.24158C115.252 13.8191 106.349 24.2771 108.61 34.4047C110.474 42.7784 119.054 51.9887 111.7 58.7259C109.601 60.6486 106.547 61.8302 103.553 62.8577C88.162 68.1417 71.428 71.0992 56.9178 77.7042C34.4516 87.942 19.6331 106.179 13.2331 125.18C6.83305 144.173 8.07342 163.966 11.7799 183.061C18.7524 219.015 34.9213 254.476 65.6298 281.894C109.498 321.055 179.385 339.982 248.618 341.861C332.391 344.136 422.058 320.871 475.115 270.358C482.983 262.865 490.139 254.601 492.708 245.361C495.277 236.122 492.444 225.715 482.998 219.888C480.451 218.318 477.192 216.666 477.346 214.134C477.559 210.714 483.387 209.437 487.842 208.623C517.053 203.295 532.76 178.078 534.793 155.665C535.182 151.343 535.226 147.027 534.947 142.742L534.939 142.734Z" fill="#475D87"/>
<path d="M418.168 67.6206V23.2056" stroke="#263238" stroke-miterlimit="10"/>
<path d="M356.377 42.7638V317.708" stroke="#263238" stroke-miterlimit="10"/>
<path d="M356.377 20.4388V34.9478" stroke="#263238" stroke-miterlimit="10"/>
<path d="M418.168 284.911V72.5964" stroke="#263238" stroke-miterlimit="10"/>
<path d="M503.086 221.334V144.811H454.425V284.911H503.086V227.021" stroke="#263238" stroke-miterlimit="10"/>
<path d="M461.42 180.207V149.721H495.688V214.039H461.42V185.381" stroke="#263238" stroke-miterlimit="10"/>
<path d="M466.631 218.017H457.427V221.084H466.631V218.017Z" stroke="#263238" stroke-miterlimit="10"/>
<path d="M477.39 309.217H370.366V317.305H477.39V309.217Z" stroke="#263238" stroke-miterlimit="10"/>
<path d="M491.357 301.137H384.333V309.224H491.357V301.137Z" stroke="#263238" stroke-miterlimit="10"/>
<path d="M505.324 293.064H398.3V301.152H505.324V293.064Z" stroke="#263238" stroke-miterlimit="10"/>
<path d="M519.292 284.991H412.267V293.079H519.292V284.991Z" stroke="#263238" stroke-miterlimit="10"/>
<path d="M529.134 317.349L528.95 284.991H519.291V293.079L505.324 293.064V301.152L491.357 301.137V309.232L477.39 309.217L477.574 317.349H529.134Z" stroke="#263238" stroke-miterlimit="10"/>
<path d="M529.948 246.257H515.108L514.836 246.448L472.634 275.539V317.239C472.634 317.341 472.649 317.429 472.678 317.525H474.799C474.821 317.437 474.843 317.341 474.843 317.239V276.698L494.91 262.865V300.653C494.91 300.843 494.961 301.02 495.049 301.174H496.979C497.067 301.02 497.119 300.843 497.119 300.653V261.522C497.119 261.463 497.111 261.412 497.104 261.36L514.374 249.456V284.485C514.374 284.705 514.44 284.911 514.55 285.087H516.392C516.502 284.911 516.569 284.705 516.569 284.485V248.458H529.963C530.572 248.458 531.064 247.967 531.064 247.358C531.064 246.748 530.572 246.257 529.963 246.257H529.948Z" fill="#263238"/>
<path d="M374.182 317.517C374.204 317.429 374.226 317.334 374.226 317.231V276.691L394.292 262.857V300.653C394.292 300.843 394.344 301.02 394.432 301.174H396.362C396.45 301.02 396.502 300.843 396.502 300.653V261.522C396.502 261.463 396.494 261.412 396.487 261.36L413.749 249.456V284.485C413.749 284.705 413.815 284.911 413.926 285.087H415.768C415.878 284.911 415.944 284.705 415.944 284.485V248.458H429.339C429.948 248.458 430.439 247.967 430.439 247.358C430.439 246.748 429.948 246.257 429.339 246.257H414.498L414.227 246.448L372.024 275.539V317.239C372.024 317.341 372.039 317.429 372.068 317.525H374.19L374.182 317.517Z" fill="#263238"/>
<path d="M23.5964 189.791V267.268H182.453V113.79" stroke="#263238" stroke-miterlimit="10"/>
<path d="M182.453 103.141V47.0717H23.5964V179.135" stroke="#263238" stroke-miterlimit="10"/>
<path d="M507.959 132.019H448.891C447.785 132.019 446.887 132.916 446.887 134.023V135.219C446.887 136.326 447.785 137.223 448.891 137.223H507.959C509.066 137.223 509.963 136.326 509.963 135.219V134.023C509.963 132.916 509.066 132.019 507.959 132.019Z" stroke="#263238" stroke-miterlimit="10"/>
<path d="M12.8514 267.283H220.897V316.424" stroke="#263238" stroke-miterlimit="10"/>
<path d="M31.1195 267.407V317.033" stroke="#263238" stroke-miterlimit="10"/>
<path d="M50.1949 207.228C50.1949 207.228 55.5675 206.972 58.2464 209.665" stroke="#263238" stroke-width="6" stroke-linecap="round" stroke-linejoin="round"/>
<path d="M103.81 304.843C103.81 302.663 104.089 300.616 104.573 298.818V291.971H110.379C114.004 291.971 116.948 297.732 116.948 304.836C116.948 311.94 114.004 317.701 110.379 317.701H104.573V310.854C104.089 309.056 103.81 307.008 103.81 304.828V304.843Z" fill="#263238" stroke="#263238" stroke-miterlimit="10"/>
<path d="M104.573 317.708C108.201 317.708 111.142 311.948 111.142 304.843C111.142 297.738 108.201 291.978 104.573 291.978C100.945 291.978 98.0044 297.738 98.0044 304.843C98.0044 311.948 100.945 317.708 104.573 317.708Z" fill="#263238" stroke="#263238" stroke-miterlimit="10"/>
<path d="M104.037 313.775C106.295 313.775 108.126 309.805 108.126 304.909C108.126 300.013 106.295 296.044 104.037 296.044C101.78 296.044 99.9493 300.013 99.9493 304.909C99.9493 309.805 101.78 313.775 104.037 313.775Z" fill="#828282" stroke="#263238" stroke-miterlimit="10"/>
<path d="M58.2463 209.665C59.1418 210.56 59.7363 211.786 59.7363 213.452V306.076C59.7363 308.491 61.6959 310.45 64.1106 310.45H122.819" stroke="#263238" stroke-width="4" stroke-linecap="round" stroke-linejoin="round"/>
<path d="M95.5751 207.228C95.5751 207.228 100.948 206.972 103.627 209.665" stroke="#263238" stroke-width="6" stroke-linecap="round" stroke-linejoin="round"/>
<path d="M103.626 209.665C104.522 210.56 105.116 211.786 105.116 213.452V310.076" stroke="#263238" stroke-width="4" stroke-linecap="round" stroke-linejoin="round"/>
<path d="M60.2573 231.799H105.505" stroke="#263238" stroke-width="4" stroke-linecap="round" stroke-linejoin="round"/>
<path d="M83.5382 231.608V309.892" stroke="#263238" stroke-width="4" stroke-linecap="round" stroke-linejoin="round"/>
<path d="M53.1527 298.803L59.839 285.696" stroke="#263238" stroke-width="4" stroke-linecap="round" stroke-linejoin="round"/>
<path d="M59.7069 304.821H53.417" stroke="#263238" stroke-width="4" stroke-linecap="round" stroke-linejoin="round"/>
<path d="M42.4224 304.843C42.4224 302.663 42.7013 300.616 43.1857 298.818V291.971H48.9912C52.6169 291.971 55.5601 297.732 55.5601 304.836C55.5601 311.94 52.6169 317.701 48.9912 317.701H43.1857V310.854C42.7013 309.056 42.4224 307.008 42.4224 304.828V304.843Z" fill="#263238" stroke="#263238" stroke-miterlimit="10"/>
<path d="M43.1857 317.708C46.8135 317.708 49.7545 311.948 49.7545 304.843C49.7545 297.738 46.8135 291.978 43.1857 291.978C39.5578 291.978 36.6168 297.738 36.6168 304.843C36.6168 311.948 39.5578 317.708 43.1857 317.708Z" fill="#263238" stroke="#263238" stroke-miterlimit="10"/>
<path d="M38.5618 304.909C38.5618 309.804 40.3893 313.775 42.6499 313.775C44.9104 313.775 46.738 309.804 46.738 304.909C46.738 300.014 44.9104 296.044 42.6499 296.044C40.3893 296.044 38.5618 300.014 38.5618 304.909Z" fill="white" stroke="#263238" stroke-miterlimit="10"/>
<path d="M337.837 296.132L382.41 297.732L443.724 297.137L467.262 295.978C467.262 295.978 472.084 283.047 470.212 276.111C468.341 269.176 465.941 266.241 460.605 266.241C455.269 266.241 446.139 270.585 445.765 273.748C445.39 276.911 442.733 280.515 442.733 280.515H379.203C379.203 280.515 376.803 266.769 368.259 261.969C359.716 257.162 348.509 257.434 342.637 261.969C336.766 266.505 337.83 296.125 337.83 296.125L337.837 296.132Z" fill="#263238" stroke="#263238" stroke-miterlimit="10"/>
<path d="M456.979 295.728C456.979 292.015 456.51 288.514 455.673 285.446V273.756H445.765C439.57 273.756 434.55 283.597 434.55 295.736C434.55 307.874 439.57 317.716 445.765 317.716H455.673V306.025C456.502 302.957 456.979 299.456 456.979 295.743V295.728Z" fill="#263238" stroke="#263238" stroke-miterlimit="10"/>
<path d="M455.68 317.708C461.874 317.708 466.895 307.867 466.895 295.728C466.895 283.589 461.874 273.748 455.68 273.748C449.486 273.748 444.465 283.589 444.465 295.728C444.465 307.867 449.486 317.708 455.68 317.708Z" fill="#616161" stroke="#263238" stroke-miterlimit="10"/>
<path d="M456.59 310.993C460.449 310.993 463.578 304.215 463.578 295.853C463.578 287.491 460.449 280.713 456.59 280.713C452.731 280.713 449.603 287.491 449.603 295.853C449.603 304.215 452.731 310.993 456.59 310.993Z" fill="#E0E0E0" stroke="#263238" stroke-miterlimit="10"/>
<path d="M368.23 273.756H358.322C352.127 273.756 347.107 283.597 347.107 295.736C347.107 307.874 352.127 317.716 358.322 317.716H368.23C374.425 317.716 379.445 307.874 379.445 295.736C379.445 283.597 374.425 273.756 368.23 273.756Z" fill="#263238" stroke="#263238" stroke-miterlimit="10"/>
<path d="M255.95 273.756H245.169C238.431 273.756 232.97 283.597 232.97 295.736C232.97 307.874 238.431 317.716 245.169 317.716H255.95C262.688 317.716 268.149 307.874 268.149 295.736C268.149 283.597 262.688 273.756 255.95 273.756Z" fill="#263238" stroke="#263238" stroke-miterlimit="10"/>
<path d="M360.678 292.162C360.678 287.839 360.127 283.773 359.166 280.206V266.615H347.643C340.443 266.615 334.608 278.049 334.608 292.162C334.608 306.274 340.443 317.708 347.643 317.708H359.166V304.117C360.135 300.55 360.678 296.484 360.678 292.162Z" fill="#263238" stroke="#263238" stroke-miterlimit="10"/>
<path d="M359.166 317.708C366.365 317.708 372.201 306.271 372.201 292.162C372.201 278.052 366.365 266.615 359.166 266.615C351.967 266.615 346.131 278.052 346.131 292.162C346.131 306.271 351.967 317.708 359.166 317.708Z" fill="#616161" stroke="#263238" stroke-miterlimit="10"/>
<path d="M360.223 309.907C364.706 309.907 368.34 302.028 368.34 292.308C368.34 282.589 364.706 274.71 360.223 274.71C355.739 274.71 352.105 282.589 352.105 292.308C352.105 302.028 355.739 309.907 360.223 309.907Z" fill="#E0E0E0" stroke="#263238" stroke-miterlimit="10"/>
<path d="M468.759 258.351C466.682 251.856 422.792 161.236 419.416 157.603C416.04 153.97 353.199 134.493 353.199 134.493C353.199 134.493 324.377 125.921 315.026 125.407C305.675 124.886 225.433 131.638 223.877 132.159C222.321 132.68 211.928 164.876 209.073 178.9C206.218 192.925 204.919 221.488 204.919 249.53C204.919 277.572 208.816 298.084 213.227 298.084C217.638 298.084 332.942 301.46 334.762 301.46C336.582 301.46 339.173 299.383 343.848 293.152C348.523 286.922 352.421 268.222 357.61 265.888C362.806 263.554 368.516 264.846 371.371 271.341C374.226 277.836 373.448 298.084 373.448 298.084C373.448 298.084 415.702 297.849 443.717 297.137C444.752 294.334 447.57 286.833 451.071 278.291C455.519 267.444 463.027 268.56 466.366 271.341C469.376 273.851 468.994 287.421 467.262 295.978C467.673 295.904 467.922 295.824 467.981 295.743C469.28 293.923 470.579 288.991 471.614 282.504C472.656 276.009 470.836 264.846 468.759 258.351Z" fill="white" stroke="#263238" stroke-miterlimit="10"/>
<path d="M373.456 298.084C373.456 298.084 415.709 297.849 443.724 297.137C444.759 294.334 447.577 286.833 451.078 278.291C455.526 267.444 463.034 268.56 466.374 271.341C469.383 273.851 469.001 287.421 467.269 295.978C467.68 295.904 467.93 295.824 467.989 295.743C469.288 293.923 470.587 288.991 471.622 282.504C472.664 276.009 470.844 264.846 468.766 258.351C466.689 251.856 422.799 161.236 419.423 157.603C416.047 153.97 353.206 134.493 353.206 134.493C353.206 134.493 324.384 125.921 315.033 125.407C314.982 125.407 314.916 125.407 314.857 125.407L315.209 127.051C315.209 127.051 322.975 142.044 321.485 301.1C329.338 301.32 334.395 301.46 334.762 301.46C336.582 301.46 339.173 299.383 343.848 293.152C348.523 286.922 352.421 268.222 357.61 265.888C362.806 263.554 368.516 264.846 371.371 271.341C374.226 277.836 373.448 298.084 373.448 298.084H373.456Z" fill="#E0E0E0" stroke="#263238" stroke-miterlimit="10"/>
<path d="M467.864 274.357C469.148 279.48 468.62 289.27 467.262 295.978C467.673 295.904 467.923 295.824 467.981 295.743C469.28 293.923 470.579 288.991 471.614 282.504C472.297 278.24 471.746 271.958 470.697 266.314C470.565 269.125 469.904 272.361 467.864 274.365V274.357Z" fill="#263238" stroke="#263238" stroke-miterlimit="10"/>
<path d="M356.883 266.336H205.425C206.614 285.395 209.763 298.077 213.235 298.077C217.646 298.077 332.949 301.453 334.769 301.453C336.589 301.453 339.18 299.376 343.856 293.145C348.303 287.208 352.054 269.983 356.883 266.336Z" fill="#263238" stroke="#263238" stroke-miterlimit="10"/>
<path d="M258.057 130.376V130.742C258.057 131.99 259.128 132.981 260.376 132.871L275.18 131.638C276.288 131.542 277.14 130.618 277.14 129.51V129.143C277.14 127.888 276.068 126.904 274.82 127.014L260.017 128.247C258.908 128.343 258.057 129.267 258.057 130.376Z" stroke="#263238" stroke-miterlimit="10"/>
<path d="M315.209 127.044C315.209 127.044 318.615 198.128 318.615 207.742C318.615 217.356 319.613 288.837 319.613 288.837L357.661 289.241C357.661 289.241 360.868 266.813 360.868 243.387C360.868 219.961 357.265 163.892 355.261 147.475C353.257 131.058 350.652 118.641 350.652 118.641L315.209 127.051V127.044Z" fill="white" stroke="#263238" stroke-miterlimit="10"/>
<path d="M322.417 222.758L350.454 221.554C350.454 221.554 351.856 242.976 350.454 258.197C349.052 273.418 348.45 277.22 347.65 278.019C346.85 278.819 322.417 278.019 322.417 278.019C322.417 278.019 320.817 276.42 320.817 273.814C320.817 271.209 320.215 226.361 320.215 224.959C320.215 223.558 321.015 223.359 322.417 222.758Z" fill="#263238" stroke="#263238" stroke-miterlimit="10"/>
<path d="M318.813 139.461L319.613 148.473L347.452 144.268C347.452 144.268 347.254 141.868 345.448 138.059C343.643 134.25 341.243 133.054 341.243 133.054L320.817 137.663" stroke="#263238" stroke-miterlimit="10"/>
<path d="M344.846 122.442C344.846 122.442 349.456 134.654 353.059 167.694C356.663 200.734 358.065 268.009 355.261 281.63C355.261 281.63 355.261 283.832 353.059 285.432C350.857 287.032 322.219 286.43 322.219 286.43" stroke="#263238" stroke-miterlimit="10"/>
<path d="M346.043 152.473C346.043 152.473 347.246 148.87 349.845 175.099C352.45 201.328 352.648 211.14 351.445 211.94C350.241 212.74 324.611 214.142 324.611 214.142" stroke="#263238" stroke-miterlimit="10"/>
<path d="M338.234 152.275C338.234 152.275 322.211 154.08 321.015 155.482C319.811 156.884 322.417 168.296 323.019 186.922C323.621 205.54 323.621 209.951 323.621 209.951" stroke="#263238" stroke-miterlimit="10"/>
<path d="M345.646 157.684L325.624 160.891C325.624 160.891 323.621 161.492 324.024 163.694C324.428 165.896 327.026 194.334 326.424 208.946" stroke="#263238" stroke-miterlimit="10"/>
<path d="M196.669 185.535V256.436" stroke="#263238" stroke-miterlimit="10"/>
<path d="M199.752 177.447L199.906 168.362C199.906 168.362 193.543 135.799 193.088 135.19C192.633 134.581 140.676 134.133 140.074 134.434C139.465 134.735 139.92 137.92 139.92 137.92C139.92 137.92 140.529 148.37 140.977 181.843C141.432 215.316 140.823 283.781 140.823 283.781L198.834 284.236C198.834 284.236 198.225 279.693 199.135 264.699C200.045 249.706 200.192 180.941 200.192 180.331V178.365L199.737 177.455L199.752 177.447Z" fill="white" stroke="#263238" stroke-miterlimit="10"/>
<path d="M142.827 136.76C142.827 136.76 187.209 137.428 188.405 137.692C189.601 137.957 190.401 140.356 190.805 141.692C191.201 143.028 196.801 167.415 197.205 171.011" stroke="#263238" stroke-miterlimit="10"/>
<path d="M196.669 265.896C196.669 265.896 196.933 274.695 196.001 276.559C195.069 278.423 194.005 278.959 192.537 279.223C191.069 279.487 142.291 278.687 142.291 278.687" stroke="#263238" stroke-miterlimit="10"/>
<path d="M146.291 224.989L145.623 273.631L193.205 274.299C193.205 274.299 194.269 226.053 194.137 225.392C194.005 224.724 194.005 224.057 191.341 223.792C188.677 223.528 148.955 223.125 148.295 223.125C147.634 223.125 146.563 223.924 146.298 224.989H146.291Z" fill="#263238" stroke="#263238" stroke-miterlimit="10"/>
<path d="M150.284 146.492C150.284 146.492 145.887 152.62 145.484 154.087C145.08 155.555 145.484 156.619 146.548 156.752C147.612 156.884 187.862 156.752 187.862 156.752C187.862 156.752 189.33 156.487 189.198 154.22" stroke="#263238" stroke-miterlimit="10"/>
<path d="M152.955 146.088H186.005C186.005 146.088 187.069 146.088 187.737 148.884" stroke="#263238" stroke-miterlimit="10"/>
<path d="M155.884 165.947C155.884 165.947 152.684 167.011 152.551 169.947C152.419 172.882 153.219 212.593 153.219 212.593" stroke="#263238" stroke-miterlimit="10"/>
<path d="M160.948 165.815C160.948 165.815 186.005 166.483 187.605 166.747C189.205 167.011 190.673 168.743 191.069 170.079C191.466 171.415 191.466 210.59 191.466 210.59" stroke="#263238" stroke-miterlimit="10"/>
<path d="M157.484 162.879C157.484 162.879 152.155 162.747 149.755 164.215C147.355 165.683 147.759 169.543 147.891 171.011C148.023 172.479 148.427 211.925 148.427 211.925C148.427 211.925 148.427 213.525 150.563 213.657C152.698 213.789 188.28 213.789 188.28 213.789C188.28 213.789 189.748 213.789 190.548 212.593" stroke="#263238" stroke-miterlimit="10"/>
<path d="M162.68 162.351C162.68 162.351 187.333 163.019 189.601 164.083C191.869 165.147 191.466 167.151 191.598 168.083" stroke="#263238" stroke-miterlimit="10"/>
<path d="M210.057 177.902H198.394V181.99H210.057V177.902Z" stroke="#263238" stroke-miterlimit="10"/>
<path d="M205.814 176.691H201.873V183.509H205.814V176.691Z" stroke="#263238" stroke-miterlimit="10"/>
<path d="M208.992 259.239H197.33V263.327H208.992V259.239Z" stroke="#263238" stroke-miterlimit="10"/>
<path d="M204.757 258.028H200.816V264.846H204.757V258.028Z" stroke="#263238" stroke-miterlimit="10"/>
<path d="M315.143 132.753L226.783 139.461C226.783 139.461 219.18 177.932 219.18 178.607C219.18 179.282 216.721 241.009 217.616 256.003C218.512 270.996 218.732 283.516 218.732 283.516L318.945 286.423L315.143 132.753Z" fill="white" stroke="#263238" stroke-miterlimit="10"/>
<path d="M315.143 132.753L226.783 139.461C226.783 139.461 219.18 177.932 219.18 178.607C219.18 179.282 216.721 241.009 217.616 256.003C218.512 270.996 218.732 283.516 218.732 283.516L318.945 286.423L315.143 132.753Z" fill="#263238" stroke="#263238" stroke-miterlimit="10"/>
<path d="M286.255 285.468V238.03H266.725V284.903L286.255 285.468Z" fill="#B42126" stroke="#263238" stroke-miterlimit="10"/>
<path d="M226.776 283.744L266.725 284.903V238.03H226.776V283.744Z" fill="#B42126" stroke="#263238" stroke-miterlimit="10"/>
<path d="M242.57 260.377H250.93V238.022H242.57V260.377Z" fill="white" stroke="#263238" stroke-miterlimit="10"/>
<path d="M307.591 286.085H318.938L318.777 279.465L317.749 238.03H269.778V284.992L307.591 286.085Z" fill="#B42126" stroke="#263238" stroke-miterlimit="10"/>
<path d="M307.591 286.085H309.727V238.03H269.778V284.992L307.591 286.085Z" fill="#B42126" stroke="#263238" stroke-miterlimit="10"/>
<path d="M287.701 250.506H274.299V259.54H287.701V250.506Z" fill="white" stroke="#263238" stroke-miterlimit="10"/>
<path d="M285.573 245.222H293.932V238.022H285.573V245.222Z" fill="white" stroke="#263238" stroke-miterlimit="10"/>
<path d="M377.669 277.183C377.669 277.183 377.948 285.799 378.227 288.03C378.505 290.253 380.45 291.369 382.953 290.811C385.456 290.253 438.843 291.648 438.843 291.648C438.843 291.648 441.346 291.09 441.625 288.03C441.904 284.969 442.741 280.522 442.741 280.522L377.676 277.183H377.669Z" fill="#263238" stroke="#263238" stroke-miterlimit="10"/>
<path d="M427.401 195.105C427.401 195.105 431.438 227.814 433.309 231.85C435.181 235.887 436.627 237.472 438.785 238.338C440.95 239.204 453.192 242.807 454.638 242.947C456.077 243.094 456.803 242.367 456.37 240.642C455.937 238.911 439.225 200.873 437.779 198.569C436.341 196.264 431.585 194.393 429.852 193.813C428.12 193.233 427.401 195.112 427.401 195.112V195.105Z" fill="#B2B2B2" stroke="#263238" stroke-miterlimit="10"/>
<path d="M435.79 196.903L443.342 238.889" stroke="#263238" stroke-miterlimit="10"/>
<path d="M453.632 224.93C453.632 224.93 454.065 240.349 454.352 241.648C454.638 242.947 455.79 243.519 457.236 243.38C458.675 243.233 463.431 242.661 464.011 241.215C464.59 239.776 463.724 228.82 461.992 226.229C460.26 223.638 456.803 222.772 455.365 222.625C453.926 222.479 453.632 224.93 453.632 224.93Z" fill="#B2B2B2" stroke="#263238" stroke-miterlimit="10"/>
<path d="M454.352 241.641C454.638 242.94 455.79 243.512 457.236 243.373C458.675 243.226 463.431 242.653 464.01 241.215C464.59 239.776 463.724 228.82 461.992 226.229C461.273 225.157 460.267 224.379 459.218 223.829L459.541 224.644L460.546 238.764H454.131C454.205 240.246 454.286 241.34 454.352 241.648V241.641Z" fill="#263238" stroke="#263238" stroke-miterlimit="10"/>
<path d="M363.716 244.422L459.989 255.526" stroke="#263238" stroke-miterlimit="10"/>
<path d="M364.641 247.893L449.111 256.913L455.82 256.45" stroke="#263238" stroke-miterlimit="10"/>
<path d="M448.414 262.931C448.414 262.931 445.177 275.656 443.783 278.665" stroke="#263238" stroke-miterlimit="10"/>
<path d="M365.103 254.139C365.103 254.139 372.047 257.837 375.746 271.26" stroke="#263238" stroke-miterlimit="10"/>
<path d="M361.632 177.777L423.188 191.89" stroke="#263238" stroke-miterlimit="10"/>
<path d="M362.557 173.844C362.557 173.844 426.66 188.419 431.981 191.2" stroke="#263238" stroke-miterlimit="10"/>
<path d="M433.654 250.183C432.898 249.963 432.289 249.17 432.289 248.414V238.837C432.289 238.081 432.898 237.648 433.654 237.868C434.41 238.089 435.02 238.881 435.02 239.637V249.214C435.02 249.97 434.41 250.403 433.654 250.183Z" fill="#263238" stroke="#263238" stroke-miterlimit="10"/>
<path d="M422.975 249.09C422.219 248.869 421.61 248.077 421.61 247.321V237.744C421.61 236.988 422.219 236.555 422.975 236.775C423.731 236.995 424.341 237.788 424.341 238.544V248.121C424.341 248.877 423.731 249.31 422.975 249.09Z" fill="#263238" stroke="#263238" stroke-miterlimit="10"/>
<path d="M236.493 238.353H288.097V200.917H236.493V238.353Z" fill="#B42126" stroke="#263238" stroke-miterlimit="10"/>
<path d="M236.493 238.353H267.613V200.917H236.493V238.353Z" fill="#B42126" stroke="#263238" stroke-miterlimit="10"/>
<path d="M248.802 218.325H255.312V200.917H248.802V218.325Z" fill="white" stroke="#263238" stroke-miterlimit="10"/>
<path d="M315.907 163.635H280.443V201.071H316.832L315.907 163.635Z" fill="#B42126" stroke="#263238" stroke-miterlimit="10"/>
<path d="M280.435 201.071H311.554V163.635H280.435V201.071Z" fill="#B42126" stroke="#263238" stroke-miterlimit="10"/>
<path d="M309.264 184.661H295.863V193.696H309.264V184.661Z" fill="white" stroke="#263238" stroke-miterlimit="10"/>
<path d="M292.743 181.043H299.253V163.635H292.743V181.043Z" fill="white" stroke="#263238" stroke-miterlimit="10"/>
<path d="M316.831 200.917H276.112V238.353H317.756L316.831 200.917Z" fill="#B42126" stroke="#263238" stroke-miterlimit="10"/>
<path d="M276.112 238.353H307.231V200.917H276.112V238.353Z" fill="#B42126" stroke="#263238" stroke-miterlimit="10"/>
<path d="M288.42 218.325H294.93V200.917H288.42V218.325Z" fill="white" stroke="#263238" stroke-miterlimit="10"/>
<path d="M229.535 196H277.36V161.302H229.535V196Z" fill="#B42126" stroke="#263238" stroke-miterlimit="10"/>
<path d="M229.535 196H258.372V161.302H229.535V196Z" fill="#B42126" stroke="#263238" stroke-miterlimit="10"/>
<path d="M240.941 177.44H246.974V161.302H240.941V177.44Z" fill="white" stroke="#263238" stroke-miterlimit="10"/>
<path d="M200.684 160.847C200.684 160.847 200.244 162.256 200.948 164.186C201.653 166.123 202.798 169.463 203.502 170.519C204.207 171.576 204.031 173.073 204.031 173.073L213.88 177.645C213.88 177.645 214.056 173.954 214.409 173.778C214.761 173.602 217.484 173.602 218.101 172.633C218.717 171.664 218.012 166.828 218.012 166.828C218.012 166.828 218.541 166.299 218.629 165.771C218.717 165.243 217.308 164.01 217.484 163.041C217.66 162.072 218.101 161.015 217.396 159.614C216.691 158.205 214.622 154.799 211.363 153.743C208.111 152.686 204.603 153.911 203.201 155.409C201.792 156.906 200.596 158.645 200.684 160.847Z" fill="white" stroke="#263238" stroke-miterlimit="10"/>
<path d="M215.297 161.859C215.546 161.507 216.001 160.399 216.001 159.643C216.001 158.887 214.996 158.784 213.33 159.445C212.001 159.966 203.979 162.784 200.941 164.171V164.186C201.616 166.05 202.702 169.213 203.407 170.387C203.678 170.717 203.906 170.952 204.045 171.033C204.853 171.488 207.069 170.578 207.877 169.367C208.537 168.369 208.831 165.426 208.912 164.421C208.926 164.208 208.934 164.076 208.934 164.076C209.234 163.268 210.445 163.217 211.304 163.672C212.163 164.127 212.97 164.178 213.521 163.973C214.079 163.775 214.225 163.166 214.225 162.813C214.225 162.461 215.033 162.212 215.282 161.859H215.297Z" fill="#263238" stroke="#263238" stroke-miterlimit="10"/>
<path d="M212.119 164.479C212.119 164.479 210.908 162.718 209.851 164.178C208.794 165.639 210.556 167.657 211.26 168.009C211.965 168.362 212.266 167.958 212.471 167.408" fill="white"/>
<path d="M212.119 164.479C212.119 164.479 210.908 162.718 209.851 164.178C208.794 165.639 210.556 167.657 211.26 168.009C211.965 168.362 212.266 167.958 212.471 167.408" stroke="#263238" stroke-miterlimit="10"/>
<path d="M211.363 153.75C208.111 152.693 204.603 153.919 203.201 155.416C201.792 156.913 200.596 158.652 200.684 160.854C200.684 160.854 200.244 162.263 200.948 164.193C201.146 164.736 201.381 165.397 201.631 166.087L201.689 166.101C201.689 166.101 204.662 166.755 207.943 165.147C211.223 163.54 216.508 160.612 217.014 159.651C217.066 159.548 217.168 159.467 217.293 159.408C216.501 157.897 214.475 154.763 211.37 153.757L211.363 153.75Z" fill="#B42126" stroke="#263238" stroke-miterlimit="10"/>
<path d="M214.989 161.412C214.989 161.412 218.923 161.514 221.036 160.458C223.15 159.401 222.798 157.434 222.394 157.28C221.991 157.126 216.398 157.838 216.398 157.838C216.398 157.838 216.853 160.054 214.989 161.419V161.412Z" fill="#B42126" stroke="#263238" stroke-miterlimit="10"/>
<path d="M216.985 163.753C216.985 164.208 216.846 164.582 216.669 164.582C216.493 164.582 216.354 164.208 216.354 163.753C216.354 163.298 216.493 162.924 216.669 162.924C216.846 162.924 216.985 163.298 216.985 163.753Z" fill="#263238"/>
<path d="M215.488 179.561C215.488 179.561 213.998 177 212.288 175.649C210.578 174.299 206.174 172.662 204.464 172.523C202.754 172.383 203.253 173.308 203.04 174.299C202.827 175.297 202.614 175.649 203.179 175.789C203.752 175.928 206.453 176.427 209.939 178.064C213.425 179.7 215.201 180.698 215.554 180.478C215.906 180.265 215.48 179.553 215.48 179.553L215.488 179.561Z" fill="#263238" stroke="#263238" stroke-miterlimit="10"/>
<path d="M209.198 307.757C209.198 307.757 211.678 311.83 213.073 312.622C214.46 313.415 217.146 314.31 217.345 315.8C217.543 317.29 215.752 317.187 214.864 317.187C213.976 317.187 208.111 317.385 207.113 316.989C206.122 316.593 203.737 314.802 201.051 313.312C198.372 311.822 195.987 311.624 195.987 309.144C195.987 306.663 198.269 306.164 198.665 305.768C199.062 305.372 209.198 307.757 209.198 307.757Z" fill="white" stroke="#263238" stroke-miterlimit="10"/>
<path d="M199.862 238.433C199.862 238.433 202.343 261.874 202.445 263.063C202.548 264.252 200.853 268.523 200.163 272.302C199.466 276.075 198.57 286.503 198.57 286.503L198.871 307.06C198.871 307.06 204.831 308.447 205.726 308.351C206.622 308.248 208.904 307.852 209.205 307.757C209.506 307.654 211.194 307.06 211.194 307.06C211.194 307.06 210.798 300.205 210.798 298.018C210.798 295.831 212.185 281.828 212.486 280.441C212.787 279.054 216.258 258.593 216.757 247.769C217.256 236.944 215.466 227.902 215.466 227.902L198.379 228.798L199.869 238.433H199.862Z" fill="#B42126" stroke="#263238" stroke-miterlimit="10"/>
<path d="M204.133 308.153C204.133 308.153 205.623 311.727 206.321 312.321C207.018 312.916 211.385 314.604 211.583 315.404C211.781 316.196 210.989 316.894 209.895 317.195C208.801 317.495 200.955 317.495 199.363 316.695C197.77 315.903 192.809 312.226 191.414 311.632C190.027 311.037 187.737 310.245 188.332 307.757C188.926 305.269 191.906 303.39 191.906 303.39L204.126 308.16L204.133 308.153Z" fill="white" stroke="#263238" stroke-miterlimit="10"/>
<path d="M196.977 227.007C196.977 227.007 195.987 231.872 197.476 235.645C198.966 239.417 203.135 244.481 203.832 245.479C204.53 246.47 203.634 257.992 203.135 262.461C202.636 266.93 201.843 274.482 201.843 274.776C201.843 275.069 197.572 285.997 195.781 291.061C193.99 296.125 191.01 303.375 191.01 303.375C191.01 303.375 194.981 306.355 196.97 306.949C198.959 307.544 204.119 308.138 204.119 308.138C204.119 308.138 204.618 305.753 205.11 304.762C205.609 303.772 205.007 303.375 205.609 300.689C206.21 298.003 212.86 283.707 215.341 279.634C217.822 275.561 219.311 268.112 220.31 264.435C221.301 260.758 221.3 245.765 221.499 240.598C221.697 235.432 220.009 229.575 220.009 229.575L219.51 227.689L196.963 226.992L196.977 227.007Z" fill="#B42126" stroke="#263238" stroke-miterlimit="10"/>
<path d="M213.359 256.304C213.198 257.749 213 259.261 212.757 260.824" stroke="#263238" stroke-miterlimit="10"/>
<path d="M212.075 229.216C212.075 229.216 211.4 230.346 211.62 232.151C211.847 233.957 213.425 234.632 214.328 235.762C215.231 236.892 213.425 237.34 212.97 238.698C212.515 240.055 213.873 241.178 213.873 242.088C213.873 242.712 214.093 246.719 213.697 252.429" stroke="#263238" stroke-miterlimit="10"/>
<path d="M196.28 223.433C196.28 223.433 195.488 227.308 196.177 227.704C196.875 228.1 218.827 227.807 219.517 227.704C220.207 227.601 220.611 227.506 220.706 226.611C220.809 225.715 220.31 223.33 220.31 223.33L196.273 223.433H196.28Z" fill="#263238" stroke="#263238" stroke-miterlimit="10"/>
<path d="M203.187 175.796C203.187 175.796 196.5 179.847 194.864 185.109C193.227 190.371 195.509 213.789 195.509 213.789C195.509 213.789 193.638 221.884 195.385 223.506C197.132 225.128 219.429 224.754 220.427 224.005C221.425 223.257 222.174 221.759 222.174 220.145C222.174 218.53 222.673 204.322 222.673 196.352C222.673 188.382 218.893 183.238 217.19 181.403C215.495 179.568 214.328 179.282 214.328 179.282C214.328 179.282 205.388 175.796 203.194 175.796H203.187Z" fill="#B42126" stroke="#263238" stroke-miterlimit="10"/>
<path d="M198.893 193.02C199.326 193.872 199.877 194.796 200.559 195.794" stroke="#263238" stroke-miterlimit="10"/>
<path d="M198.299 184.727C198.299 184.727 196.941 186.085 197.528 189.241" stroke="#263238" stroke-miterlimit="10"/>
<path d="M214.056 181.564C214.056 181.564 218.218 180.735 221 182.195C223.781 183.656 228.28 188.118 229.491 188.72C230.702 189.322 232.794 191.384 234.526 191.839C236.258 192.294 239.128 193.255 239.128 193.255C239.128 193.255 247.554 192.668 248.537 192.587C249.528 192.507 256.515 192.631 256.515 192.631C256.515 192.631 256.919 193.894 257.037 195.376C257.161 196.859 257.037 197.864 257.037 197.864C257.037 197.864 254.468 199.369 253.785 199.523C253.103 199.677 247.055 201.269 241.8 202.891C236.552 204.513 228.413 203.221 222.908 201.82C217.403 200.418 204.581 195.097 203.928 194.789" fill="#B42126"/>
<path d="M214.056 181.564C214.056 181.564 218.218 180.735 221 182.195C223.781 183.656 228.28 188.118 229.491 188.72C230.702 189.322 232.794 191.384 234.526 191.839C236.258 192.294 239.128 193.255 239.128 193.255C239.128 193.255 247.554 192.668 248.537 192.587C249.528 192.507 256.515 192.631 256.515 192.631C256.515 192.631 256.919 193.894 257.037 195.376C257.161 196.859 257.037 197.864 257.037 197.864C257.037 197.864 254.468 199.369 253.785 199.523C253.103 199.677 247.055 201.269 241.8 202.891C236.552 204.513 228.413 203.221 222.908 201.82C217.403 200.418 204.581 195.097 203.928 194.789" stroke="#263238" stroke-miterlimit="10"/>
<path d="M230.644 198.436C229.513 198.774 228.354 199.046 227.209 199.178" stroke="#263238" stroke-miterlimit="10"/>
<path d="M238.952 194.664C238.952 194.664 236.324 196.316 232.919 197.644" stroke="#263238" stroke-miterlimit="10"/>
<path d="M215.055 198.701C215.055 198.701 210.981 206.451 206.012 209.922" stroke="#263238" stroke-miterlimit="10"/>
<path d="M209.594 211.412C208.581 212.564 207.532 213.65 206.511 214.494" stroke="#263238" stroke-miterlimit="10"/>
<path d="M215.253 203.867C215.253 203.867 213.469 206.634 211.15 209.548" stroke="#263238" stroke-miterlimit="10"/>
<path d="M256.515 192.639C256.515 192.639 258.064 190.914 259.092 190.004C260.119 189.094 261.359 188.529 261.969 188.111C262.578 187.692 262.967 185.733 263.848 186.393C264.728 187.054 264.508 187.722 264.185 188.294C263.862 188.874 263.136 190.033 262.893 190.51L262.659 190.987C262.659 190.987 265.191 191.611 266.292 191.611C267.393 191.611 270.438 191.729 270.578 192.272C270.717 192.815 270.299 193.395 270.027 193.417C269.756 193.439 266.005 193.747 266.005 193.747C266.005 193.747 269.095 195.516 269.117 195.794C269.139 196.066 268.449 196.587 267.642 196.837C266.835 197.086 265.631 198.106 264.354 198.209C263.077 198.312 259.378 198.062 258.908 197.915C258.438 197.769 257.037 197.864 257.037 197.864L256.508 192.624L256.515 192.639Z" fill="white" stroke="#263238" stroke-miterlimit="10"/>
<path d="M264.67 195.251L267.649 196.844" stroke="#263238" stroke-miterlimit="10"/>
<path d="M263.51 196.815L265.418 197.666" stroke="#263238" stroke-miterlimit="10"/>
<path d="M130.364 317.466H196.611V269.404H130.364V317.466Z" fill="#B42126" stroke="#263238" stroke-miterlimit="10"/>
<path d="M130.364 317.466H170.313V269.404H130.364V317.466Z" fill="#B42126" stroke="#263238" stroke-miterlimit="10"/>
<path d="M146.159 291.758H154.519V269.404H146.159V291.758Z" fill="white" stroke="#263238" stroke-miterlimit="10"/>
<path d="M120.918 261.118H67.1785V309.18H120.918V261.118Z" fill="#B42126" stroke="#263238" stroke-miterlimit="10"/>
<path d="M120.926 261.118H88.5144V309.18H120.926V261.118Z" fill="#B42126" stroke="#263238" stroke-miterlimit="10"/>
<path d="M108.103 261.118H101.322V283.472H108.103V261.118Z" fill="white" stroke="#263238" stroke-miterlimit="10"/>
<path d="M542 317.349H0" stroke="#263238" stroke-miterlimit="10"/>
</g>
<defs>
<clipPath id="clip0_64_49">
<rect width="542" height="342" fill="white"/>
</clipPath>
</defs>
</svg>
