<svg width="56" height="39" viewBox="0 0 56 39" fill="none" xmlns="http://www.w3.org/2000/svg">
<mask id="path-1-inside-1_177_486" fill="white">
<path d="M42.3923 37.0963H46.0077V0.851852H10.1113V37.0963H13.5251"/>
</mask>
<path d="M46.0077 37.0963V38.0963H47.0077V37.0963H46.0077ZM46.0077 0.851852H47.0077V-0.148148H46.0077V0.851852ZM10.1113 0.851852V-0.148148H9.11133V0.851852H10.1113ZM10.1113 37.0963H9.11133V38.0963H10.1113V37.0963ZM42.3923 38.0963H46.0077V36.0963H42.3923V38.0963ZM47.0077 37.0963V0.851852H45.0077V37.0963H47.0077ZM46.0077 -0.148148H10.1113V1.85185H46.0077V-0.148148ZM9.11133 0.851852V37.0963H11.1113V0.851852H9.11133ZM10.1113 38.0963H13.5251V36.0963H10.1113V38.0963Z" fill="#B42126" mask="url(#path-1-inside-1_177_486)"/>
<path d="M28.5391 14.9684C27.946 16.451 27.353 17.915 26.76 19.3605C26.167 20.7689 25.4998 22.1588 24.7585 23.5302C24.3508 24.3456 23.9246 25.124 23.4798 25.8652C23.0721 26.5695 22.5903 27.2922 22.0343 28.0335C21.8119 28.2559 21.5895 28.4968 21.3671 28.7562C21.1818 28.9786 20.9409 29.1825 20.6444 29.3678C20.5332 29.4419 20.422 29.5161 20.3108 29.5902C20.2367 29.6273 20.107 29.6643 19.9216 29.7014C19.7734 29.7755 19.551 29.8126 19.2545 29.8126C19.1062 29.7384 18.958 29.6829 18.8097 29.6458C18.6985 29.6087 18.5873 29.5161 18.4761 29.3678C18.2908 29.1825 18.124 28.886 17.9758 28.4783C17.7534 27.6999 17.6422 26.8845 17.6422 26.032C17.6051 24.846 17.6422 23.6785 17.7534 22.5295C17.9016 21.3805 18.0314 20.213 18.1426 19.0269C18.2167 18.1374 18.3094 17.1552 18.4205 16.0803C18.5317 14.9684 18.5317 13.9677 18.4205 13.0781C18.4205 12.9299 18.402 12.8001 18.365 12.6889C18.3279 12.5778 18.2908 12.4851 18.2538 12.411C18.1796 12.3739 18.1426 12.3183 18.1426 12.2442C18.1055 12.2442 18.087 12.2256 18.087 12.1886H17.9758C17.9387 12.1886 17.9202 12.2071 17.9202 12.2442C17.9202 12.2442 17.8831 12.2442 17.809 12.2442C17.6978 12.3183 17.5866 12.3924 17.4754 12.4666C17.3642 12.5407 17.2345 12.6148 17.0862 12.6889C16.1596 13.4673 15.3628 14.4495 14.6956 15.6355C14.0284 16.8216 13.4354 17.9521 12.9165 19.0269C12.6571 19.5829 12.4162 20.1388 12.1938 20.6948C11.9714 21.2508 11.7119 21.8253 11.4154 22.4183C11.3413 22.6036 11.2486 22.8075 11.1374 23.0298C11.0633 23.2152 10.9707 23.4005 10.8595 23.5858C10.7112 23.8823 10.5074 24.1603 10.2479 24.4197C9.98845 24.6051 9.7846 24.6977 9.63635 24.6977H9.24717C9.09892 24.6977 8.95066 24.6607 8.8024 24.5865C8.69121 24.5124 8.59855 24.4383 8.52442 24.3641C8.48736 24.253 8.43176 24.1603 8.35763 24.0862C8.28351 24.012 8.22791 23.9379 8.19084 23.8638C8.19084 23.7526 8.15378 23.6414 8.07965 23.5302C7.96846 23.0854 7.89433 22.6221 7.85727 22.1403C7.8202 21.6585 7.76461 21.2137 7.69048 20.806C7.65341 20.2871 7.61635 19.8053 7.57929 19.3605C7.57929 18.8787 7.54222 18.3968 7.46809 17.915C7.46809 17.8038 7.44956 17.6926 7.4125 17.5814C7.4125 17.4702 7.4125 17.3776 7.4125 17.3034C7.3013 17.4146 7.19011 17.5258 7.07892 17.637C6.96773 17.7482 6.85654 17.8779 6.74534 18.0262C6.41177 18.3968 6.09672 18.786 5.80021 19.1937C5.54076 19.6014 5.26278 20.0276 4.96626 20.4724C4.55856 21.0654 4.09526 21.8067 3.57636 22.6963C3.09453 23.5858 2.64976 24.29 2.24205 24.8089C2.01967 25.0313 1.83434 25.1981 1.68609 25.3093C1.61196 25.3093 1.5193 25.3278 1.40811 25.3649C1.33398 25.3649 1.25985 25.3463 1.18572 25.3093C1.11159 25.3093 1.03747 25.2908 0.963338 25.2537C0.926273 25.2166 0.870677 25.1796 0.796549 25.1425C0.574164 24.9201 0.44444 24.7348 0.407376 24.5865C0.296183 24.4383 0.240587 24.2344 0.240587 23.975C0.166459 23.3819 0.129395 22.7704 0.129395 22.1403C0.129395 21.4731 0.166459 20.8245 0.240587 20.1944C0.240587 19.7126 0.277651 19.1381 0.351779 18.471C0.388844 17.7667 0.462972 17.081 0.574164 16.4139C0.685357 15.7097 0.796549 15.0425 0.907741 14.4124C1.056 13.7453 1.22279 13.1893 1.40811 12.7445C1.48224 12.7445 1.53783 12.7631 1.5749 12.8001C1.64902 12.8001 1.70462 12.8001 1.74168 12.8001C1.59343 13.319 1.4637 13.9121 1.35251 14.5792C1.27838 15.2093 1.20425 15.8579 1.13013 16.5251C1.09306 17.1922 1.056 17.8594 1.01893 18.5265C0.98187 19.1937 0.963338 19.7867 0.963338 20.3056C0.963338 20.8245 0.963338 21.399 0.963338 22.0291C1.0004 22.6592 1.056 23.2337 1.13013 23.7526C1.16719 23.8267 1.18572 23.9194 1.18572 24.0306C1.18572 24.1047 1.20425 24.1788 1.24132 24.253L1.29691 24.3086C1.37104 24.3086 1.40811 24.253 1.40811 24.1418C1.85288 23.5117 2.27911 22.8075 2.68682 22.0291C3.13159 21.2508 3.57636 20.5095 4.02113 19.8053C4.31764 19.3605 4.59562 18.9157 4.85507 18.471C5.15159 18.0262 5.4481 17.5999 5.74461 17.1922C5.92993 17.0069 6.07819 16.8401 6.18938 16.6919C6.33764 16.5436 6.48589 16.4139 6.63415 16.3027C7.04186 15.9691 7.39397 15.8023 7.69048 15.8023C7.76461 15.7282 7.80167 15.7097 7.80167 15.7467C7.83874 15.7838 7.89433 15.8023 7.96846 15.8023C8.00552 15.8023 8.07965 15.8579 8.19084 15.9691C8.22791 16.0062 8.26497 16.0432 8.30204 16.0803C8.3391 16.0803 8.37617 16.1174 8.41323 16.1915C8.45029 16.2286 8.50589 16.3583 8.58002 16.5807C8.69121 16.9884 8.76534 17.3776 8.8024 17.7482C8.87653 18.23 8.9136 18.7119 8.9136 19.1937C8.95066 19.6385 9.00626 20.1203 9.08038 20.6392C9.11745 21.0469 9.15451 21.4731 9.19158 21.9179C9.2657 22.3627 9.35837 22.7704 9.46956 23.141C9.58075 23.0298 9.63635 22.9742 9.63635 22.9742C9.7846 22.5295 9.95139 22.1403 10.1367 21.8067C10.3591 21.2508 10.6 20.6763 10.8595 20.0832C11.1189 19.4902 11.3784 18.9157 11.6378 18.3598C12.2679 17.1737 12.9351 15.9691 13.6393 14.746C14.3435 13.4858 15.233 12.411 16.3079 11.5214C16.7156 11.262 17.0862 11.0767 17.4198 10.9655C17.5681 10.9284 17.7905 10.9099 18.087 10.9099C18.3094 10.9099 18.4947 10.9284 18.6429 10.9655C18.7541 11.0396 18.8468 11.1137 18.9209 11.1878C18.995 11.2249 19.0692 11.2805 19.1433 11.3546C19.2174 11.4288 19.273 11.5029 19.3101 11.577C19.3472 11.6511 19.3842 11.7438 19.4213 11.855C19.6066 12.2256 19.6993 12.5778 19.6993 12.9113C19.8105 13.875 19.8105 14.9128 19.6993 16.0247C19.5881 17.0996 19.4769 18.1188 19.3657 19.0825C19.1804 20.2686 19.0136 21.4361 18.8653 22.5851C18.7541 23.697 18.68 24.846 18.6429 26.032C18.6429 26.4027 18.6429 26.7733 18.6429 27.144C18.68 27.5146 18.7541 27.8852 18.8653 28.2559C18.9394 28.33 18.9765 28.4227 18.9765 28.5339C19.0136 28.608 19.0692 28.6821 19.1433 28.7562C19.2545 28.8674 19.3472 28.923 19.4213 28.923C19.4954 28.9601 19.551 28.9786 19.5881 28.9786C19.6251 28.9416 19.6807 28.923 19.7549 28.923C19.829 28.8489 19.9031 28.8118 19.9772 28.8118C20.0884 28.7748 20.1811 28.7192 20.2552 28.6451C20.4776 28.4968 20.6815 28.33 20.8668 28.1447C21.0521 27.9223 21.2374 27.7185 21.4227 27.5331C22.0158 26.903 22.5347 26.2359 22.9794 25.5317C23.4242 24.7904 23.8504 24.0306 24.2581 23.2522C25.0736 21.8438 25.7963 20.4724 26.4264 19.1381C27.0936 17.7667 27.7607 16.3583 28.4279 14.9128L28.5391 14.9684ZM1.35251 24.4197C1.35251 24.3456 1.33398 24.3086 1.29691 24.3086L1.35251 24.4197Z" fill="#475D87"/>
<path d="M55.7942 14.9684C55.2012 16.451 54.6082 17.915 54.0151 19.3605C53.4221 20.7689 52.755 22.1588 52.0137 23.5302C51.606 24.3456 51.1797 25.124 50.735 25.8652C50.3273 26.5695 49.8454 27.2922 49.2895 28.0335C49.0671 28.2559 48.8447 28.4968 48.6223 28.7562C48.437 28.9786 48.1961 29.1825 47.8996 29.3678C47.7884 29.4419 47.6772 29.5161 47.566 29.5902C47.4919 29.6273 47.3621 29.6643 47.1768 29.7014C47.0286 29.7755 46.8062 29.8126 46.5097 29.8126C46.3614 29.7384 46.2131 29.6829 46.0649 29.6458C45.9537 29.6087 45.8425 29.5161 45.7313 29.3678C45.546 29.1825 45.3792 28.886 45.2309 28.4783C45.0086 27.6999 44.8974 26.8845 44.8974 26.032C44.8603 24.846 44.8974 23.6785 45.0086 22.5295C45.1568 21.3805 45.2865 20.213 45.3977 19.0269C45.4719 18.1374 45.5645 17.1552 45.6757 16.0803C45.7869 14.9684 45.7869 13.9677 45.6757 13.0781C45.6757 12.9299 45.6572 12.8001 45.6201 12.6889C45.5831 12.5778 45.546 12.4851 45.5089 12.411C45.4348 12.3739 45.3977 12.3183 45.3977 12.2442C45.3607 12.2442 45.3421 12.2256 45.3421 12.1886H45.2309C45.1939 12.1886 45.1754 12.2071 45.1754 12.2442C45.1754 12.2442 45.1383 12.2442 45.0642 12.2442C44.953 12.3183 44.8418 12.3924 44.7306 12.4666C44.6194 12.5407 44.4897 12.6148 44.3414 12.6889C43.4148 13.4673 42.6179 14.4495 41.9508 15.6355C41.2836 16.8216 40.6906 17.9521 40.1717 19.0269C39.9122 19.5829 39.6713 20.1388 39.4489 20.6948C39.2266 21.2508 38.9671 21.8253 38.6706 22.4183C38.5965 22.6036 38.5038 22.8075 38.3926 23.0298C38.3185 23.2152 38.2258 23.4005 38.1146 23.5858C37.9664 23.8823 37.7625 24.1603 37.5031 24.4197C37.2436 24.6051 37.0398 24.6977 36.8915 24.6977H36.5023C36.3541 24.6977 36.2058 24.6607 36.0576 24.5865C35.9464 24.5124 35.8537 24.4383 35.7796 24.3641C35.7425 24.253 35.6869 24.1603 35.6128 24.0862C35.5387 24.012 35.4831 23.9379 35.446 23.8638C35.446 23.7526 35.4089 23.6414 35.3348 23.5302C35.2236 23.0854 35.1495 22.6221 35.1124 22.1403C35.0754 21.6585 35.0198 21.2137 34.9456 20.806C34.9086 20.2871 34.8715 19.8053 34.8345 19.3605C34.8345 18.8787 34.7974 18.3968 34.7233 17.915C34.7233 17.8038 34.7047 17.6926 34.6677 17.5814C34.6677 17.4702 34.6677 17.3776 34.6677 17.3034C34.5565 17.4146 34.4453 17.5258 34.3341 17.637C34.2229 17.7482 34.1117 17.8779 34.0005 18.0262C33.6669 18.3968 33.3519 18.786 33.0554 19.1937C32.7959 19.6014 32.5179 20.0276 32.2214 20.4724C31.8137 21.0654 31.3504 21.8067 30.8315 22.6963C30.3497 23.5858 29.9049 24.29 29.4972 24.8089C29.2748 25.0313 29.0895 25.1981 28.9413 25.3093C28.8671 25.3093 28.7745 25.3278 28.6633 25.3649C28.5891 25.3649 28.515 25.3463 28.4409 25.3093C28.3668 25.3093 28.2926 25.2908 28.2185 25.2537C28.1814 25.2166 28.1258 25.1796 28.0517 25.1425C27.8293 24.9201 27.6996 24.7348 27.6625 24.5865C27.5514 24.4383 27.4958 24.2344 27.4958 23.975C27.4216 23.3819 27.3846 22.7704 27.3846 22.1403C27.3846 21.4731 27.4216 20.8245 27.4958 20.1944C27.4958 19.7126 27.5328 19.1381 27.6069 18.471C27.644 17.7667 27.7181 17.081 27.8293 16.4139C27.9405 15.7097 28.0517 15.0425 28.1629 14.4124C28.3112 13.7453 28.478 13.1893 28.6633 12.7445C28.7374 12.7445 28.793 12.7631 28.8301 12.8001C28.9042 12.8001 28.9598 12.8001 28.9969 12.8001C28.8486 13.319 28.7189 13.9121 28.6077 14.5792C28.5336 15.2093 28.4594 15.8579 28.3853 16.5251C28.3482 17.1922 28.3112 17.8594 28.2741 18.5265C28.237 19.1937 28.2185 19.7867 28.2185 20.3056C28.2185 20.8245 28.2185 21.399 28.2185 22.0291C28.2556 22.6592 28.3112 23.2337 28.3853 23.7526C28.4224 23.8267 28.4409 23.9194 28.4409 24.0306C28.4409 24.1047 28.4594 24.1788 28.4965 24.253L28.5521 24.3086C28.6262 24.3086 28.6633 24.253 28.6633 24.1418C29.108 23.5117 29.5343 22.8075 29.942 22.0291C30.3868 21.2508 30.8315 20.5095 31.2763 19.8053C31.5728 19.3605 31.8508 18.9157 32.1102 18.471C32.4068 18.0262 32.7033 17.5999 32.9998 17.1922C33.1851 17.0069 33.3334 16.8401 33.4445 16.6919C33.5928 16.5436 33.7411 16.4139 33.8893 16.3027C34.297 15.9691 34.6491 15.8023 34.9456 15.8023C35.0198 15.7282 35.0568 15.7097 35.0568 15.7467C35.0939 15.7838 35.1495 15.8023 35.2236 15.8023C35.2607 15.8023 35.3348 15.8579 35.446 15.9691C35.4831 16.0062 35.5201 16.0432 35.5572 16.0803C35.5943 16.0803 35.6313 16.1174 35.6684 16.1915C35.7055 16.2286 35.7611 16.3583 35.8352 16.5807C35.9464 16.9884 36.0205 17.3776 36.0576 17.7482C36.1317 18.23 36.1688 18.7119 36.1688 19.1937C36.2058 19.6385 36.2614 20.1203 36.3356 20.6392C36.3726 21.0469 36.4097 21.4731 36.4467 21.9179C36.5209 22.3627 36.6135 22.7704 36.7247 23.141C36.8359 23.0298 36.8915 22.9742 36.8915 22.9742C37.0398 22.5295 37.2066 22.1403 37.3919 21.8067C37.6143 21.2508 37.8552 20.6763 38.1146 20.0832C38.3741 19.4902 38.6335 18.9157 38.893 18.3598C39.5231 17.1737 40.1902 15.9691 40.8944 14.746C41.5987 13.4858 42.4882 12.411 43.5631 11.5214C43.9708 11.262 44.3414 11.0767 44.675 10.9655C44.8232 10.9284 45.0456 10.9099 45.3421 10.9099C45.5645 10.9099 45.7498 10.9284 45.8981 10.9655C46.0093 11.0396 46.102 11.1137 46.1761 11.1878C46.2502 11.2249 46.3243 11.2805 46.3985 11.3546C46.4726 11.4288 46.5282 11.5029 46.5653 11.577C46.6023 11.6511 46.6394 11.7438 46.6764 11.855C46.8618 12.2256 46.9544 12.5778 46.9544 12.9113C47.0656 13.875 47.0656 14.9128 46.9544 16.0247C46.8432 17.0996 46.732 18.1188 46.6208 19.0825C46.4355 20.2686 46.2687 21.4361 46.1205 22.5851C46.0093 23.697 45.9352 24.846 45.8981 26.032C45.8981 26.4027 45.8981 26.7733 45.8981 27.144C45.9352 27.5146 46.0093 27.8852 46.1205 28.2559C46.1946 28.33 46.2317 28.4227 46.2317 28.5339C46.2687 28.608 46.3243 28.6821 46.3985 28.7562C46.5097 28.8674 46.6023 28.923 46.6764 28.923C46.7506 28.9601 46.8062 28.9786 46.8432 28.9786C46.8803 28.9416 46.9359 28.923 47.01 28.923C47.0842 28.8489 47.1583 28.8118 47.2324 28.8118C47.3436 28.7748 47.4363 28.7192 47.5104 28.6451C47.7328 28.4968 47.9366 28.33 48.1219 28.1447C48.3073 27.9223 48.4926 27.7185 48.6779 27.5331C49.2709 26.903 49.7898 26.2359 50.2346 25.5317C50.6794 24.7904 51.1056 24.0306 51.5133 23.2522C52.3287 21.8438 53.0515 20.4724 53.6816 19.1381C54.3487 17.7667 55.0159 16.3583 55.683 14.9128L55.7942 14.9684ZM28.6077 24.4197C28.6077 24.3456 28.5891 24.3086 28.5521 24.3086L28.6077 24.4197Z" fill="#475D87"/>
<path d="M18.9072 34.3857C18.8157 34.6145 18.7242 34.8404 18.6327 35.0635C18.5412 35.2808 18.4383 35.4953 18.3239 35.7069C18.261 35.8327 18.1952 35.9528 18.1266 36.0672C18.0637 36.1759 17.9893 36.2874 17.9035 36.4018C17.8692 36.4361 17.8349 36.4733 17.8006 36.5133C17.772 36.5476 17.7348 36.5791 17.689 36.6077C17.6719 36.6191 17.6547 36.6305 17.6376 36.642C17.6261 36.6477 17.6061 36.6534 17.5775 36.6591C17.5546 36.6706 17.5203 36.6763 17.4746 36.6763C17.4517 36.6649 17.4288 36.6563 17.4059 36.6506C17.3888 36.6448 17.3716 36.6305 17.3545 36.6077C17.3259 36.5791 17.3001 36.5333 17.2773 36.4704C17.2429 36.3503 17.2258 36.2245 17.2258 36.0929C17.2201 35.9099 17.2258 35.7298 17.2429 35.5525C17.2658 35.3752 17.2858 35.195 17.303 35.012C17.3144 34.8747 17.3287 34.7232 17.3459 34.5573C17.363 34.3857 17.363 34.2313 17.3459 34.0941C17.3459 34.0712 17.343 34.0512 17.3373 34.034C17.3316 34.0168 17.3259 34.0025 17.3202 33.9911C17.3087 33.9854 17.303 33.9768 17.303 33.9654C17.2973 33.9654 17.2944 33.9625 17.2944 33.9568H17.2773C17.2715 33.9568 17.2687 33.9597 17.2687 33.9654C17.2687 33.9654 17.263 33.9654 17.2515 33.9654C17.2344 33.9768 17.2172 33.9882 17.2001 33.9997C17.1829 34.0111 17.1629 34.0226 17.14 34.034C16.997 34.1541 16.8741 34.3057 16.7711 34.4887C16.6682 34.6717 16.5767 34.8461 16.4966 35.012C16.4565 35.0978 16.4194 35.1836 16.3851 35.2694C16.3507 35.3552 16.3107 35.4438 16.265 35.5353C16.2535 35.5639 16.2392 35.5954 16.2221 35.6297C16.2106 35.6583 16.1963 35.6869 16.1792 35.7155C16.1563 35.7612 16.1248 35.8041 16.0848 35.8441C16.0448 35.8727 16.0133 35.887 15.9904 35.887H15.9304C15.9075 35.887 15.8846 35.8813 15.8617 35.8699C15.8446 35.8584 15.8303 35.847 15.8188 35.8356C15.8131 35.8184 15.8046 35.8041 15.7931 35.7927C15.7817 35.7812 15.7731 35.7698 15.7674 35.7584C15.7674 35.7412 15.7617 35.724 15.7502 35.7069C15.7331 35.6383 15.7216 35.5668 15.7159 35.4924C15.7102 35.4181 15.7016 35.3494 15.6902 35.2865C15.6844 35.2065 15.6787 35.1321 15.673 35.0635C15.673 34.9891 15.6673 34.9148 15.6559 34.8404C15.6559 34.8233 15.653 34.8061 15.6473 34.7889C15.6473 34.7718 15.6473 34.7575 15.6473 34.7461C15.6301 34.7632 15.613 34.7804 15.5958 34.7975C15.5786 34.8147 15.5615 34.8347 15.5443 34.8576C15.4929 34.9148 15.4442 34.9748 15.3985 35.0377C15.3584 35.1006 15.3156 35.1664 15.2698 35.235C15.2069 35.3266 15.1354 35.4409 15.0553 35.5782C14.981 35.7155 14.9123 35.8241 14.8494 35.9042C14.8151 35.9385 14.7865 35.9643 14.7636 35.9814C14.7522 35.9814 14.7379 35.9843 14.7208 35.99C14.7093 35.99 14.6979 35.9871 14.6864 35.9814C14.675 35.9814 14.6636 35.9786 14.6521 35.9728C14.6464 35.9671 14.6378 35.9614 14.6264 35.9557C14.5921 35.9214 14.5721 35.8928 14.5663 35.8699C14.5492 35.847 14.5406 35.8156 14.5406 35.7755C14.5292 35.684 14.5234 35.5896 14.5234 35.4924C14.5234 35.3895 14.5292 35.2894 14.5406 35.1922C14.5406 35.1178 14.5463 35.0292 14.5578 34.9262C14.5635 34.8175 14.5749 34.7117 14.5921 34.6088C14.6092 34.5001 14.6264 34.3972 14.6435 34.2999C14.6664 34.197 14.6922 34.1112 14.7208 34.0426C14.7322 34.0426 14.7408 34.0454 14.7465 34.0512C14.7579 34.0512 14.7665 34.0512 14.7722 34.0512C14.7493 34.1312 14.7293 34.2227 14.7122 34.3257C14.7007 34.4229 14.6893 34.523 14.6779 34.6259C14.6721 34.7289 14.6664 34.8318 14.6607 34.9348C14.655 35.0377 14.6521 35.1292 14.6521 35.2093C14.6521 35.2894 14.6521 35.378 14.6521 35.4753C14.6578 35.5725 14.6664 35.6611 14.6779 35.7412C14.6836 35.7526 14.6864 35.7669 14.6864 35.7841C14.6864 35.7955 14.6893 35.807 14.695 35.8184L14.7036 35.827C14.715 35.827 14.7208 35.8184 14.7208 35.8013C14.7894 35.704 14.8552 35.5954 14.9181 35.4753C14.9867 35.3552 15.0553 35.2408 15.124 35.1321C15.1697 35.0635 15.2126 34.9948 15.2526 34.9262C15.2984 34.8576 15.3442 34.7918 15.3899 34.7289C15.4185 34.7003 15.4414 34.6746 15.4585 34.6517C15.4814 34.6288 15.5043 34.6088 15.5272 34.5916C15.5901 34.5402 15.6444 34.5144 15.6902 34.5144C15.7016 34.503 15.7073 34.5001 15.7073 34.5058C15.713 34.5116 15.7216 34.5144 15.7331 34.5144C15.7388 34.5144 15.7502 34.523 15.7674 34.5402C15.7731 34.5459 15.7788 34.5516 15.7845 34.5573C15.7903 34.5573 15.796 34.563 15.8017 34.5745C15.8074 34.5802 15.816 34.6002 15.8274 34.6345C15.8446 34.6974 15.856 34.7575 15.8617 34.8147C15.8732 34.889 15.8789 34.9634 15.8789 35.0377C15.8846 35.1064 15.8932 35.1807 15.9046 35.2608C15.9104 35.3237 15.9161 35.3895 15.9218 35.4581C15.9332 35.5267 15.9475 35.5896 15.9647 35.6468C15.9818 35.6297 15.9904 35.6211 15.9904 35.6211C16.0133 35.5525 16.039 35.4924 16.0676 35.4409C16.102 35.3552 16.1391 35.2665 16.1792 35.175C16.2192 35.0835 16.2592 34.9948 16.2993 34.909C16.3965 34.726 16.4994 34.5402 16.6081 34.3514C16.7168 34.157 16.854 33.9911 17.0199 33.8538C17.0828 33.8138 17.14 33.7852 17.1915 33.7681C17.2143 33.7623 17.2487 33.7595 17.2944 33.7595C17.3287 33.7595 17.3573 33.7623 17.3802 33.7681C17.3974 33.7795 17.4117 33.7909 17.4231 33.8024C17.4345 33.8081 17.446 33.8167 17.4574 33.8281C17.4689 33.8395 17.4774 33.851 17.4832 33.8624C17.4889 33.8739 17.4946 33.8882 17.5003 33.9053C17.5289 33.9625 17.5432 34.0168 17.5432 34.0683C17.5604 34.217 17.5604 34.3772 17.5432 34.5487C17.526 34.7146 17.5089 34.8719 17.4917 35.0206C17.4631 35.2036 17.4374 35.3837 17.4145 35.561C17.3974 35.7326 17.3859 35.9099 17.3802 36.0929C17.3802 36.1501 17.3802 36.2073 17.3802 36.2645C17.3859 36.3217 17.3974 36.3789 17.4145 36.4361C17.426 36.4475 17.4317 36.4618 17.4317 36.479C17.4374 36.4904 17.446 36.5019 17.4574 36.5133C17.4746 36.5305 17.4889 36.539 17.5003 36.539C17.5118 36.5448 17.5203 36.5476 17.526 36.5476C17.5318 36.5419 17.5403 36.539 17.5518 36.539C17.5632 36.5276 17.5747 36.5219 17.5861 36.5219C17.6033 36.5162 17.6176 36.5076 17.629 36.4961C17.6633 36.4733 17.6948 36.4475 17.7234 36.4189C17.752 36.3846 17.7806 36.3532 17.8092 36.3246C17.9007 36.2273 17.9807 36.1244 18.0494 36.0157C18.118 35.9013 18.1838 35.7841 18.2467 35.664C18.3725 35.4467 18.484 35.235 18.5813 35.0292C18.6842 34.8175 18.7871 34.6002 18.8901 34.3772L18.9072 34.3857ZM14.7122 35.8441C14.7122 35.8327 14.7093 35.827 14.7036 35.827L14.7122 35.8441Z" fill="#475D87"/>
<path d="M21.2924 34.3772C21.3038 34.3886 21.3124 34.3943 21.3181 34.3943C21.2037 34.5602 21.0808 34.6946 20.9492 34.7975C20.8177 34.9005 20.6604 34.992 20.4774 35.072C20.4431 35.0835 20.4145 35.0921 20.3916 35.0978C20.3916 35.1264 20.3887 35.155 20.383 35.1836C20.383 35.2122 20.3802 35.2408 20.3744 35.2694C20.3516 35.3837 20.3258 35.4896 20.2972 35.5868C20.2686 35.6783 20.2257 35.7727 20.1685 35.8699C20.1171 35.9442 20.0656 36.01 20.0141 36.0672C19.9627 36.1244 19.8969 36.1787 19.8168 36.2302C19.7482 36.2645 19.6824 36.2931 19.6195 36.316C19.5623 36.3331 19.4937 36.336 19.4136 36.3246C19.3164 36.3188 19.2277 36.2874 19.1477 36.2302C19.0847 36.1787 19.0276 36.1215 18.9761 36.0586C18.9189 35.9671 18.8817 35.8813 18.8646 35.8013C18.8417 35.7212 18.8245 35.6325 18.8131 35.5353C18.8074 35.4381 18.8131 35.3466 18.8302 35.2608C18.8474 35.1693 18.876 35.0749 18.916 34.9777C18.9275 34.9491 18.9389 34.9262 18.9503 34.909C18.9675 34.8862 18.9818 34.8633 18.9932 34.8404L18.9675 34.7889C18.9389 34.7432 18.9189 34.7003 18.9075 34.6603C18.9017 34.6202 18.896 34.5773 18.8903 34.5316C18.8903 34.4801 18.8932 34.4344 18.8989 34.3943C18.9046 34.3486 18.9189 34.3028 18.9418 34.2571C19.0104 34.0683 19.1305 33.9196 19.3021 33.811C19.3478 33.7824 19.3907 33.7595 19.4308 33.7423C19.4765 33.7252 19.5223 33.7109 19.568 33.6994C19.6252 33.688 19.6767 33.6851 19.7224 33.6908C19.7739 33.6908 19.8283 33.7023 19.8854 33.7252C19.9998 33.7652 20.1028 33.8424 20.1943 33.9568C20.2515 34.0369 20.2915 34.1169 20.3144 34.197C20.3373 34.2714 20.3573 34.3571 20.3744 34.4544C20.3859 34.5516 20.3945 34.6431 20.4002 34.7289C20.4059 34.8147 20.4059 34.9062 20.4002 35.0034C20.4059 34.9977 20.4116 34.9948 20.4173 34.9948C20.4231 34.9948 20.4316 34.992 20.4431 34.9863C20.6261 34.9233 20.7834 34.8461 20.9149 34.7546C21.0522 34.6574 21.178 34.5316 21.2924 34.3772ZM20.1514 35.235C20.1571 35.2179 20.16 35.1922 20.16 35.1578C19.9598 35.1979 19.7425 35.1979 19.508 35.1578C19.4393 35.1407 19.3793 35.1235 19.3278 35.1064C19.2763 35.0835 19.222 35.052 19.1648 35.012C19.1419 34.9948 19.1191 34.9805 19.0962 34.9691C19.079 34.9519 19.0647 34.9348 19.0533 34.9176C19.0419 34.9291 19.0333 34.9434 19.0276 34.9605C19.0276 34.9777 19.0218 34.9948 19.0104 35.012C18.9818 35.0978 18.9618 35.1836 18.9503 35.2694C18.9389 35.3494 18.9389 35.4381 18.9503 35.5353C18.9618 35.6154 18.9761 35.6897 18.9932 35.7584C19.0161 35.8213 19.0504 35.887 19.0962 35.9557C19.1534 36.0186 19.2049 36.0643 19.2506 36.0929C19.2792 36.1044 19.3078 36.1158 19.3364 36.1273C19.365 36.1387 19.3964 36.1444 19.4308 36.1444C19.4937 36.1444 19.5451 36.1387 19.5852 36.1273C19.6252 36.1101 19.671 36.0872 19.7224 36.0586C19.7854 36.0186 19.8368 35.9757 19.8769 35.9299C19.9169 35.8785 19.9569 35.8213 19.997 35.7584C20.0427 35.6726 20.077 35.5896 20.0999 35.5096C20.1228 35.4238 20.14 35.3323 20.1514 35.235ZM20.1771 35.0549C20.1828 34.9577 20.1828 34.8633 20.1771 34.7718C20.1771 34.6803 20.1685 34.5831 20.1514 34.4801C20.14 34.4 20.1257 34.3314 20.1085 34.2742C20.0913 34.2113 20.0599 34.1484 20.0141 34.0855C19.9855 34.0454 19.9569 34.014 19.9283 33.9911C19.8997 33.9625 19.8626 33.9396 19.8168 33.9225C19.7711 33.911 19.7339 33.9053 19.7053 33.9053C19.6767 33.8996 19.6395 33.8996 19.5938 33.9053C19.5594 33.9168 19.528 33.9282 19.4994 33.9396C19.4708 33.9511 19.4365 33.9654 19.3964 33.9825C19.2649 34.0626 19.1705 34.1741 19.1133 34.3171C19.1019 34.3571 19.0933 34.3943 19.0876 34.4286C19.0819 34.4572 19.0733 34.4915 19.0619 34.5316C19.0619 34.5945 19.0733 34.6517 19.0962 34.7032C19.1248 34.6746 19.1534 34.6488 19.182 34.6259C19.2163 34.5974 19.2506 34.5688 19.2849 34.5402L19.3192 34.5745C19.2792 34.6031 19.2449 34.6345 19.2163 34.6688C19.1877 34.7032 19.1591 34.7346 19.1305 34.7632C19.1591 34.809 19.1991 34.8519 19.2506 34.8919C19.2964 34.9262 19.3421 34.9548 19.3879 34.9777C19.4336 34.9948 19.488 35.0091 19.5509 35.0206C19.6595 35.0549 19.7625 35.0749 19.8597 35.0806C19.9627 35.0806 20.0685 35.072 20.1771 35.0549Z" fill="#475D87"/>
<path d="M24.9597 34.3772C24.9483 34.4401 24.9168 34.5287 24.8654 34.6431C24.8196 34.7575 24.7653 34.8776 24.7024 35.0034C24.6452 35.1292 24.5851 35.2493 24.5222 35.3637C24.465 35.4781 24.4193 35.5639 24.3849 35.6211C24.3163 35.7469 24.2448 35.8699 24.1705 35.99C24.0961 36.1101 24.0103 36.2216 23.9131 36.3246C23.8387 36.4046 23.7644 36.4647 23.69 36.5047C23.6615 36.5104 23.6414 36.5162 23.63 36.5219C23.6186 36.5219 23.6014 36.519 23.5785 36.5133C23.5499 36.5076 23.527 36.5019 23.5099 36.4961C23.4985 36.4847 23.4842 36.4733 23.467 36.4618C23.4212 36.4161 23.3841 36.3589 23.3555 36.2903C23.3326 36.2216 23.3069 36.1558 23.2783 36.0929C23.2439 35.9786 23.2153 35.8699 23.1925 35.7669C23.1696 35.6583 23.1496 35.5467 23.1324 35.4324C23.1038 35.2665 23.0809 35.1064 23.0638 34.9519C23.0466 34.7918 23.0323 34.6288 23.0209 34.4629C22.9065 34.6803 22.7893 34.889 22.6692 35.0892C22.5491 35.2894 22.4147 35.4838 22.266 35.6726C22.1802 35.7641 22.0887 35.8556 21.9914 35.9471C21.8942 36.0386 21.7855 36.1072 21.6654 36.153C21.5796 36.1816 21.4996 36.1873 21.4252 36.1701C21.3795 36.1587 21.3423 36.1444 21.3137 36.1273C21.2851 36.1101 21.2536 36.0872 21.2193 36.0586C21.1907 36.0243 21.1679 35.9928 21.1507 35.9643C21.1335 35.9299 21.1164 35.8899 21.0992 35.8441C21.0878 35.7984 21.0792 35.7555 21.0735 35.7155C21.0678 35.6754 21.0592 35.6325 21.0477 35.5868C21.042 35.4209 21.0477 35.2665 21.0649 35.1235C21.0763 34.9805 21.1049 34.8318 21.1507 34.6774C21.1965 34.5344 21.2508 34.4029 21.3137 34.2828C21.3766 34.1627 21.4624 34.0454 21.5711 33.9311C21.6283 33.8853 21.6797 33.8453 21.7255 33.811C21.777 33.7766 21.837 33.7509 21.9056 33.7337C21.9743 33.7051 22.0372 33.6908 22.0944 33.6908C22.1573 33.6908 22.2259 33.6966 22.3003 33.708C22.3803 33.7309 22.4518 33.7595 22.5147 33.7938C22.5777 33.8281 22.6434 33.871 22.7121 33.9225C22.815 34.0025 22.9122 34.0969 23.0037 34.2056C23.0037 34.1198 23.0009 34.034 22.9952 33.9482C22.9952 33.8624 22.9952 33.7738 22.9952 33.6823C23.0066 33.402 23.0238 33.1275 23.0466 32.8587C23.0752 32.5899 23.1324 32.3182 23.2182 32.0437C23.2582 31.9408 23.3011 31.8464 23.3469 31.7606C23.3984 31.6748 23.4641 31.5919 23.5442 31.5118C23.5842 31.4775 23.6214 31.4489 23.6557 31.426C23.69 31.4031 23.7301 31.3831 23.7758 31.366C23.8731 31.3431 23.9646 31.3345 24.0504 31.3402C24.0961 31.346 24.1333 31.3545 24.1619 31.366C24.1905 31.3774 24.2248 31.3974 24.2648 31.426C24.3106 31.4603 24.3506 31.509 24.3849 31.5719C24.4135 31.6519 24.4278 31.7234 24.4278 31.7863C24.4278 31.8492 24.4221 31.9207 24.4107 32.0008C24.3821 32.1838 24.3306 32.364 24.2563 32.5413C24.1819 32.7186 24.1018 32.8902 24.016 33.056C23.9989 33.0903 23.956 33.1647 23.8874 33.2791C23.8245 33.3877 23.7501 33.5136 23.6643 33.6565C23.5842 33.7938 23.5013 33.9311 23.4155 34.0683C23.3355 34.1999 23.2668 34.3028 23.2096 34.3772C23.2211 34.5487 23.2325 34.7203 23.2439 34.8919C23.2554 35.0578 23.2754 35.2293 23.304 35.4066C23.3326 35.624 23.3755 35.8356 23.4327 36.0415C23.4441 36.0929 23.4613 36.1501 23.4842 36.213C23.507 36.276 23.5356 36.3274 23.5699 36.3675C23.5757 36.3732 23.5871 36.376 23.6043 36.376C23.6157 36.3875 23.6214 36.3903 23.6214 36.3846C23.6271 36.3789 23.6329 36.376 23.6386 36.376C23.6786 36.3646 23.7129 36.3474 23.7415 36.3246C23.7701 36.296 23.7987 36.2674 23.8273 36.2388C23.9245 36.1416 24.0103 36.0386 24.0847 35.9299C24.159 35.8156 24.2334 35.7012 24.3077 35.5868C24.4221 35.3923 24.5336 35.195 24.6423 34.9948C24.751 34.7889 24.8511 34.5831 24.9426 34.3772H24.9597ZM22.163 35.5696C22.3289 35.398 22.4804 35.2179 22.6177 35.0292C22.7549 34.8347 22.8894 34.6374 23.0209 34.4372C23.0152 34.4086 23.0123 34.3686 23.0123 34.3171C22.8979 34.2027 22.7778 34.1026 22.652 34.0168C22.5891 33.9711 22.5262 33.9368 22.4633 33.9139C22.4061 33.891 22.3403 33.8739 22.266 33.8624C22.2088 33.851 22.1573 33.851 22.1115 33.8624C22.0658 33.8681 22.0172 33.8796 21.9657 33.8967C21.9085 33.9253 21.8627 33.9539 21.8284 33.9825C21.7941 34.0054 21.7541 34.0397 21.7083 34.0855C21.6225 34.1827 21.551 34.2857 21.4939 34.3943C21.4424 34.4973 21.3966 34.6116 21.3566 34.7375C21.3223 34.8862 21.2965 35.0263 21.2794 35.1578C21.2622 35.2837 21.2594 35.4209 21.2708 35.5696C21.2708 35.6097 21.2737 35.6468 21.2794 35.6812C21.2851 35.7097 21.2908 35.7441 21.2965 35.7841C21.308 35.807 21.3166 35.8299 21.3223 35.8527C21.3337 35.8756 21.3509 35.8985 21.3737 35.9214C21.3909 35.9442 21.4224 35.9643 21.4681 35.9814C21.5139 35.9871 21.5596 35.9871 21.6054 35.9814C21.7198 35.9414 21.8198 35.8842 21.9056 35.8098C21.9971 35.7298 22.0829 35.6497 22.163 35.5696ZM23.2096 33.6994C23.1982 33.8653 23.1982 34.0311 23.2096 34.197C23.2497 34.1227 23.2954 34.0397 23.3469 33.9482C23.4041 33.8567 23.4584 33.7681 23.5099 33.6823C23.5614 33.5965 23.6071 33.5136 23.6472 33.4335C23.6929 33.3534 23.7272 33.2876 23.7501 33.2362L23.8874 32.9788C23.956 32.8129 24.0218 32.6471 24.0847 32.4812C24.1533 32.3154 24.1991 32.1466 24.2219 31.9751C24.2334 31.9236 24.2391 31.8721 24.2391 31.8206C24.2391 31.7635 24.2248 31.712 24.1962 31.6662C24.1905 31.6376 24.1705 31.6119 24.1362 31.589C24.1076 31.5661 24.0704 31.5547 24.0246 31.5547C23.956 31.5375 23.8959 31.5404 23.8445 31.5633C23.8102 31.5747 23.7816 31.589 23.7587 31.6062C23.7358 31.6233 23.7101 31.6434 23.6815 31.6662C23.6186 31.7291 23.5671 31.8006 23.527 31.8807C23.4927 31.9551 23.4613 32.0351 23.4327 32.1209C23.3526 32.384 23.2954 32.6471 23.2611 32.9102C23.2325 33.1675 23.2153 33.4306 23.2096 33.6994Z" fill="#475D87"/>
<path d="M28.383 34.4286C28.3316 34.543 28.2829 34.6517 28.2372 34.7546C28.1914 34.8576 28.1457 34.9605 28.0999 35.0635C28.0542 35.1607 28.0056 35.2608 27.9541 35.3637C27.9083 35.461 27.8569 35.5639 27.7997 35.6726C27.731 35.787 27.6595 35.8956 27.5852 35.9986C27.5166 36.0958 27.4336 36.193 27.3364 36.2903C27.2621 36.376 27.182 36.4332 27.0962 36.4618C27.0504 36.4847 27.0076 36.499 26.9675 36.5047C26.9275 36.5104 26.8817 36.5104 26.8303 36.5047C26.8017 36.4933 26.7788 36.4847 26.7616 36.479C26.7445 36.4733 26.7273 36.459 26.7102 36.4361C26.6873 36.4247 26.6701 36.4104 26.6587 36.3932C26.653 36.376 26.6444 36.3589 26.6329 36.3417C26.6043 36.2845 26.5815 36.2302 26.5643 36.1787C26.5529 36.1273 26.5414 36.0729 26.53 36.0157C26.5186 35.867 26.5157 35.724 26.5214 35.5868C26.5329 35.4438 26.55 35.298 26.5729 35.1493C26.5843 35.0463 26.5986 34.9434 26.6158 34.8404C26.6329 34.7375 26.6501 34.6345 26.6673 34.5316C26.5586 34.7489 26.4499 34.9662 26.3413 35.1836C26.2326 35.4009 26.1153 35.6097 25.9895 35.8098C25.9209 35.9071 25.8494 36.0014 25.7751 36.0929C25.7064 36.1787 25.6235 36.2617 25.5263 36.3417C25.4634 36.3989 25.3861 36.439 25.2946 36.4618C25.2031 36.4847 25.1145 36.4847 25.0287 36.4618C24.9486 36.4332 24.88 36.4018 24.8228 36.3675C24.7656 36.3274 24.7084 36.2731 24.6512 36.2045C24.5997 36.1416 24.5597 36.0815 24.5311 36.0243C24.4968 35.9614 24.4711 35.8899 24.4539 35.8098C24.4139 35.644 24.4024 35.4896 24.4196 35.3466C24.4367 35.2036 24.4796 35.0549 24.5483 34.9005C24.5883 34.8204 24.6312 34.7518 24.677 34.6946C24.717 34.6317 24.7685 34.5688 24.8314 34.5058C24.8943 34.4429 24.9572 34.3886 25.0201 34.3428C25.0887 34.2971 25.1688 34.2599 25.2603 34.2313C25.3518 34.1913 25.4376 34.1684 25.5177 34.1627C25.6035 34.1512 25.695 34.1455 25.7922 34.1455C25.918 34.157 26.0267 34.177 26.1182 34.2056C26.2154 34.2285 26.3212 34.2656 26.4356 34.3171C26.4356 34.3228 26.4328 34.3314 26.427 34.3428C26.4213 34.3486 26.4185 34.3571 26.4185 34.3686C26.3041 34.3228 26.1983 34.2914 26.1011 34.2742C26.0095 34.2513 25.9066 34.2399 25.7922 34.2399C25.695 34.2399 25.6092 34.2485 25.5348 34.2656C25.4605 34.2771 25.3804 34.3028 25.2946 34.3428C25.2146 34.3714 25.1488 34.4058 25.0973 34.4458C25.0458 34.4858 24.9915 34.5373 24.9343 34.6002C24.8771 34.6574 24.8314 34.7146 24.7971 34.7718C24.7627 34.8233 24.7284 34.8862 24.6941 34.9605C24.5854 35.2236 24.5654 35.4896 24.6341 35.7584C24.6569 35.8213 24.6798 35.8785 24.7027 35.9299C24.7198 35.9814 24.7513 36.03 24.7971 36.0758C24.8828 36.173 24.9829 36.2359 25.0973 36.2645C25.1374 36.2817 25.186 36.2817 25.2432 36.2645C25.3061 36.2359 25.3604 36.2073 25.4062 36.1787C25.4862 36.1044 25.5549 36.0243 25.6121 35.9385C25.675 35.8527 25.7379 35.7669 25.8008 35.6812C25.9838 35.3952 26.1525 35.0978 26.3069 34.7889C26.4614 34.4744 26.6158 34.1655 26.7702 33.8624C26.7702 33.8338 26.7816 33.8167 26.8045 33.811C26.8217 33.7995 26.8446 33.7938 26.8732 33.7938C26.896 33.7938 26.916 33.7995 26.9332 33.811C26.9504 33.8167 26.9675 33.8338 26.9847 33.8624C26.9847 33.8681 26.9847 33.8739 26.9847 33.8796C26.9904 33.8853 26.9933 33.8939 26.9933 33.9053V33.9311C26.9933 33.9425 26.9904 33.9511 26.9847 33.9568C26.9847 33.9568 26.9847 33.9625 26.9847 33.974C26.9847 33.9854 26.9818 33.9997 26.9761 34.0168C26.9704 34.034 26.9675 34.0483 26.9675 34.0597C26.9561 34.1055 26.9446 34.1512 26.9332 34.197C26.9275 34.2428 26.9189 34.2914 26.9075 34.3428C26.8789 34.4801 26.8503 34.6174 26.8217 34.7546C26.7988 34.8919 26.7731 35.032 26.7445 35.175C26.7273 35.3123 26.7102 35.4495 26.693 35.5868C26.6816 35.7183 26.6816 35.8584 26.693 36.0071C26.7044 36.0529 26.713 36.0958 26.7187 36.1358C26.7245 36.1759 26.7359 36.2188 26.753 36.2645C26.7645 36.276 26.7731 36.2903 26.7788 36.3074C26.7845 36.3188 26.7931 36.3303 26.8045 36.3417C26.816 36.3474 26.8245 36.3532 26.8303 36.3589C26.836 36.3646 26.8446 36.3675 26.856 36.3675C26.896 36.3732 26.9303 36.376 26.9589 36.376C26.9875 36.3703 27.019 36.3617 27.0533 36.3503C27.1277 36.3217 27.1991 36.2731 27.2678 36.2045C27.3593 36.1244 27.4394 36.0357 27.508 35.9385C27.5823 35.8413 27.6538 35.7383 27.7225 35.6297C27.854 35.4181 27.9655 35.2179 28.057 35.0292C28.1485 34.8404 28.2515 34.6402 28.3659 34.4286H28.383Z" fill="#475D87"/>
<path d="M31.4824 34.3772C31.448 34.5201 31.3937 34.646 31.3194 34.7546C31.2507 34.8576 31.1678 34.9605 31.0706 35.0635C30.9447 35.1893 30.8189 35.3008 30.6931 35.398C30.5673 35.4953 30.4329 35.5925 30.2899 35.6897C30.2785 35.7012 30.2642 35.7126 30.247 35.724C30.2356 35.7298 30.2213 35.7383 30.2041 35.7498C30.1641 36.1273 30.1126 36.499 30.0497 36.865C29.9868 37.2311 29.9038 37.5885 29.8009 37.9374C29.7551 38.0518 29.7122 38.1576 29.6722 38.2548C29.6322 38.352 29.5721 38.4493 29.4921 38.5465C29.4291 38.6151 29.3691 38.6752 29.3119 38.7267C29.2547 38.7838 29.1832 38.8325 29.0974 38.8725C29.0231 38.9068 28.9544 38.9297 28.8915 38.9411C28.8286 38.9526 28.7571 38.9526 28.6771 38.9411C28.597 38.9297 28.5284 38.9097 28.4712 38.8811C28.414 38.8582 28.3568 38.821 28.2996 38.7695C28.2367 38.7124 28.1909 38.6552 28.1623 38.598C28.128 38.5465 28.0966 38.4836 28.068 38.4092C28.0222 38.2491 28.0108 38.0804 28.0336 37.9031C28.0451 37.7887 28.068 37.6858 28.1023 37.5942C28.1366 37.5085 28.1795 37.4169 28.231 37.3197C28.2996 37.1882 28.3711 37.0738 28.4454 36.9766C28.5255 36.8736 28.6142 36.7735 28.7114 36.6763C28.8715 36.5219 29.0688 36.3703 29.3033 36.2216C29.5378 36.0729 29.7637 35.9328 29.9811 35.8013C30.0096 35.5839 30.0297 35.3695 30.0411 35.1578C30.0583 34.9462 30.0726 34.7375 30.084 34.5316C29.9868 34.6917 29.8924 34.8576 29.8009 35.0292C29.7094 35.2007 29.6207 35.3609 29.535 35.5096C29.4549 35.624 29.3748 35.7355 29.2947 35.8441C29.2204 35.9528 29.1289 36.0558 29.0202 36.153C28.9344 36.2388 28.8429 36.296 28.7457 36.3246C28.7171 36.336 28.6914 36.3446 28.6685 36.3503C28.6456 36.3503 28.6199 36.3474 28.5913 36.3417C28.557 36.3417 28.5284 36.3389 28.5055 36.3331C28.4883 36.3217 28.4655 36.3074 28.4369 36.2903C28.3911 36.2617 28.3539 36.2359 28.3253 36.213C28.2967 36.1844 28.2681 36.153 28.2395 36.1187C28.2109 36.0786 28.1909 36.0415 28.1795 36.0071C28.1623 35.9671 28.1452 35.9242 28.128 35.8785C28.0823 35.6954 28.0708 35.5067 28.0937 35.3123C28.1109 35.0835 28.1509 34.8747 28.2138 34.686C28.2767 34.4915 28.3568 34.2942 28.454 34.0941C28.4998 34.0083 28.5455 33.9311 28.5913 33.8624C28.6427 33.7881 28.7028 33.7166 28.7714 33.648C28.8057 33.6194 28.8343 33.5936 28.8572 33.5707C28.8858 33.5479 28.9201 33.5278 28.9602 33.5107C28.9888 33.4878 29.0174 33.4735 29.046 33.4678C29.0746 33.4621 29.1089 33.4564 29.1489 33.4506C29.229 33.4506 29.2947 33.4649 29.3462 33.4935C29.4148 33.5278 29.472 33.5822 29.5178 33.6565C29.5807 33.7538 29.6293 33.8596 29.6636 33.974C29.698 34.0826 29.7237 34.197 29.7408 34.3171C29.7237 34.3171 29.7065 34.32 29.6894 34.3257C29.6665 34.2113 29.635 34.1026 29.595 33.9997C29.5607 33.891 29.5092 33.7909 29.4406 33.6994C29.4005 33.6422 29.3577 33.5993 29.3119 33.5707C29.2604 33.5479 29.209 33.5393 29.1575 33.545C29.1289 33.545 29.1031 33.5507 29.0803 33.5622C29.0631 33.5736 29.0402 33.585 29.0116 33.5965C28.9602 33.6251 28.9087 33.6651 28.8572 33.7166C28.7943 33.7852 28.74 33.8567 28.6942 33.9311C28.6542 33.9997 28.6113 34.074 28.5655 34.1541C28.474 34.3486 28.4025 34.5402 28.3511 34.7289C28.2996 34.9119 28.2681 35.1092 28.2567 35.3208C28.2453 35.4066 28.2424 35.4924 28.2481 35.5782C28.2538 35.6583 28.271 35.7412 28.2996 35.827C28.311 35.8556 28.3225 35.887 28.3339 35.9214C28.3511 35.9557 28.3682 35.9871 28.3854 36.0157C28.4083 36.0443 28.4283 36.0672 28.4454 36.0844C28.4683 36.1015 28.494 36.1158 28.5226 36.1273C28.5398 36.1444 28.5655 36.153 28.5999 36.153C28.617 36.1587 28.6313 36.1616 28.6427 36.1616C28.6599 36.1558 28.6742 36.153 28.6856 36.153C28.7314 36.1358 28.7714 36.1158 28.8057 36.0929C28.8401 36.0701 28.8715 36.0443 28.9001 36.0157C28.9916 35.9185 29.0717 35.8213 29.1403 35.724C29.2147 35.6211 29.2862 35.5124 29.3548 35.398C29.4177 35.2951 29.4806 35.1836 29.5435 35.0635C29.6064 34.9434 29.6694 34.8233 29.7323 34.7032C29.8009 34.5831 29.8667 34.4687 29.9296 34.36C29.9982 34.2456 30.064 34.1427 30.1269 34.0512C30.1383 34.0397 30.1469 34.0311 30.1526 34.0254C30.1641 34.0197 30.1755 34.0168 30.1869 34.0168C30.2098 34.0111 30.2298 34.0111 30.247 34.0168C30.2584 34.0283 30.267 34.034 30.2727 34.034C30.2842 34.034 30.2928 34.0397 30.2985 34.0512C30.3099 34.0683 30.3156 34.0912 30.3156 34.1198C30.3042 34.3714 30.2928 34.6259 30.2813 34.8833C30.2699 35.135 30.2499 35.3923 30.2213 35.6554L30.247 35.6297C30.3957 35.5324 30.533 35.4381 30.6588 35.3466C30.7846 35.2493 30.9133 35.1407 31.0448 35.0206C31.1421 34.9291 31.225 34.8347 31.2936 34.7375C31.368 34.6345 31.4252 34.5144 31.4652 34.3772H31.4824ZM29.6036 37.8773C29.6951 37.5571 29.7694 37.2339 29.8266 36.9079C29.8838 36.5762 29.9324 36.2416 29.9725 35.9042C29.7723 36.0357 29.5607 36.1759 29.3376 36.3246C29.1203 36.4675 28.9459 36.6134 28.8143 36.7621C28.7171 36.8593 28.6313 36.9565 28.557 37.0538C28.4826 37.1453 28.414 37.2539 28.3511 37.3798C28.3053 37.477 28.2681 37.5656 28.2395 37.6457C28.2109 37.7258 28.1909 37.8202 28.1795 37.9288C28.1623 38.0718 28.1795 38.2148 28.231 38.3578C28.2653 38.4664 28.3253 38.5637 28.4111 38.6494C28.4569 38.6838 28.5026 38.7095 28.5484 38.7267C28.5941 38.7438 28.6456 38.7581 28.7028 38.7695C28.8115 38.7753 28.9173 38.7553 29.0202 38.7095C29.0888 38.6695 29.146 38.6266 29.1918 38.5808C29.2375 38.5408 29.2833 38.4893 29.3291 38.4264C29.3977 38.3349 29.452 38.2434 29.4921 38.1519C29.5378 38.0661 29.575 37.9746 29.6036 37.8773Z" fill="#475D87"/>
<path d="M33.8085 34.3943C33.7113 34.6059 33.6112 34.8118 33.5082 35.012C33.4053 35.2065 33.2938 35.4009 33.1737 35.5954C33.105 35.7097 33.0364 35.8184 32.9678 35.9214C32.9049 36.0186 32.8305 36.1158 32.7447 36.213C32.7104 36.2531 32.6761 36.2931 32.6418 36.3331C32.6132 36.3675 32.576 36.3989 32.5303 36.4275C32.4731 36.479 32.4016 36.5076 32.3158 36.5133C32.2586 36.5133 32.2157 36.5104 32.1871 36.5047C32.1642 36.4933 32.1442 36.4847 32.1271 36.479C32.1156 36.4733 32.1013 36.4647 32.0842 36.4533C32.0212 36.3903 31.9783 36.3188 31.9555 36.2388C31.9326 36.1416 31.9212 36.0443 31.9212 35.9471C31.9212 35.8441 31.9269 35.7441 31.9383 35.6468C31.944 35.5382 31.9526 35.4324 31.9641 35.3294C31.9812 35.2265 31.9955 35.1207 32.0069 35.012C32.0241 34.9262 32.0327 34.8433 32.0327 34.7632C32.0327 34.7575 32.0327 34.7403 32.0327 34.7117C32.0327 34.6831 32.0298 34.6631 32.0241 34.6517C32.0241 34.646 32.0212 34.6431 32.0155 34.6431C32.0098 34.6431 32.0069 34.6374 32.0069 34.6259C32.0012 34.6202 31.9898 34.6174 31.9726 34.6174C31.9326 34.6059 31.8926 34.6088 31.8525 34.6259C31.8125 34.6431 31.7725 34.6574 31.7324 34.6688C31.6981 34.6803 31.6609 34.6917 31.6209 34.7032C31.5866 34.7089 31.5465 34.7117 31.5008 34.7117C31.455 34.7232 31.415 34.726 31.3807 34.7203C31.3521 34.7146 31.3178 34.7089 31.2777 34.7032C31.2091 34.6746 31.1548 34.6402 31.1147 34.6002C31.0861 34.5773 31.0633 34.5545 31.0461 34.5316C31.029 34.5087 31.0118 34.483 30.9946 34.4544C30.9432 34.3285 30.9174 34.2056 30.9174 34.0855C30.9231 33.9539 30.9517 33.8281 31.0032 33.708C31.049 33.5822 31.1233 33.4678 31.2263 33.3649C31.2549 33.342 31.2806 33.322 31.3035 33.3048C31.3321 33.2876 31.3635 33.2733 31.3978 33.2619C31.4608 33.239 31.5294 33.2276 31.6037 33.2276C31.6495 33.2276 31.6867 33.2304 31.7153 33.2362C31.7496 33.2648 31.781 33.2848 31.8096 33.2962C31.8382 33.3305 31.8582 33.362 31.8697 33.3906C31.8868 33.4135 31.9011 33.4449 31.9126 33.485C31.9297 33.565 31.9326 33.6422 31.9212 33.7166C31.9154 33.7852 31.8983 33.8567 31.8697 33.9311C31.8468 34.0168 31.8154 34.0941 31.7753 34.1627C31.741 34.2313 31.6952 34.2999 31.6381 34.3686C31.5866 34.4201 31.5322 34.4658 31.4751 34.5058C31.5151 34.4944 31.5494 34.4858 31.578 34.4801C31.6066 34.4744 31.6352 34.4658 31.6638 34.4544C31.7267 34.4372 31.7839 34.4229 31.8354 34.4115C31.8868 34.3943 31.944 34.3915 32.0069 34.4029C32.0527 34.4029 32.0985 34.4201 32.1442 34.4544C32.1671 34.4715 32.1842 34.4915 32.1957 34.5144C32.2071 34.5316 32.2186 34.5516 32.23 34.5745C32.2529 34.6317 32.2586 34.7003 32.2472 34.7804C32.2472 34.8261 32.2443 34.869 32.2386 34.909C32.2329 34.9491 32.2271 34.992 32.2214 35.0377C32.21 35.1464 32.1957 35.2522 32.1785 35.3552C32.1614 35.4581 32.1471 35.5639 32.1356 35.6726C32.1242 35.7584 32.1156 35.847 32.1099 35.9385C32.1042 36.03 32.1128 36.1187 32.1356 36.2045C32.1471 36.2502 32.1671 36.2874 32.1957 36.316C32.2128 36.3331 32.2243 36.3417 32.23 36.3417C32.2472 36.3474 32.2729 36.3503 32.3072 36.3503C32.3587 36.3446 32.4044 36.3246 32.4445 36.2903C32.4845 36.2617 32.5188 36.2331 32.5474 36.2045C32.5817 36.1759 32.6132 36.1473 32.6418 36.1187C32.7276 36.0272 32.8048 35.9328 32.8734 35.8356C32.9478 35.7383 33.0193 35.6411 33.0879 35.5439C33.2194 35.3494 33.3395 35.1607 33.4482 34.9777C33.5569 34.7889 33.6684 34.5945 33.7828 34.3943H33.8085ZM31.3378 34.4887C31.3549 34.483 31.3692 34.4772 31.3807 34.4715C31.3978 34.4658 31.4179 34.4572 31.4407 34.4458C31.4865 34.4058 31.5322 34.36 31.578 34.3085C31.6581 34.1941 31.7181 34.0597 31.7582 33.9053C31.7696 33.8424 31.7782 33.7795 31.7839 33.7166C31.7896 33.648 31.7868 33.5822 31.7753 33.5193C31.7639 33.5021 31.7524 33.485 31.741 33.4678C31.7296 33.4506 31.7153 33.4363 31.6981 33.4249C31.6867 33.4077 31.6752 33.3992 31.6638 33.3992C31.6466 33.3934 31.6266 33.3906 31.6037 33.3906C31.5523 33.3906 31.5065 33.402 31.4665 33.4249C31.4264 33.4306 31.3893 33.4564 31.3549 33.5021C31.3092 33.5479 31.2749 33.5936 31.252 33.6394C31.2291 33.6794 31.2034 33.7223 31.1748 33.7681C31.1576 33.8253 31.1462 33.8796 31.1405 33.9311C31.1348 33.9825 31.1319 34.0369 31.1319 34.0941C31.1319 34.1455 31.1348 34.1913 31.1405 34.2313C31.1462 34.2656 31.1634 34.3057 31.192 34.3514C31.1977 34.38 31.2177 34.4115 31.252 34.4458C31.2863 34.4687 31.3149 34.483 31.3378 34.4887Z" fill="#475D87"/>
<path d="M37.23 34.4286C37.1785 34.543 37.1299 34.6517 37.0842 34.7546C37.0384 34.8576 36.9927 34.9605 36.9469 35.0635C36.9012 35.1607 36.8525 35.2608 36.8011 35.3637C36.7553 35.461 36.7038 35.5639 36.6466 35.6726C36.578 35.787 36.5065 35.8956 36.4322 35.9986C36.3635 36.0958 36.2806 36.193 36.1834 36.2903C36.109 36.376 36.029 36.4332 35.9432 36.4618C35.8974 36.4847 35.8545 36.499 35.8145 36.5047C35.7745 36.5104 35.7287 36.5104 35.6772 36.5047C35.6486 36.4933 35.6258 36.4847 35.6086 36.479C35.5914 36.4733 35.5743 36.459 35.5571 36.4361C35.5343 36.4247 35.5171 36.4104 35.5057 36.3932C35.4999 36.376 35.4914 36.3589 35.4799 36.3417C35.4513 36.2845 35.4284 36.2302 35.4113 36.1787C35.3999 36.1273 35.3884 36.0729 35.377 36.0157C35.3655 35.867 35.3627 35.724 35.3684 35.5868C35.3798 35.4438 35.397 35.298 35.4199 35.1493C35.4313 35.0463 35.4456 34.9434 35.4628 34.8404C35.4799 34.7375 35.4971 34.6345 35.5142 34.5316C35.4056 34.7489 35.2969 34.9662 35.1882 35.1836C35.0796 35.4009 34.9623 35.6097 34.8365 35.8098C34.7679 35.9071 34.6964 36.0014 34.622 36.0929C34.5534 36.1787 34.4705 36.2617 34.3732 36.3417C34.3103 36.3989 34.2331 36.439 34.1416 36.4618C34.0501 36.4847 33.9615 36.4847 33.8757 36.4618C33.7956 36.4332 33.727 36.4018 33.6698 36.3675C33.6126 36.3274 33.5554 36.2731 33.4982 36.2045C33.4467 36.1416 33.4067 36.0815 33.3781 36.0243C33.3438 35.9614 33.318 35.8899 33.3009 35.8098C33.2608 35.644 33.2494 35.4896 33.2666 35.3466C33.2837 35.2036 33.3266 35.0549 33.3952 34.9005C33.4353 34.8204 33.4782 34.7518 33.5239 34.6946C33.564 34.6317 33.6154 34.5688 33.6784 34.5058C33.7413 34.4429 33.8042 34.3886 33.8671 34.3428C33.9357 34.2971 34.0158 34.2599 34.1073 34.2313C34.1988 34.1913 34.2846 34.1684 34.3647 34.1627C34.4505 34.1512 34.542 34.1455 34.6392 34.1455C34.765 34.157 34.8737 34.177 34.9652 34.2056C35.0624 34.2285 35.1682 34.2656 35.2826 34.3171C35.2826 34.3228 35.2797 34.3314 35.274 34.3428C35.2683 34.3486 35.2654 34.3571 35.2654 34.3686C35.1511 34.3228 35.0453 34.2914 34.948 34.2742C34.8565 34.2513 34.7536 34.2399 34.6392 34.2399C34.542 34.2399 34.4562 34.2485 34.3818 34.2656C34.3075 34.2771 34.2274 34.3028 34.1416 34.3428C34.0615 34.3714 33.9958 34.4058 33.9443 34.4458C33.8928 34.4858 33.8385 34.5373 33.7813 34.6002C33.7241 34.6574 33.6784 34.7146 33.644 34.7718C33.6097 34.8233 33.5754 34.8862 33.5411 34.9605C33.4324 35.2236 33.4124 35.4896 33.481 35.7584C33.5039 35.8213 33.5268 35.8785 33.5497 35.9299C33.5668 35.9814 33.5983 36.03 33.644 36.0758C33.7298 36.173 33.8299 36.2359 33.9443 36.2645C33.9843 36.2817 34.0329 36.2817 34.0901 36.2645C34.1531 36.2359 34.2074 36.2073 34.2531 36.1787C34.3332 36.1044 34.4018 36.0243 34.459 35.9385C34.5219 35.8527 34.5849 35.7669 34.6478 35.6812C34.8308 35.3952 34.9995 35.0978 35.1539 34.7889C35.3083 34.4744 35.4628 34.1655 35.6172 33.8624C35.6172 33.8338 35.6286 33.8167 35.6515 33.811C35.6687 33.7995 35.6915 33.7938 35.7201 33.7938C35.743 33.7938 35.763 33.7995 35.7802 33.811C35.7973 33.8167 35.8145 33.8338 35.8317 33.8624C35.8317 33.8681 35.8317 33.8739 35.8317 33.8796C35.8374 33.8853 35.8402 33.8939 35.8402 33.9053V33.9311C35.8402 33.9425 35.8374 33.9511 35.8317 33.9568C35.8317 33.9568 35.8317 33.9625 35.8317 33.974C35.8317 33.9854 35.8288 33.9997 35.8231 34.0168C35.8174 34.034 35.8145 34.0483 35.8145 34.0597C35.8031 34.1055 35.7916 34.1512 35.7802 34.197C35.7745 34.2428 35.7659 34.2914 35.7544 34.3428C35.7258 34.4801 35.6973 34.6174 35.6687 34.7546C35.6458 34.8919 35.62 35.032 35.5914 35.175C35.5743 35.3123 35.5571 35.4495 35.54 35.5868C35.5285 35.7183 35.5285 35.8584 35.54 36.0071C35.5514 36.0529 35.56 36.0958 35.5657 36.1358C35.5714 36.1759 35.5829 36.2188 35.6 36.2645C35.6115 36.276 35.62 36.2903 35.6258 36.3074C35.6315 36.3188 35.6401 36.3303 35.6515 36.3417C35.6629 36.3474 35.6715 36.3532 35.6772 36.3589C35.683 36.3646 35.6915 36.3675 35.703 36.3675C35.743 36.3732 35.7773 36.376 35.8059 36.376C35.8345 36.3703 35.866 36.3617 35.9003 36.3503C35.9746 36.3217 36.0461 36.2731 36.1148 36.2045C36.2063 36.1244 36.2863 36.0357 36.355 35.9385C36.4293 35.8413 36.5008 35.7383 36.5694 35.6297C36.701 35.4181 36.8125 35.2179 36.904 35.0292C36.9955 34.8404 37.0985 34.6402 37.2129 34.4286H37.23Z" fill="#475D87"/>
<path d="M41.4771 34.3857C41.3856 34.6145 41.2941 34.8404 41.2026 35.0635C41.1111 35.2808 41.0081 35.4953 40.8937 35.7069C40.8308 35.8327 40.7651 35.9528 40.6964 36.0672C40.6335 36.1759 40.5592 36.2874 40.4734 36.4018C40.4391 36.4361 40.4047 36.4733 40.3704 36.5133C40.3418 36.5476 40.3047 36.5791 40.2589 36.6077C40.2417 36.6191 40.2246 36.6305 40.2074 36.642C40.196 36.6477 40.176 36.6534 40.1474 36.6591C40.1245 36.6706 40.0902 36.6763 40.0444 36.6763C40.0215 36.6649 39.9987 36.6563 39.9758 36.6506C39.9586 36.6448 39.9415 36.6305 39.9243 36.6077C39.8957 36.5791 39.87 36.5333 39.8471 36.4704C39.8128 36.3503 39.7956 36.2245 39.7956 36.0929C39.7899 35.9099 39.7956 35.7298 39.8128 35.5525C39.8357 35.3752 39.8557 35.195 39.8728 35.012C39.8843 34.8747 39.8986 34.7232 39.9157 34.5573C39.9329 34.3857 39.9329 34.2313 39.9157 34.0941C39.9157 34.0712 39.9129 34.0512 39.9072 34.034C39.9014 34.0168 39.8957 34.0025 39.89 33.9911C39.8786 33.9854 39.8728 33.9768 39.8728 33.9654C39.8671 33.9654 39.8643 33.9625 39.8643 33.9568H39.8471C39.8414 33.9568 39.8385 33.9597 39.8385 33.9654C39.8385 33.9654 39.8328 33.9654 39.8214 33.9654C39.8042 33.9768 39.7871 33.9882 39.7699 33.9997C39.7527 34.0111 39.7327 34.0226 39.7098 34.034C39.5669 34.1541 39.4439 34.3057 39.341 34.4887C39.238 34.6717 39.1465 34.8461 39.0664 35.012C39.0264 35.0978 38.9892 35.1836 38.9549 35.2694C38.9206 35.3552 38.8806 35.4438 38.8348 35.5353C38.8234 35.5639 38.8091 35.5954 38.7919 35.6297C38.7805 35.6583 38.7662 35.6869 38.749 35.7155C38.7261 35.7612 38.6947 35.8041 38.6546 35.8441C38.6146 35.8727 38.5832 35.887 38.5603 35.887H38.5002C38.4773 35.887 38.4545 35.8813 38.4316 35.8699C38.4144 35.8584 38.4001 35.847 38.3887 35.8356C38.383 35.8184 38.3744 35.8041 38.363 35.7927C38.3515 35.7812 38.3429 35.7698 38.3372 35.7584C38.3372 35.7412 38.3315 35.724 38.3201 35.7069C38.3029 35.6383 38.2915 35.5668 38.2858 35.4924C38.28 35.4181 38.2715 35.3494 38.26 35.2865C38.2543 35.2065 38.2486 35.1321 38.2429 35.0635C38.2429 34.9891 38.2371 34.9148 38.2257 34.8404C38.2257 34.8233 38.2228 34.8061 38.2171 34.7889C38.2171 34.7718 38.2171 34.7575 38.2171 34.7461C38.2 34.7632 38.1828 34.7804 38.1656 34.7975C38.1485 34.8147 38.1313 34.8347 38.1142 34.8576C38.0627 34.9148 38.0141 34.9748 37.9683 35.0377C37.9283 35.1006 37.8854 35.1664 37.8397 35.235C37.7767 35.3266 37.7052 35.4409 37.6252 35.5782C37.5508 35.7155 37.4822 35.8241 37.4193 35.9042C37.385 35.9385 37.3564 35.9643 37.3335 35.9814C37.3221 35.9814 37.3078 35.9843 37.2906 35.99C37.2792 35.99 37.2677 35.9871 37.2563 35.9814C37.2448 35.9814 37.2334 35.9786 37.222 35.9728C37.2163 35.9671 37.2077 35.9614 37.1962 35.9557C37.1619 35.9214 37.1419 35.8928 37.1362 35.8699C37.119 35.847 37.1104 35.8156 37.1104 35.7755C37.099 35.684 37.0933 35.5896 37.0933 35.4924C37.0933 35.3895 37.099 35.2894 37.1104 35.1922C37.1104 35.1178 37.1162 35.0292 37.1276 34.9262C37.1333 34.8175 37.1448 34.7117 37.1619 34.6088C37.1791 34.5001 37.1962 34.3972 37.2134 34.2999C37.2363 34.197 37.262 34.1112 37.2906 34.0426C37.302 34.0426 37.3106 34.0454 37.3163 34.0512C37.3278 34.0512 37.3364 34.0512 37.3421 34.0512C37.3192 34.1312 37.2992 34.2227 37.282 34.3257C37.2706 34.4229 37.2591 34.523 37.2477 34.6259C37.242 34.7289 37.2363 34.8318 37.2306 34.9348C37.2248 35.0377 37.222 35.1292 37.222 35.2093C37.222 35.2894 37.222 35.378 37.222 35.4753C37.2277 35.5725 37.2363 35.6611 37.2477 35.7412C37.2534 35.7526 37.2563 35.7669 37.2563 35.7841C37.2563 35.7955 37.2591 35.807 37.2649 35.8184L37.2734 35.827C37.2849 35.827 37.2906 35.8184 37.2906 35.8013C37.3592 35.704 37.425 35.5954 37.4879 35.4753C37.5565 35.3552 37.6252 35.2408 37.6938 35.1321C37.7396 35.0635 37.7825 34.9948 37.8225 34.9262C37.8682 34.8576 37.914 34.7918 37.9598 34.7289C37.9883 34.7003 38.0112 34.6746 38.0284 34.6517C38.0513 34.6288 38.0741 34.6088 38.097 34.5916C38.1599 34.5402 38.2143 34.5144 38.26 34.5144C38.2715 34.503 38.2772 34.5001 38.2772 34.5058C38.2829 34.5116 38.2915 34.5144 38.3029 34.5144C38.3086 34.5144 38.3201 34.523 38.3372 34.5402C38.3429 34.5459 38.3487 34.5516 38.3544 34.5573C38.3601 34.5573 38.3658 34.563 38.3715 34.5745C38.3773 34.5802 38.3858 34.6002 38.3973 34.6345C38.4144 34.6974 38.4259 34.7575 38.4316 34.8147C38.443 34.889 38.4488 34.9634 38.4488 35.0377C38.4545 35.1064 38.4631 35.1807 38.4745 35.2608C38.4802 35.3237 38.4859 35.3895 38.4916 35.4581C38.5031 35.5267 38.5174 35.5896 38.5345 35.6468C38.5517 35.6297 38.5603 35.6211 38.5603 35.6211C38.5832 35.5525 38.6089 35.4924 38.6375 35.4409C38.6718 35.3552 38.709 35.2665 38.749 35.175C38.789 35.0835 38.8291 34.9948 38.8691 34.909C38.9663 34.726 39.0693 34.5402 39.178 34.3514C39.2866 34.157 39.4239 33.9911 39.5897 33.8538C39.6527 33.8138 39.7098 33.7852 39.7613 33.7681C39.7842 33.7623 39.8185 33.7595 39.8643 33.7595C39.8986 33.7595 39.9272 33.7623 39.9501 33.7681C39.9672 33.7795 39.9815 33.7909 39.993 33.8024C40.0044 33.8081 40.0158 33.8167 40.0273 33.8281C40.0387 33.8395 40.0473 33.851 40.053 33.8624C40.0587 33.8739 40.0644 33.8882 40.0702 33.9053C40.0988 33.9625 40.1131 34.0168 40.1131 34.0683C40.1302 34.217 40.1302 34.3772 40.1131 34.5487C40.0959 34.7146 40.0787 34.8719 40.0616 35.0206C40.033 35.2036 40.0072 35.3837 39.9844 35.561C39.9672 35.7326 39.9558 35.9099 39.9501 36.0929C39.9501 36.1501 39.9501 36.2073 39.9501 36.2645C39.9558 36.3217 39.9672 36.3789 39.9844 36.4361C39.9958 36.4475 40.0015 36.4618 40.0015 36.479C40.0073 36.4904 40.0158 36.5019 40.0273 36.5133C40.0444 36.5305 40.0587 36.539 40.0702 36.539C40.0816 36.5448 40.0902 36.5476 40.0959 36.5476C40.1016 36.5419 40.1102 36.539 40.1216 36.539C40.1331 36.5276 40.1445 36.5219 40.156 36.5219C40.1731 36.5162 40.1874 36.5076 40.1988 36.4961C40.2332 36.4733 40.2646 36.4475 40.2932 36.4189C40.3218 36.3846 40.3504 36.3532 40.379 36.3246C40.4705 36.2273 40.5506 36.1244 40.6192 36.0157C40.6878 35.9013 40.7536 35.7841 40.8165 35.664C40.9423 35.4467 41.0539 35.235 41.1511 35.0292C41.254 34.8175 41.357 34.6002 41.4599 34.3772L41.4771 34.3857ZM37.282 35.8441C37.282 35.8327 37.2792 35.827 37.2734 35.827L37.282 35.8441Z" fill="#475D87"/>
</svg>
