<svg width="138.81" height="40" viewBox="0 0 174 50" fill="none" xmlns="http://www.w3.org/2000/svg"> <g clip-path="url(#clip0_582_2)"> <path d="M114.232 49.5392V0.438477H121.457V49.5392H114.232Z" fill="black"></path> <path d="M53.0757 49.5392V0.438477H60.301V49.5392H53.0757Z" fill="black"></path> <path d="M165.358 49.5392L159.826 34.821H139.658L133.851 49.5392H128.318L148.54 0.438477H153.316L173.517 49.5392H165.358ZM149.94 8.75889L141.747 30.0764H158.018L149.94 8.75889Z" fill="black"></path> <path d="M78.6961 44.9144H106.28V49.5349H67.3657L95.7013 5.13809H69.2884V0.517578H107.371L78.6961 44.9125V44.9144Z" fill="black"></path> <path d="M22.1548 24.3471L19.924 29.049L36.4195 29.1285L36.5784 41.4802C32.7971 45.6162 27.758 46.2384 22.8642 45.655C18.9646 45.1898 7.73122 41.9221 7.73122 25.3821C7.73122 14.1021 13.5631 5.90578 21.5424 4.67506C26.9808 3.83585 37.3362 5.50071 40.6621 10.5495H41.9703V4.20022C34.9659 0.438297 30.4578 -0.232298 23.2382 0.0622988C11.4137 0.544894 0 11.0263 0 25.3491C0 39.672 10.8729 49.5371 22.7556 49.9751C36.6501 50.4868 43.798 43.2168 43.798 43.2168V24.2677L22.1568 24.3471H22.1548Z" fill="black"></path> </g> <defs> <clipPath id="clip0_582_2"> <rect width="173.517" height="50" fill="white"></rect> </clipPath> </defs> </svg>