<svg width="250" height="34" viewBox="0 0 250 34" fill="none" xmlns="http://www.w3.org/2000/svg">
<g clip-path="url(#clip0_1201_3394)">
<path fill-rule="evenodd" clip-rule="evenodd" d="M33.3338 24.42C33.3338 29.7254 28.1534 34.045 21.794 34.045H0V1.95978H19.2315C25.5895 1.95978 30.7699 6.28081 30.7699 11.5848C30.7699 13.5109 30.1023 15.3064 28.9233 16.8476C31.5895 18.6018 33.3338 21.339 33.3338 24.42ZM21.794 27.6288C23.8977 27.6288 25.642 26.1743 25.642 24.42C25.642 22.6658 23.8977 21.2112 21.794 21.2112H7.64205V27.6288H21.794ZM19.2315 14.7936C21.3338 14.7936 23.0767 13.339 23.0767 11.5848C23.0767 9.83194 21.3324 8.3774 19.2315 8.3774H7.69176V14.7936H19.2315ZM60.4205 34.045C50.0696 34.045 41.6705 26.4072 41.6705 16.9996C41.6705 7.59189 50.0696 -0.0458984 60.4205 -0.0458984C70.7699 -0.0458984 79.1705 7.59189 79.1705 16.9996C79.1705 26.4072 70.7699 34.045 60.4205 34.045ZM49.1705 16.9996C49.1705 22.6359 54.2202 27.2268 60.4205 27.2268C66.6207 27.2268 71.6705 22.6359 71.6705 16.9996C71.6705 11.3632 66.6207 6.77228 60.4205 6.77228C54.2202 6.77228 49.1705 11.3632 49.1705 16.9996ZM83.3295 1.95978H92.1449L102.055 15.5635L112.016 1.95978H120.83L105.79 22.5365V34.045H98.3196V22.5365L83.3295 1.95978ZM131.247 1.95978H133.298L156.889 20.6984V1.95978H164.581V34.045H162.479L138.942 15.3092V34.045H131.247V1.95978ZM179.166 1.95978H208.332V8.3774H187.121V15.2865H203.03V21.7041H187.121V27.6274H208.332V34.045H179.166V1.95978ZM250.003 34.045H240.97L234.359 25.4896H228.406V34.045H220.837V1.95978H234.713C242.384 1.95978 248.589 7.22115 248.589 13.724C248.589 17.9598 245.966 21.6388 242.03 23.7354L250.003 34.045ZM234.713 19.0734C238.195 19.0734 241.02 16.6757 241.02 13.724C241.02 10.7723 238.195 8.3774 234.713 8.3774H228.406V19.0734H234.713Z" fill="#EE403D"/>
</g>
<defs>
<clipPath id="clip0_1201_3394">
<rect width="250" height="34" fill="white"/>
</clipPath>
</defs>
</svg>
