<svg width="245" height="34" viewBox="0 0 245 34" fill="none" xmlns="http://www.w3.org/2000/svg">
<g clip-path="url(#clip0_1202_3396)">
<path d="M5.5002 13.5004H13.7002V17.8004H5.5002V27.9004H15.8002V32.5004H0.200195V0.400391H15.8002V5.00039H5.5002V13.5004Z" fill="#02108E"/>
<path d="M32.8001 32.5004L25.4001 9.30039V32.5004H20.1001V0.400391H27.0001L33.4001 21.4004V0.400391H38.8001V32.5004H32.8001Z" fill="#02108E"/>
<path d="M63.4001 14.9004V32.5004H59.4001L59.0001 29.6004C58.1001 31.4004 56.4001 32.8004 53.4001 32.8004C42.6001 32.8004 42.8001 19.0004 42.8001 15.7004C42.8001 8.70039 44.5001 -0.0996094 53.7001 -0.0996094C60.2001 -0.0996094 63.3001 3.30039 63.4001 9.00039L57.5001 10.2004C58.1001 7.70039 57.1001 4.40039 53.5001 4.30039C49.6001 4.30039 48.8001 10.6004 48.8001 15.9004C48.8001 20.6004 49.2001 28.3004 53.4001 28.4004C57.4001 28.4004 58.2001 22.1004 58.2001 19.0004H54.0001V14.8004H63.4001V14.9004Z" fill="#02108E"/>
<path d="M67.3003 0.400391H72.6003V27.9004H82.5003V32.5004H67.3003V0.400391Z" fill="#02108E"/>
<path d="M86.4004 32.5004V0.400391H91.8004V32.5004H86.4004Z" fill="#02108E"/>
<path d="M105.7 4.4C102.4 4.4 101.8 7.4 101.8 8C101.8 11.1 103.6 12.4 106.9 14.3C110.5 16.4 114.9 19.7 114.9 25C114.9 29.1 111.3 32.9 105.2 32.9C98.8 32.9 95.8 28.4 95.5 22.9L101.4 21.3C100.7 24.5 102.5 28.1 105.2 28.1C108.6 28.1 109.1 25.5 109.1 24.9C109.1 22.2 107.3 20.5 104 18.6C100.4 16.5 96 13.2 96 7.9C96 3.8 99.6 0 105.3 0C111.8 0 114.9 3.7 115 9.4L109.1 10.6C109.8 8 108.9 4.4 105.7 4.4Z" fill="#02108E"/>
<path d="M133.7 32.5004V17.7004H124.3V32.4004H118.9V0.400391H124.3V13.4004H133.7V0.400391H139.1V32.5004H133.7Z" fill="#02108E"/>
<path d="M166.1 32.5004V17.7004H156.7V32.4004H151.3V0.400391H156.7V13.4004H166.1V0.400391H171.5V32.5004H166.1Z" fill="#02108E"/>
<path d="M186.2 32.9C175.4 32.9 175.4 19.1 175.4 15.8C175.4 9 177.3 0 186.2 0C196.2 0 197 10.7 197 15.8C197.1 22.8 195.7 32.9 186.2 32.9ZM191.3 16C191.3 10.7 190 4.7 186.3 4.6C182.5 4.7 181.6 10.7 181.6 16C181.6 20.7 182.1 28.3 186.3 28.3C190.4 28.2 191.3 20.7 191.3 16Z" fill="#02108E"/>
<path d="M218.8 32.5004V10.1004L214.7 27.7004H210.4L206.4 10.1004V32.5004H201V0.400391H208L212.6 19.7004L217.2 0.400391H224.2V32.5004H218.8Z" fill="#02108E"/>
<path d="M234.2 13.5004H242.4V17.8004H234.2V27.9004H244.5V32.5004H229V0.400391H244.6V5.00039H234.3V13.5004H234.2Z" fill="#02108E"/>
</g>
<defs>
<clipPath id="clip0_1202_3396">
<rect width="244.5" height="33.2" fill="white"/>
</clipPath>
</defs>
</svg>
