<svg width="370" height="244" viewBox="0 0 370 244" fill="none" xmlns="http://www.w3.org/2000/svg">
<g clip-path="url(#clip0_1199_3392)">
<path d="M259.895 7.41327C273.319 0.795268 279.982 1.67627 280.127 8.35927C280.317 17.0593 279.029 28.5893 278.111 36.9633C273.128 82.3863 264.791 119.506 264.157 166.153C286.097 109.351 304.502 69.8753 328.187 21.2443C335.717 5.77427 340.512 8.65127 346.69 5.90127C370.772 -4.81373 371.674 1.76827 368.527 14.8513C356.841 63.4033 326.987 216.227 322.413 239.758C321.085 246.565 313.698 243.681 311.769 241.018C303.199 229.168 293.544 228.982 294.629 221.099C299.999 181.866 319.339 83.4333 324.379 60.2363C298.66 112.932 272.009 178.802 258.326 216.15C255.419 224.081 250.138 223.5 246.846 217.696C242.216 209.546 233.236 205.384 231.753 195.753C227.051 165.125 237.123 106.75 238.526 69.8173C224.532 110.159 201.036 188.487 190.744 223.874C186.488 238.517 172.362 236.127 176.117 221.856C191.759 162.467 225.443 57.4313 240.032 19.6583C243.459 10.7843 252.438 11.0893 259.895 7.41327ZM174.6 0.115268C178.86 1.14027 178.513 6.16527 175.91 13.0273C168.228 33.2743 157.575 59.8743 145.394 91.2393C153.052 90.3653 157.205 90.0693 157.205 90.0693C168.199 88.7113 170.246 94.2083 167.151 100.059C164.685 104.723 161.715 101.613 151.427 116.949C145.631 125.591 136.168 127.873 130.912 129.025C118.25 162.548 104.682 199.941 91.4969 239.795C89.5779 245.599 83.9729 244.327 82.2879 241.969C76.0959 233.322 71.53 233.036 66.7299 226.042C66.1529 224.91 65.0239 223.37 65.7029 220.594C69.2329 206.169 78.6039 176.527 92.8589 137.503C74.9009 141.395 55.472 145.579 47.451 147.443C37.825 172.888 28.4369 198.41 19.5429 223.623C14.0249 239.263 -0.337049 236.24 4.70295 221.458C12.731 197.91 21.593 173.454 30.479 149.738C20.531 148.675 17.166 141.65 11.606 135.78C9.45895 133.513 4.77795 133.832 2.48595 130.653C-1.63705 124.942 -1.22605 122.405 8.29595 119.657C20.715 116.071 33.2056 112.738 45.7599 109.659C61.8499 68.1353 76.3899 32.5153 84.1399 13.5083C90.1139 -1.13773 105.514 0.226268 99.6639 14.6743C87.7749 44.0373 75.585 74.5413 63.554 105.473C78.3909 102.131 93.3119 99.1732 108.302 96.6033C119.291 68.39 130.833 40.3953 142.922 12.6353C143.767 10.6983 146.232 7.95727 148.8 7.51727C156.892 6.13227 170.051 -0.980732 174.6 0.115268ZM147.048 190.192C148.313 189.419 149.572 188.477 150.815 187.442C149.858 184.625 148.918 181.802 147.995 178.974C147.058 180.172 146.14 181.385 145.243 182.612C139.857 190.008 143.046 192.64 147.048 190.192ZM154.215 155.127C160.885 147.597 147.699 144.446 150.735 155.963C150.905 156.613 151.117 157.376 151.355 158.217C152.33 157.208 153.284 156.178 154.215 155.127ZM161.156 177.822C167.758 172.101 174.064 177.776 167.536 187.45C166.132 189.53 164.546 191.768 162.807 193.972C163.491 195.943 164.206 197.902 164.953 199.849C168.328 208.503 159.465 210.673 156.608 203.505C156.358 202.879 156.098 202.208 155.83 201.51C150.443 206.282 144.212 209.287 137.555 207.217C126.601 203.81 123.815 188.387 134.041 176.506C138.144 171.739 141.232 168.432 143.812 165.79C143.179 163.741 142.573 161.685 141.993 159.62C140.665 154.81 139.466 149.204 144.28 143.49C153.307 132.778 174.251 142.287 163.657 158.779C161.105 162.751 158.122 166.503 155.01 170.306C156.078 173.706 157.165 177.099 158.27 180.486C159.21 179.574 160.172 178.686 161.156 177.822Z" fill="#E50111"/>
</g>
<defs>
<clipPath id="clip0_1199_3392">
<rect width="370" height="244" fill="white"/>
</clipPath>
</defs>
</svg>
