<svg width="22" height="22" viewBox="0 0 22 22" fill="none" xmlns="http://www.w3.org/2000/svg">
<path d="M9.64534 0.556227C9.38284 0.696852 9.36409 0.776539 9.27034 1.96716C9.22346 2.58123 9.16721 3.10154 9.14377 3.12029C9.12034 3.13904 8.93284 3.20466 8.72659 3.26091C8.24377 3.39685 7.45627 3.72966 7.04846 3.96873L6.72971 4.15154L5.90002 3.44373C5.45002 3.05466 5.00471 2.70779 4.91565 2.67029C4.63909 2.5531 4.52659 2.63279 3.56096 3.60779C2.63284 4.5406 2.55315 4.65779 2.65159 4.91091C2.67502 4.97185 3.0219 5.40779 3.42502 5.87654L4.15627 6.72966L4.01565 6.95935C3.71565 7.45154 3.1719 8.79216 3.1719 9.04529C3.1719 9.08748 3.14846 9.13435 3.11565 9.1531C3.08752 9.17185 2.56252 9.2281 1.95784 9.27498C0.776587 9.36404 0.692212 9.38748 0.560962 9.64529C0.476587 9.80466 0.476587 12.1953 0.560962 12.3547C0.692212 12.6125 0.776587 12.6359 1.96721 12.7297C2.58127 12.7765 3.0969 12.8328 3.12034 12.8562C3.13909 12.8797 3.20471 13.0672 3.26096 13.2734C3.3969 13.7562 3.72971 14.5437 3.96877 14.9515L4.15627 15.275L3.42502 16.1234C3.0219 16.5922 2.67502 17.0281 2.65159 17.089C2.55315 17.3422 2.63284 17.4594 3.56565 18.3969C4.50315 19.3437 4.65315 19.4515 4.90627 19.3531C4.9719 19.3297 5.40784 18.9781 5.87659 18.575L6.72971 17.8437L7.05784 18.0359C7.50784 18.2937 8.15471 18.5703 8.67034 18.7203C8.9094 18.7906 9.12034 18.8609 9.14377 18.8797C9.16252 18.8984 9.22346 19.414 9.27034 20.0328C9.36409 21.2234 9.38752 21.3078 9.64534 21.439C9.80471 21.5234 12.1953 21.5234 12.3547 21.439C12.6172 21.3078 12.636 21.2234 12.725 20.0422C12.7719 19.4375 12.8235 18.9172 12.8422 18.889C12.861 18.8609 12.95 18.8234 13.0438 18.8047C13.1422 18.7906 13.3953 18.7109 13.611 18.6312L14 18.4906V16.4281V14.3656L13.836 14.4875C13.7469 14.5531 13.6016 14.6609 13.5219 14.7219C13.2688 14.9094 12.5 15.2562 12.1016 15.3687C11.6047 15.5 10.4891 15.514 9.9969 15.3922C8.32346 14.9703 7.06252 13.7328 6.63596 12.0828C6.50002 11.5719 6.4719 10.7984 6.56565 10.2687C6.87502 8.48748 8.14065 7.11404 9.91721 6.63123C10.3813 6.49998 11.5156 6.48591 11.9844 6.6031C12.1531 6.64529 12.2938 6.67341 12.3031 6.66404C12.3125 6.65935 12.2656 6.5281 12.2047 6.3781C11.9188 5.69373 11.75 4.88279 11.75 4.17966C11.75 3.31716 12.036 2.20154 12.4344 1.5031C12.6828 1.06248 12.6969 0.893726 12.5047 0.678102L12.3688 0.523415L11.061 0.509352C10.086 0.499977 9.72971 0.51404 9.64534 0.556227Z" fill="#475D87"/>
<path d="M15.0969 0.739061C14.4969 1.16094 14.061 1.64375 13.7516 2.225C13.0579 3.54219 13.1 5.03281 13.8641 6.32656C14.1125 6.74844 14.811 7.44687 15.2047 7.67187L15.4954 7.83594L15.5094 13.9578L15.5235 20.075L15.6969 20.4312C15.9079 20.8578 16.1797 21.1203 16.6157 21.3266C16.9016 21.4625 16.9719 21.4766 17.375 21.4766C17.7782 21.4766 17.8485 21.4625 18.1344 21.3266C18.5704 21.1203 18.8422 20.8578 19.0532 20.4312L19.2266 20.075L19.2407 13.9578L19.2547 7.83594L19.5454 7.67187C19.9391 7.44687 20.6375 6.74844 20.886 6.32656C21.875 4.65312 21.636 2.62344 20.2813 1.25937C19.9344 0.917187 19.3579 0.514061 19.2922 0.579687C19.2688 0.603125 19.2454 1.56875 19.2407 2.81562L19.2266 5.00937L18.3032 5.37969L17.375 5.75L16.4516 5.37969L15.5235 5.00937L15.5 2.79219C15.486 1.29688 15.4625 0.574999 15.425 0.560936C15.4016 0.551561 15.2516 0.631248 15.0969 0.739061Z" fill="#475D87"/>
</svg>
