<svg width="292" height="302" viewBox="0 0 292 302" fill="none" xmlns="http://www.w3.org/2000/svg">
<mask id="mask0_412_723" style="mask-type:luminance" maskUnits="userSpaceOnUse" x="0" y="5" width="292" height="292">
<path d="M124.587 296.208C120.026 296.208 115.533 296.025 111.125 295.66C103.127 294.999 91.2313 294.013 78.1337 290.414L163.355 291.964C150.294 294.807 137.2 296.208 124.587 296.208ZM65.807 286.294C55.3595 282.124 44.6911 275.992 35.0269 266.853C-4.89846 229.097 -8.10321 158.533 16.5187 101.926C9.48116 179.828 41.2063 217.123 65.0501 233.897L62.8183 277.741C62.6523 281.008 63.8059 284.028 65.807 286.294ZM266.224 225.76V61.043C267.695 63.0742 269.163 65.2198 270.609 67.4818C295.168 105.887 297.327 159.501 278.953 202.448C275.382 210.795 271.102 218.561 266.224 225.76ZM49.03 87.4861C45.6234 79.0408 42.7819 70.3681 40.4657 62.3239C40.5125 62.2678 40.5555 62.215 40.6022 62.1578C43.3671 58.7972 53.4649 46.8565 69.7498 34.7551C59.7693 54.0252 53.1235 71.5713 49.03 87.4861ZM232.69 34.5492H90.8625C90.8377 29.8882 90.9261 25.416 91.0814 21.2726C108.522 12.0759 129.989 5.01602 154.813 5.01602C155.254 5.01602 155.694 5.01819 156.137 5.02249C197.925 5.44513 229.038 25.7309 239.71 33.6909C237.582 33.9594 235.234 34.2473 232.69 34.5492Z" fill="white"/>
</mask>
<g mask="url(#mask0_412_723)">
<path d="M124.586 296.209C120.025 296.209 115.533 296.025 111.124 295.66C103.126 294.999 91.231 294.014 78.1335 290.415L163.354 291.964C150.294 294.807 137.2 296.209 124.586 296.209ZM65.8067 286.294C55.3593 282.125 44.6909 275.992 35.0267 266.853C-4.89874 229.097 -8.10345 158.533 16.5185 101.926C9.48101 179.828 41.206 217.123 65.0498 233.897L62.8181 277.741C62.6519 281.009 63.8055 284.029 65.8067 286.294ZM266.223 225.76V61.0425C267.694 63.0738 269.163 65.2197 270.609 67.4824C295.167 105.887 297.326 159.502 278.953 202.448C275.382 210.795 271.101 218.561 266.223 225.76ZM49.0297 87.4858C45.6231 79.0421 42.7816 70.3692 40.4654 62.3245C40.5123 62.2672 40.5552 62.2162 40.6019 62.159C43.3668 58.7968 53.4646 46.8571 69.7496 34.7562C59.769 54.0251 53.1233 71.5727 49.0297 87.4858ZM232.689 34.5503H90.8623C90.8374 29.8891 90.9257 25.4168 91.0811 21.2735C108.521 12.0763 129.989 5.01648 154.813 5.01648C155.253 5.01648 155.693 5.01859 156.136 5.02286C197.925 5.44525 229.038 25.7309 239.71 33.6907C237.581 33.9602 235.234 34.2468 232.689 34.5503Z" fill="url(#paint0_linear_412_723)"/>
</g>
<path d="M30.3339 33.7552C30.8346 32.0824 33.25 32.1939 33.5881 33.9059C36.8569 50.4641 46.7883 93.6178 65.4155 117.568C95.7443 156.567 113.181 217.386 89.5059 246.31C89.5059 246.31 -24.2278 215.983 30.3339 33.7552Z" fill="#91B3FA"/>
<path d="M66.8344 198.847C66.5594 198.266 66.2867 197.684 66.0149 197.1C66.3007 197.47 66.5843 197.835 66.8678 198.193L66.8344 198.847ZM43.6431 130.809C43.062 128.385 42.4975 125.958 41.9447 123.529C40.294 116.245 38.7973 108.925 37.5066 101.571C36.2056 94.2185 35.015 86.848 34.0251 79.4469C33.5367 75.7472 33.0825 72.0422 32.6745 68.3317C32.477 66.4746 32.2796 64.6194 32.1109 62.7605L31.8766 59.9686L31.7748 58.57C31.7506 58.0954 31.7089 57.6568 31.7095 57.1226C31.71 56.9692 31.8318 56.8393 31.9879 56.8321C31.9925 56.8321 31.997 56.8321 32.0015 56.8321C32.1563 56.8321 32.2854 56.9548 32.2926 57.11L32.2956 57.1768C32.3139 57.5756 32.3642 58.0647 32.4041 58.5195L32.5478 59.9073L32.8661 62.6811L33.56 68.2234C34.0518 71.9158 34.5891 75.6029 35.1603 79.2845C36.2909 86.6459 37.5521 93.9893 38.9606 101.302C40.4123 108.752 41.9684 116.184 43.6772 123.578C43.6013 126.046 43.5915 128.45 43.6431 130.809Z" fill="#C0D4FC"/>
<path d="M89.3723 1.38434C90.2875 -0.0132599 92.4731 0.746902 92.3156 2.40936C90.7953 18.4871 88.1313 60.7702 98.6789 87.8154C115.854 131.854 113.631 194.779 84.0287 214.845C84.0287 214.845 -10.3756 153.612 89.3723 1.38434Z" fill="#BDD0FB"/>
<path d="M81.422 37.429C81.6365 36.1934 81.8543 34.9618 82.0786 33.7282C82.4042 31.9734 82.7298 30.2166 83.0824 28.4659L83.6302 25.8418L83.9189 24.5317C84.0258 24.091 84.1077 23.6764 84.2544 23.1874C84.291 23.0647 84.4031 22.9842 84.5271 22.9842C84.5488 22.9842 84.5724 22.9862 84.5951 22.9922C84.747 23.0305 84.8398 23.1834 84.8022 23.3364L84.7869 23.3987C84.6953 23.769 84.608 24.2319 84.5206 24.6605L84.2749 25.9706L83.8101 28.6027L82.9357 33.8751C82.7848 34.833 82.6361 35.7909 82.4916 36.7488C82.1261 36.9621 81.7691 37.1895 81.422 37.429Z" fill="#D9E4FD"/>
<mask id="mask1_412_723" style="mask-type:luminance" maskUnits="userSpaceOnUse" x="62" y="34" width="205" height="260">
<path d="M254.838 293.624C254.768 293.624 254.696 293.624 254.626 293.622L163.355 291.964L78.1336 290.415L74.5854 290.35C71.076 290.286 67.9547 288.725 65.8069 286.294C63.8059 284.029 62.6522 281.009 62.8183 277.741L65.0501 233.897L66.8344 198.847L66.8679 198.192L74.4129 49.9962C74.6803 44.7617 77.3983 40.2097 81.422 37.428C81.7692 37.1887 82.1261 36.9622 82.4916 36.7488C84.8981 35.3493 87.6927 34.5493 90.6662 34.5493H90.8625H232.69C209.237 37.3299 169.006 41.2534 128.678 41.2534C115.974 41.2534 103.265 40.8641 91.063 39.9272C90.9326 39.9175 90.8032 39.9121 90.6749 39.9121C88.0603 39.9121 85.8609 41.9509 85.7196 44.6065L73.5611 273.368C73.3951 276.504 75.7897 279.187 78.925 279.372C98.3158 280.519 163.421 284.153 210.319 284.154C225.462 284.154 238.697 283.775 247.894 282.811C250.188 282.571 251.928 280.641 251.942 278.335L253.355 38.0544C253.362 36.9914 253.061 36.0059 252.541 35.1758C260.421 37.2846 266.224 44.4749 266.224 53.0205V61.0431V225.76V282.233C266.224 288.535 261.113 293.624 254.838 293.624Z" fill="white"/>
</mask>
<g mask="url(#mask1_412_723)">
<path d="M254.837 293.625C254.766 293.625 254.695 293.625 254.624 293.622L163.355 291.964L78.1333 290.415L74.5849 290.35C71.0756 290.287 67.9543 288.725 65.8066 286.294C63.8055 284.029 62.6517 281.009 62.8179 277.741L65.0497 233.897L66.8341 198.847L66.8675 198.193L74.4124 49.996C74.6798 44.7624 77.3979 40.2105 81.4215 37.4287C81.7687 37.189 82.1256 36.9631 82.491 36.7509C84.8976 35.3502 87.6922 34.5506 90.6658 34.5506H90.862H232.688C209.235 37.3305 169.005 41.2537 128.677 41.2537C115.973 41.2537 103.264 40.8647 91.0626 39.9276C90.932 39.9178 90.8027 39.9139 90.6744 39.9139C88.0598 39.9139 85.8605 41.9531 85.7192 44.6072L73.5607 273.368C73.3947 276.504 75.7893 279.187 78.9246 279.372C98.3154 280.519 163.42 284.153 210.318 284.154C225.461 284.154 238.696 283.775 247.894 282.812C250.187 282.571 251.927 280.641 251.941 278.335L253.353 38.0554C253.361 36.9926 253.061 36.0064 252.54 35.1773C260.42 37.2853 266.223 44.4756 266.223 53.0214V61.0447V225.761V282.234C266.223 288.536 261.111 293.625 254.837 293.625Z" fill="url(#paint1_linear_412_723)"/>
</g>
<path d="M228.313 289.75H228.319L248.464 289.491C255.2 289.403 260.681 283.852 260.681 277.115V246.699C260.681 246.461 260.487 246.269 260.25 246.269C260.013 246.269 259.82 246.461 259.82 246.699V277.115C259.82 283.383 254.721 288.548 248.452 288.63L228.307 288.891C228.07 288.893 227.88 289.088 227.882 289.327C227.886 289.562 228.077 289.75 228.313 289.75Z" fill="#91B3FA"/>
<path d="M260.25 237.707C260.487 237.707 260.68 237.515 260.68 237.277V232.352C260.68 232.114 260.487 231.922 260.25 231.922C260.013 231.922 259.819 232.114 259.819 232.352V237.277C259.819 237.515 260.013 237.707 260.25 237.707Z" fill="#91B3FA"/>
<mask id="mask2_412_723" style="mask-type:luminance" maskUnits="userSpaceOnUse" x="73" y="32" width="181" height="253">
<path d="M210.319 284.154C163.421 284.152 98.3158 280.519 78.925 279.372C75.7897 279.186 73.3951 276.504 73.5611 273.368L85.7196 44.6064C85.8608 41.9509 88.0603 39.9121 90.6749 39.9121C90.8032 39.9121 90.9325 39.9174 91.063 39.9272C103.265 40.8641 115.974 41.2533 128.678 41.2533C169.006 41.2533 209.237 37.3298 232.69 34.5493C235.234 34.2474 237.582 33.9595 239.71 33.691C242.672 33.3169 245.213 32.9816 247.269 32.7034C247.516 32.67 247.76 32.6538 248.001 32.6538C249.893 32.6538 251.586 33.6533 252.541 35.1757C253.061 36.0059 253.362 36.9913 253.355 38.0544L251.942 278.335C251.928 280.641 250.188 282.571 247.894 282.811C238.698 283.775 225.462 284.154 210.319 284.154ZM94.2738 45.5746C91.7584 45.5746 89.6409 47.5369 89.5051 50.0932L77.8048 270.239C77.6441 273.258 79.9493 275.839 82.9671 276.018C101.627 277.122 164.28 280.618 209.412 280.618C223.985 280.619 236.722 280.255 245.573 279.328C247.78 279.096 249.454 277.238 249.468 275.019L250.828 43.787C250.845 40.8857 248.489 38.5892 245.675 38.5892C245.444 38.5892 245.209 38.6053 244.971 38.6377C228.458 40.877 179.725 46.8652 130.845 46.8652C118.62 46.8652 106.39 46.491 94.6468 45.5897C94.5218 45.58 94.3978 45.5746 94.2738 45.5746Z" fill="white"/>
</mask>
<g mask="url(#mask2_412_723)">
<path d="M210.32 284.154C163.421 284.153 98.316 280.519 78.9252 279.372C75.7898 279.187 73.3952 276.504 73.5614 273.368L85.7199 44.6063C85.8611 41.9521 88.0606 39.9131 90.6751 39.9131C90.8033 39.9131 90.9327 39.9171 91.0632 39.9268C103.265 40.8643 115.974 41.2529 128.678 41.2529C169.007 41.2529 209.238 37.3312 232.69 34.5501C235.234 34.2473 237.582 33.9603 239.711 33.6907C242.672 33.3177 245.213 32.9818 247.269 32.7025C247.515 32.6693 247.759 32.6537 248.002 32.6537C249.894 32.6537 251.585 33.6536 252.54 35.177C253.062 36.0051 253.363 36.9914 253.355 38.0538L251.943 278.335C251.927 280.641 250.187 282.571 247.894 282.811C238.697 283.775 225.461 284.154 210.32 284.154ZM94.274 45.575C91.7587 45.575 89.641 47.5378 89.5053 50.0924L77.805 270.239C77.6444 273.258 79.9494 275.839 82.9672 276.018C101.627 277.122 164.28 280.618 209.413 280.618C223.985 280.62 236.723 280.255 245.574 279.328C247.781 279.096 249.455 277.238 249.468 275.02L250.828 43.788C250.845 40.8858 248.49 38.589 245.675 38.589C245.443 38.589 245.209 38.6046 244.972 38.6378C228.457 40.876 179.725 46.866 130.845 46.866C118.62 46.866 106.39 46.491 94.647 45.5907C94.522 45.5809 94.398 45.575 94.274 45.575Z" fill="url(#paint2_linear_412_723)"/>
</g>
<path d="M250.826 43.7882C250.846 40.6469 248.084 38.2156 244.97 38.6378C224.328 41.4375 153.339 50.0957 94.6465 45.59C91.9706 45.3847 89.6472 47.413 89.5048 50.0938L77.8045 270.239C77.6439 273.258 79.9489 275.839 82.9668 276.018C107.651 277.479 209.311 283.125 245.572 279.328C247.779 279.096 249.454 277.238 249.468 275.019L250.826 43.7882Z" fill="#91B3FA"/>
<mask id="mask3_412_723" style="mask-type:luminance" maskUnits="userSpaceOnUse" x="100" y="55" width="67" height="55">
<path d="M166.198 58.9872L163.793 106.184C163.713 107.754 162.322 109.002 160.601 109.046C151.013 109.293 121.142 109.958 104.276 109.155C102.368 109.065 100.858 107.658 100.795 105.917C100.473 97.0648 99.7692 71.3031 101.982 60.5332C102.339 58.7942 103.978 57.5187 105.919 57.4572L162.581 55.6502C164.624 55.5856 166.293 57.1252 166.198 58.9872Z" fill="white"/>
</mask>
<g mask="url(#mask3_412_723)">
<path d="M166.197 58.9872L163.792 106.184C163.713 107.755 162.321 109.003 160.6 109.047C151.013 109.293 121.141 109.958 104.276 109.155C102.367 109.065 100.858 107.659 100.794 105.917C100.473 97.0659 99.769 71.3032 101.981 60.5346C102.338 58.7951 103.978 57.5195 105.919 57.4579L162.58 55.6513C164.624 55.5861 166.293 57.1263 166.197 58.9872Z" fill="url(#paint3_linear_412_723)"/>
</g>
<path d="M229.365 64.8669H173.675C172.783 64.8669 172.074 64.1544 172.099 63.2852C172.124 62.4141 172.876 61.6874 173.768 61.6714L230.859 60.656C230.87 60.656 230.879 60.6543 230.89 60.6543C231.762 60.6543 232.236 61.324 231.942 62.1559L231.525 63.3386C231.23 64.1794 230.257 64.8669 229.365 64.8669Z" fill="#D3E1FD"/>
<path d="M228.416 102.253H172.727C171.834 102.253 171.124 101.541 171.15 100.671C171.175 99.7996 171.927 99.0733 172.818 99.0575L229.909 98.0406C229.919 98.0389 229.93 98.0389 229.94 98.0389C230.813 98.0389 231.286 98.711 230.992 99.5423L230.577 100.724C230.28 101.564 229.308 102.253 228.416 102.253Z" fill="#D3E1FD"/>
<path d="M229.364 73.668H173.676C172.782 73.668 172.073 72.955 172.099 72.084C172.124 71.213 172.876 70.4878 173.768 70.472L230.858 69.4535C230.867 69.4535 230.879 69.4535 230.888 69.4535C231.761 69.4535 232.235 70.1225 231.942 70.9549L231.526 72.1367C231.229 72.9778 230.256 73.668 229.364 73.668Z" fill="#D3E1FD"/>
<path d="M229.364 82.594H173.676C172.782 82.594 172.073 81.881 172.099 81.01C172.124 80.139 172.876 79.4138 173.768 79.398L230.858 78.3813C230.869 78.3813 230.879 78.3813 230.888 78.3813C231.761 78.3813 232.235 79.0503 231.942 79.8827L231.526 81.0627C231.229 81.9056 230.256 82.594 229.364 82.594Z" fill="#D3E1FD"/>
<path d="M228.795 92.0222H173.106C172.214 92.0222 171.504 91.3089 171.53 90.4397C171.555 89.5687 172.307 88.8431 173.197 88.8273L230.288 87.8091C230.3 87.8091 230.309 87.8091 230.32 87.8091C231.192 87.8091 231.666 88.4786 231.373 89.311L230.956 90.4905C230.66 91.3335 229.687 92.0222 228.795 92.0222Z" fill="#D3E1FD"/>
<path d="M226.734 123.366H96.7385C95.8457 123.366 95.1633 122.653 95.2204 121.782C95.2776 120.912 96.055 120.193 96.9476 120.186L230.112 119.136C230.117 119.136 230.122 119.136 230.127 119.136C231.008 119.136 231.275 119.699 230.722 120.392L229.366 122.095C228.811 122.793 227.626 123.366 226.734 123.366Z" fill="#D3E1FD"/>
<path d="M226.734 143.55H96.7385C95.8457 143.55 95.1633 142.836 95.2204 141.966C95.2776 141.097 96.055 140.377 96.9476 140.37L230.112 139.322C230.117 139.322 230.122 139.322 230.127 139.322C231.008 139.322 231.275 139.884 230.722 140.577L229.366 142.281C228.811 142.978 227.626 143.55 226.734 143.55Z" fill="#D3E1FD"/>
<path d="M227.621 164.237H97.627C96.7343 164.237 96.0507 163.525 96.1089 162.654C96.1662 161.783 96.9434 161.065 97.8361 161.058L230.999 160.008C231.004 160.008 231.01 160.008 231.017 160.008C231.894 160.008 232.163 160.57 231.612 161.265L230.255 162.968C229.698 163.667 228.513 164.237 227.621 164.237Z" fill="#D3E1FD"/>
<path d="M231.187 186.356C231.17 186.356 231.154 186.356 231.134 186.355L97.9203 184.85C96.4142 184.833 95.2119 183.86 95.2508 182.688C95.2886 181.55 96.4832 180.643 97.9473 180.643C97.9484 180.643 97.9494 180.643 97.9505 180.643L231.175 180.793C233.528 180.795 235.24 182.533 234.632 184.3C234.215 185.514 232.8 186.356 231.187 186.356Z" fill="#D3E1FD"/>
<path d="M231.075 210.365C231.057 210.365 231.041 210.364 231.021 210.364L97.808 208.859C96.3019 208.841 95.0996 207.869 95.1385 206.697C95.1763 205.558 96.3709 204.652 97.835 204.652C97.8361 204.652 97.8371 204.652 97.8382 204.652L231.062 204.801C233.414 204.804 235.128 206.542 234.519 208.309C234.101 209.523 232.687 210.365 231.075 210.365Z" fill="#D3E1FD"/>
<path d="M230.962 234.373C230.946 234.373 230.928 234.373 230.909 234.373L97.6958 232.867C96.1885 232.85 94.9874 231.878 95.0262 230.705C95.064 229.566 96.2585 228.661 97.7227 228.661C97.7238 228.661 97.7248 228.661 97.7259 228.661L230.951 228.81C233.302 228.813 235.015 230.551 234.407 232.317C233.989 233.532 232.575 234.373 230.962 234.373Z" fill="#D3E1FD"/>
<path d="M230.849 258.381C230.833 258.381 230.816 258.381 230.798 258.381L97.5834 256.875C96.0762 256.859 94.8752 255.885 94.914 254.714C94.9518 253.575 96.1464 252.669 97.6104 252.669C97.6114 252.669 97.6127 252.669 97.6137 252.669L230.839 252.819C233.189 252.821 234.903 254.559 234.295 256.325C233.877 257.54 232.462 258.381 230.849 258.381Z" fill="#D3E1FD"/>
<mask id="mask4_412_723" style="mask-type:luminance" maskUnits="userSpaceOnUse" x="154" y="0" width="25" height="26">
<path d="M162.86 12.2421C162.86 9.78822 164.851 7.79794 167.305 7.79794C169.76 7.79794 171.749 9.78822 171.749 12.2421C171.749 14.6971 169.76 16.6863 167.305 16.6863C164.851 16.6863 162.86 14.6971 162.86 12.2421ZM159.147 25.8669L176.97 24.2842L178.468 7.93595C178.77 4.64646 176.716 1.5877 173.548 0.652929C170.074 -0.372408 165.141 -0.450048 159.467 3.49712C148.338 11.2384 159.147 25.8669 159.147 25.8669Z" fill="white"/>
</mask>
<g mask="url(#mask4_412_723)">
<path d="M162.859 12.2433C162.859 9.7889 164.85 7.79949 167.305 7.79949C169.759 7.79949 171.749 9.7889 171.749 12.2433C171.749 14.6978 169.759 16.6872 167.305 16.6872C164.85 16.6872 162.859 14.6978 162.859 12.2433ZM159.147 25.8677L176.97 24.2852L178.468 7.9373C178.77 4.64747 176.716 1.58803 173.549 0.65362C170.074 -0.37122 165.141 -0.448738 159.467 3.49776C148.338 11.24 159.147 25.8677 159.147 25.8677Z" fill="url(#paint4_linear_412_723)"/>
</g>
<path d="M175.619 12.3027C175.382 12.2813 175.208 12.0716 175.23 11.8363L175.409 9.85952C175.66 7.13395 173.946 4.5945 171.334 3.82433C169.344 3.23814 167.293 3.15472 165.237 3.57404C165.003 3.6211 164.777 3.47134 164.73 3.24028C164.68 3.00709 164.832 2.78032 165.063 2.73112C167.258 2.28185 169.451 2.3717 171.578 2.99854C174.581 3.88638 176.554 6.80449 176.267 9.93868L176.085 11.9133C176.064 12.138 175.878 12.3048 175.658 12.3048C175.645 12.3048 175.632 12.3048 175.619 12.3027ZM175.15 17.4051C174.915 17.3837 174.74 17.174 174.761 16.9387L175.001 14.3351C175.02 14.0976 175.225 13.9222 175.467 13.9457C175.702 13.9671 175.878 14.1768 175.856 14.4121L175.619 17.0157C175.598 17.2404 175.409 17.4072 175.191 17.4072C175.178 17.4072 175.163 17.4072 175.15 17.4051Z" fill="#91B3FA"/>
<mask id="mask5_412_723" style="mask-type:luminance" maskUnits="userSpaceOnUse" x="134" y="21" width="68" height="16">
<path d="M201.296 34.8502V26.6303C201.296 23.7936 198.944 21.5209 196.109 21.6179L139.438 23.5597C136.924 23.6459 134.886 25.6308 134.736 28.143L134.263 36.0405L201.296 34.8502Z" fill="white"/>
</mask>
<g mask="url(#mask5_412_723)">
<path d="M201.296 34.8503V26.6317C201.296 23.7945 198.943 21.5211 196.108 21.6181L139.438 23.5601C136.924 23.647 134.886 25.6314 134.736 28.1433L134.263 36.0405L201.296 34.8503Z" fill="url(#paint5_linear_412_723)"/>
</g>
<path d="M180.166 24.7151H182.603C182.84 24.7151 183.034 24.5224 183.034 24.2836C183.034 24.0467 182.84 23.8541 182.603 23.8541H180.166C179.927 23.8541 179.735 24.0467 179.735 24.2836C179.735 24.5224 179.927 24.7151 180.166 24.7151Z" fill="#91B3FA"/>
<path d="M198.229 32.2676C198.466 32.2676 198.659 32.0769 198.659 31.8381V28.5124C198.659 25.9434 196.57 23.8541 194.001 23.8541H185.039C184.802 23.8541 184.61 24.0468 184.61 24.2836C184.61 24.5225 184.802 24.7151 185.039 24.7151H194.001C196.096 24.7151 197.798 26.4191 197.798 28.5124V31.8381C197.798 32.0769 197.993 32.2676 198.229 32.2676Z" fill="#91B3FA"/>
<mask id="mask6_412_723" style="mask-type:luminance" maskUnits="userSpaceOnUse" x="112" y="31" width="113" height="15">
<path d="M224.387 36.9256C224.25 34.0792 221.903 31.842 219.053 31.842L119.955 31.8388C116.391 31.8388 113.344 34.4027 112.737 37.9142L112.653 38.3983C111.987 42.2441 114.949 45.7622 118.852 45.7622H220.521C222.856 45.7622 224.718 43.8086 224.606 41.4754L224.387 36.9256Z" fill="white"/>
</mask>
<g mask="url(#mask6_412_723)">
<path d="M224.388 36.9248C224.251 34.0778 221.903 31.8397 219.054 31.8397L119.955 31.8378C116.392 31.8378 113.345 34.4028 112.738 37.9136L112.654 38.3973C111.988 42.2429 114.949 45.7615 118.852 45.7615H220.522C222.856 45.7615 224.719 43.8074 224.607 41.4753L224.388 36.9248Z" fill="url(#paint6_linear_412_723)"/>
</g>
<mask id="mask7_412_723" style="mask-type:luminance" maskUnits="userSpaceOnUse" x="61" y="153" width="60" height="50">
<path d="M119.329 202.817C119.318 202.494 117.914 170.402 103.891 158.846C99.7358 155.421 94.8269 154.12 89.3013 154.975C77.6722 156.775 69.6291 165.33 65.3962 180.403C62.2156 191.728 62.5121 202.671 62.5154 202.78L61.4458 202.813C61.4426 202.702 61.1396 191.617 64.359 180.136C66.2577 173.368 68.9908 167.781 72.4841 163.528C76.8765 158.182 82.4798 154.948 89.1385 153.917C94.9779 153.014 100.171 154.394 104.572 158.021C110.627 163.012 115.132 172.069 117.961 184.943C120.058 194.489 120.396 202.694 120.399 202.776L119.329 202.817Z" fill="white"/>
</mask>
<g mask="url(#mask7_412_723)">
<path d="M119.33 202.816C119.318 202.494 117.915 170.4 103.892 158.845C99.7369 155.42 94.8271 154.119 89.3023 154.974C77.6726 156.774 69.6293 165.33 65.3968 180.401C62.2161 191.727 62.5127 202.67 62.5159 202.779L61.4464 202.813C61.4432 202.702 61.1402 191.616 64.3596 180.135C66.2583 173.367 68.9913 167.78 72.4844 163.528C76.8771 158.181 82.4807 154.947 89.1388 153.917C94.9785 153.013 100.172 154.394 104.573 158.02C110.628 163.011 115.133 172.069 117.962 184.942C120.059 194.488 120.397 202.693 120.4 202.775L119.33 202.816Z" fill="url(#paint7_linear_412_723)"/>
</g>
<mask id="mask8_412_723" style="mask-type:luminance" maskUnits="userSpaceOnUse" x="17" y="195" width="117" height="107">
<path d="M17.5329 291.978L31.747 198.282C31.8827 197.387 32.6447 196.722 33.5497 196.707L115.682 195.349L133.448 301.124H24.5248C19.9045 301.124 16.8587 296.548 17.5329 291.978Z" fill="white"/>
</mask>
<g mask="url(#mask8_412_723)">
<path d="M17.5325 291.978L31.7466 198.282C31.8823 197.388 32.6443 196.723 33.5492 196.707L115.681 195.35L133.447 301.124H24.5244C19.9042 301.124 16.8584 296.548 17.5325 291.978Z" fill="url(#paint8_linear_412_723)"/>
</g>
<mask id="mask9_412_723" style="mask-type:luminance" maskUnits="userSpaceOnUse" x="115" y="195" width="39" height="107">
<path d="M131.517 196.697L115.682 195.349L133.448 301.124L150.986 300.671C152.718 300.627 153.985 299.024 153.63 297.329L132.744 197.704C132.583 197.147 132.096 196.746 131.517 196.697Z" fill="white"/>
</mask>
<g mask="url(#mask9_412_723)">
<path d="M131.516 196.697L115.682 195.349L133.448 301.124L150.986 300.671C152.718 300.627 153.985 299.024 153.63 297.329L132.743 197.704C132.583 197.147 132.096 196.745 131.516 196.697Z" fill="url(#paint9_linear_412_723)"/>
</g>
<mask id="mask10_412_723" style="mask-type:luminance" maskUnits="userSpaceOnUse" x="43" y="153" width="60" height="50">
<path d="M101.624 202.477C101.612 202.154 100.208 170.061 86.1854 158.505C82.0302 155.082 77.1213 153.779 71.5957 154.634C59.9666 156.434 51.9233 164.989 47.6902 180.062C44.5098 191.387 44.8059 202.33 44.8094 202.439L43.7399 202.473C43.7365 202.362 43.4341 191.277 46.6537 179.797C48.5519 173.028 51.2854 167.44 54.7784 163.189C59.1709 157.841 64.7741 154.608 71.4329 153.577C77.2722 152.673 82.4658 154.053 86.8668 157.68C92.9218 162.671 97.4264 171.729 100.254 184.602C102.353 194.148 102.69 202.353 102.693 202.435L101.624 202.477Z" fill="white"/>
</mask>
<g mask="url(#mask10_412_723)">
<path d="M101.624 202.477C101.612 202.153 100.208 170.061 86.1862 158.505C82.031 155.081 77.1214 153.779 71.5957 154.634C59.9667 156.433 51.9236 164.989 47.6904 180.062C44.5099 191.386 44.8061 202.33 44.8095 202.439L43.74 202.473C43.7366 202.361 43.4343 191.277 46.6539 179.796C48.5521 173.028 51.2855 167.44 54.7786 163.188C59.1711 157.84 64.7743 154.607 71.4332 153.576C77.273 152.672 82.4664 154.053 86.8666 157.68C92.9223 162.671 97.4268 171.729 100.255 184.602C102.353 194.148 102.691 202.353 102.693 202.434L101.624 202.477Z" fill="url(#paint10_linear_412_723)"/>
</g>
<mask id="mask11_412_723" style="mask-type:luminance" maskUnits="userSpaceOnUse" x="207" y="292" width="19" height="10">
<path d="M224.758 292.947C224.758 292.947 225.33 296.02 225.627 299.064C225.742 300.253 224.835 301.295 223.64 301.357C219.585 301.564 210.911 301.976 207.795 301.867C207.327 301.85 207.017 301.373 207.186 300.936C207.327 300.57 207.604 300.272 207.96 300.105L222.231 293.38L224.758 292.947Z" fill="white"/>
</mask>
<g mask="url(#mask11_412_723)">
<path d="M224.758 292.947C224.758 292.947 225.331 296.02 225.628 299.063C225.743 300.252 224.835 301.295 223.641 301.356C219.585 301.564 210.911 301.975 207.796 301.866C207.327 301.849 207.017 301.373 207.187 300.936C207.327 300.569 207.605 300.272 207.96 300.105L222.231 293.38L224.758 292.947Z" fill="url(#paint11_linear_412_723)"/>
</g>
<mask id="mask12_412_723" style="mask-type:luminance" maskUnits="userSpaceOnUse" x="220" y="290" width="6" height="6">
<path d="M225.186 291.135L224.785 294.82C224.785 294.82 222.285 296.012 220.557 294.713L221.558 290.601L225.186 291.135Z" fill="white"/>
</mask>
<g mask="url(#mask12_412_723)">
<path d="M225.186 291.135L224.785 294.82C224.785 294.82 222.285 296.012 220.558 294.713L221.559 290.601L225.186 291.135Z" fill="url(#paint12_linear_412_723)"/>
</g>
<mask id="mask13_412_723" style="mask-type:luminance" maskUnits="userSpaceOnUse" x="220" y="221" width="16" height="72">
<path d="M224.197 221.933C224.396 222.892 225.668 269.894 220.844 291.008C220.765 291.353 220.942 291.705 221.271 291.836C222.045 292.143 223.56 292.585 225.371 292.628C225.932 292.642 226.431 292.272 226.584 291.733C227.974 286.832 234.624 262.277 235.298 238.875C236.053 212.725 235.289 237.984 235.289 237.984L234.548 221.832L224.197 221.933Z" fill="white"/>
</mask>
<g mask="url(#mask13_412_723)">
<path d="M224.197 221.933C224.396 222.892 225.669 269.894 220.844 291.007C220.766 291.353 220.942 291.705 221.271 291.836C222.046 292.143 223.559 292.585 225.372 292.628C225.932 292.642 226.431 292.272 226.584 291.733C227.975 286.832 234.624 262.277 235.298 238.875C236.053 212.725 235.289 237.984 235.289 237.984L234.548 221.832L224.197 221.933Z" fill="url(#paint13_linear_412_723)"/>
</g>
<mask id="mask14_412_723" style="mask-type:luminance" maskUnits="userSpaceOnUse" x="235" y="294" width="9" height="8">
<path d="M241.263 294.395C241.263 294.395 242.142 295.941 243.02 300.061C243.178 300.805 242.664 301.524 241.907 301.606C240.569 301.75 238.509 301.939 236.856 301.943C236.095 301.946 235.494 301.288 235.578 300.531C235.748 299.023 236.294 296.545 238.037 294.601L241.263 294.395Z" fill="white"/>
</mask>
<g mask="url(#mask14_412_723)">
<path d="M241.264 294.395C241.264 294.395 242.142 295.941 243.021 300.061C243.179 300.805 242.665 301.524 241.907 301.606C240.57 301.75 238.51 301.939 236.857 301.943C236.095 301.946 235.494 301.288 235.58 300.531C235.747 299.023 236.294 296.545 238.036 294.601L241.264 294.395Z" fill="url(#paint14_linear_412_723)"/>
</g>
<mask id="mask15_412_723" style="mask-type:luminance" maskUnits="userSpaceOnUse" x="238" y="289" width="4" height="7">
<path d="M241.977 289.653L241.009 295.23C241.009 295.23 240.008 295.99 238.006 295.465L238.437 289.471L241.977 289.653Z" fill="white"/>
</mask>
<g mask="url(#mask15_412_723)">
<path d="M241.978 289.653L241.011 295.23C241.011 295.23 240.008 295.99 238.007 295.464L238.438 289.471L241.978 289.653Z" fill="url(#paint15_linear_412_723)"/>
</g>
<mask id="mask16_412_723" style="mask-type:luminance" maskUnits="userSpaceOnUse" x="223" y="220" width="23" height="73">
<path d="M244.1 223.185C248.446 247.949 243.793 284.495 242.175 291.655C242.075 292.093 241.726 292.432 241.283 292.509C240.531 292.642 239.293 292.755 238.068 292.412C237.645 292.294 237.347 291.916 237.325 291.479C237.044 285.706 237.113 250.246 233.149 236.27C232.949 235.562 232.509 234.947 231.905 234.525L224.423 229.314L223.77 220.778L244.1 223.185Z" fill="white"/>
</mask>
<g mask="url(#mask16_412_723)">
<path d="M244.099 223.186C248.445 247.949 243.791 284.495 242.174 291.656C242.075 292.093 241.725 292.432 241.282 292.51C240.531 292.642 239.293 292.755 238.067 292.412C237.644 292.294 237.346 291.917 237.324 291.479C237.042 285.706 237.112 250.246 233.149 236.27C232.949 235.562 232.509 234.947 231.903 234.526L224.422 229.314L223.769 220.778L244.099 223.186Z" fill="url(#paint16_linear_412_723)"/>
</g>
<mask id="mask17_412_723" style="mask-type:luminance" maskUnits="userSpaceOnUse" x="199" y="174" width="47" height="53">
<path d="M217.464 176.44C229.779 176.119 243.4 179.427 243.4 179.427C247.276 200.812 244.483 225.549 244.483 225.549C234.971 228.141 224.178 224.214 224.178 224.214C222.508 215.276 214.873 190.148 214.873 190.148C208.848 189.459 203.875 187.77 199.77 185.513C202.85 181.874 204.274 177.267 204.886 174.546C209.253 175.858 213.667 176.538 217.464 176.44Z" fill="white"/>
</mask>
<g mask="url(#mask17_412_723)">
<path d="M217.464 176.44C229.779 176.119 243.402 179.426 243.402 179.426C247.276 200.812 244.484 225.548 244.484 225.548C234.971 228.14 224.178 224.214 224.178 224.214C222.508 215.276 214.874 190.148 214.874 190.148C208.848 189.459 203.875 187.769 199.771 185.513C202.85 181.874 204.273 177.267 204.887 174.546C209.254 175.858 213.667 176.538 217.464 176.44Z" fill="url(#paint17_linear_412_723)"/>
</g>
<mask id="mask18_412_723" style="mask-type:luminance" maskUnits="userSpaceOnUse" x="180" y="157" width="25" height="29">
<path d="M180.912 158.646C182.108 157.174 183.646 157.85 183.646 157.85C185.531 165.488 195.093 171.606 204.886 174.546C204.274 177.267 202.85 181.874 199.77 185.513C182.423 175.976 180.995 159.229 180.912 158.646Z" fill="white"/>
</mask>
<g mask="url(#mask18_412_723)">
<path d="M180.911 158.646C182.107 157.174 183.646 157.85 183.646 157.85C185.532 165.488 195.093 171.606 204.886 174.546C204.273 177.267 202.85 181.874 199.77 185.513C182.422 175.975 180.995 159.229 180.911 158.646Z" fill="url(#paint18_linear_412_723)"/>
</g>
<mask id="mask19_412_723" style="mask-type:luminance" maskUnits="userSpaceOnUse" x="175" y="145" width="9" height="15">
<path d="M181.21 159.015C181.087 159.418 182.559 160.018 183.406 158.363C183.429 157.574 183.876 154.19 183.398 153.552C180.855 150.153 175.947 145.909 175.947 145.909C175.132 146.728 175.818 147.52 175.818 147.52L178.202 149.956C177.717 150.853 177.121 151.613 176.85 152.695C176.644 153.514 176.783 154.388 177.202 155.127C177.624 155.87 178.2 156.835 178.741 157.59C179.766 159.018 181.21 159.015 181.21 159.015Z" fill="white"/>
</mask>
<g mask="url(#mask19_412_723)">
<path d="M181.21 159.015C181.087 159.417 182.56 160.018 183.407 158.362C183.43 157.573 183.876 154.19 183.399 153.551C180.856 150.152 175.949 145.908 175.949 145.908C175.132 146.727 175.819 147.519 175.819 147.519L178.202 149.956C177.717 150.853 177.122 151.612 176.851 152.694C176.644 153.513 176.784 154.387 177.202 155.127C177.625 155.869 178.201 156.834 178.742 157.589C179.767 159.018 181.21 159.015 181.21 159.015Z" fill="url(#paint19_linear_412_723)"/>
</g>
<mask id="mask20_412_723" style="mask-type:luminance" maskUnits="userSpaceOnUse" x="178" y="151" width="5" height="7">
<path d="M179.25 151.542L181.419 153.346L182.112 155.156L180.214 157.303C180.214 157.303 179.534 153.705 179.048 152.93C178.561 152.155 178.805 151.775 179.25 151.542Z" fill="white"/>
</mask>
<g mask="url(#mask20_412_723)">
<path d="M179.25 151.542L181.418 153.347L182.112 155.156L180.213 157.303C180.213 157.303 179.534 153.705 179.048 152.93C178.56 152.155 178.805 151.775 179.25 151.542Z" fill="url(#paint20_linear_412_723)"/>
</g>
<mask id="mask21_412_723" style="mask-type:luminance" maskUnits="userSpaceOnUse" x="238" y="179" width="19" height="21">
<path d="M238.79 191.397L243.401 179.427C243.401 179.427 254.979 187.134 256.966 197.026C254.794 197.206 250.843 197.81 246.991 199.801C246.095 195.129 238.79 191.397 238.79 191.397Z" fill="white"/>
</mask>
<g mask="url(#mask21_412_723)">
<path d="M238.79 191.397L243.399 179.427C243.399 179.427 254.978 187.134 256.965 197.026C254.792 197.206 250.843 197.81 246.99 199.801C246.095 195.13 238.79 191.397 238.79 191.397Z" fill="url(#paint21_linear_412_723)"/>
</g>
<mask id="mask22_412_723" style="mask-type:luminance" maskUnits="userSpaceOnUse" x="227" y="197" width="31" height="16">
<path d="M228.844 202.714C228.844 202.714 241.83 209.891 246.128 203.617C247.021 202.313 247.225 201.026 246.991 199.801C250.843 197.81 254.794 197.206 256.966 197.026C257.564 200.008 257.294 203.188 255.569 206.417C248.068 220.453 227.166 205.915 227.166 205.915L228.844 202.714Z" fill="white"/>
</mask>
<g mask="url(#mask22_412_723)">
<path d="M228.843 202.715C228.843 202.715 241.828 209.891 246.128 203.617C247.02 202.313 247.225 201.026 246.99 199.801C250.843 197.81 254.792 197.206 256.965 197.026C257.563 200.008 257.294 203.188 255.567 206.417C248.067 220.454 227.165 205.916 227.165 205.916L228.843 202.715Z" fill="url(#paint22_linear_412_723)"/>
</g>
<mask id="mask23_412_723" style="mask-type:luminance" maskUnits="userSpaceOnUse" x="221" y="166" width="13" height="14">
<path d="M229.845 166.322L233.871 177.618C233.938 177.804 233.863 178.014 233.69 178.112C232.628 178.712 228.795 180.456 224.129 177.56C223.643 177.258 223.309 176.762 223.23 176.195L221.867 166.398L229.845 166.322Z" fill="white"/>
</mask>
<g mask="url(#mask23_412_723)">
<path d="M229.844 166.322L233.871 177.618C233.938 177.805 233.862 178.014 233.689 178.112C232.628 178.712 228.795 180.456 224.13 177.56C223.643 177.258 223.309 176.762 223.229 176.195L221.868 166.398L229.844 166.322Z" fill="url(#paint23_linear_412_723)"/>
</g>
<mask id="mask24_412_723" style="mask-type:luminance" maskUnits="userSpaceOnUse" x="217" y="155" width="15" height="15">
<path d="M221.217 155.909C221.217 155.909 216.992 164.05 217.574 167.317C218.157 170.584 223.488 170.298 228.12 167.596L231.291 158.819L221.217 155.909Z" fill="white"/>
</mask>
<g mask="url(#mask24_412_723)">
<path d="M221.218 155.908C221.218 155.908 216.992 164.05 217.574 167.316C218.157 170.584 223.489 170.297 228.12 167.596L231.291 158.819L221.218 155.908Z" fill="url(#paint24_linear_412_723)"/>
</g>
<mask id="mask25_412_723" style="mask-type:luminance" maskUnits="userSpaceOnUse" x="218" y="150" width="20" height="18">
<path d="M227.873 163.303C227.683 163.221 227.611 162.99 227.723 162.816C228.062 162.286 228.699 161.205 228.896 160.263C228.896 160.263 229.665 159.76 226.915 159.129C224.167 158.499 220.067 157.52 219.185 155.193C218.326 152.925 220.473 147.18 224.03 151.707C224.165 151.88 224.427 151.881 224.558 151.706C225.128 150.95 226.627 149.381 228.738 150.304C230.714 151.168 230.95 152.608 230.929 153.334C230.924 153.548 231.116 153.713 231.326 153.671C232.319 153.471 234.704 153.286 235.841 155.723C236.778 157.731 236.193 158.878 235.655 159.442C235.48 159.624 235.561 159.922 235.803 159.993C236.458 160.187 237.308 160.734 237.238 162.266C237.141 164.384 234.772 164.22 234.097 164.13C233.987 164.116 233.876 164.155 233.802 164.238C233.23 164.882 230.652 167.623 227.837 167.978C227.593 168.008 227.403 167.769 227.48 167.536L228.665 163.979C228.721 163.814 228.64 163.634 228.481 163.565L227.873 163.303Z" fill="white"/>
</mask>
<g mask="url(#mask25_412_723)">
<path d="M227.874 163.302C227.682 163.222 227.611 162.989 227.724 162.816C228.063 162.285 228.699 161.204 228.896 160.263C228.896 160.263 229.664 159.761 226.916 159.13C224.168 158.499 220.067 157.52 219.185 155.194C218.325 152.924 220.473 147.18 224.03 151.708C224.164 151.879 224.427 151.881 224.559 151.706C225.127 150.95 226.628 149.381 228.738 150.303C230.715 151.168 230.95 152.608 230.929 153.334C230.924 153.548 231.117 153.712 231.326 153.671C232.319 153.471 234.705 153.285 235.841 155.723C236.779 157.731 236.193 158.878 235.655 159.443C235.48 159.625 235.56 159.921 235.803 159.993C236.459 160.188 237.308 160.733 237.238 162.266C237.14 164.385 234.772 164.22 234.097 164.129C233.986 164.115 233.875 164.154 233.802 164.238C233.23 164.882 230.652 167.623 227.838 167.978C227.593 168.008 227.402 167.769 227.481 167.535L228.665 163.979C228.721 163.813 228.64 163.634 228.481 163.565L227.874 163.302Z" fill="url(#paint25_linear_412_723)"/>
</g>
<mask id="mask26_412_723" style="mask-type:luminance" maskUnits="userSpaceOnUse" x="226" y="162" width="5" height="4">
<path d="M227.388 163.811C227.388 163.811 230.431 161.679 230.672 163.447C230.913 165.216 227.937 166.038 226.454 165.392L227.388 163.811Z" fill="white"/>
</mask>
<g mask="url(#mask26_412_723)">
<path d="M227.388 163.81C227.388 163.81 230.432 161.679 230.673 163.447C230.914 165.216 227.938 166.039 226.455 165.392L227.388 163.81Z" fill="url(#paint26_linear_412_723)"/>
</g>
<mask id="mask27_412_723" style="mask-type:luminance" maskUnits="userSpaceOnUse" x="199" y="187" width="33" height="29">
<path d="M231.499 214.055L224.425 189.352C224.344 189.072 224.105 188.867 223.816 188.834C222.534 188.684 218.82 188.265 214.533 187.902C209.367 187.465 203.369 187.111 199.785 187.412C199.275 187.455 198.968 187.994 199.195 188.452C201.232 192.576 209.616 209.349 213.815 214.844C213.954 215.026 214.169 215.132 214.398 215.13L230.811 214.977C231.287 214.973 231.63 214.515 231.499 214.055Z" fill="white"/>
</mask>
<g mask="url(#mask27_412_723)">
<path d="M231.499 214.056L224.424 189.353C224.343 189.073 224.105 188.868 223.816 188.834C222.533 188.684 218.82 188.265 214.532 187.903C209.366 187.465 203.368 187.111 199.786 187.412C199.274 187.455 198.968 187.994 199.194 188.453C201.233 192.577 209.616 209.35 213.813 214.844C213.954 215.026 214.169 215.133 214.397 215.131L230.81 214.978C231.287 214.973 231.63 214.515 231.499 214.056Z" fill="url(#paint27_linear_412_723)"/>
</g>
<mask id="mask28_412_723" style="mask-type:luminance" maskUnits="userSpaceOnUse" x="221" y="199" width="10" height="10">
<path d="M229.79 208.088C229.79 208.088 230.775 204.036 230.377 202.598C229.98 201.161 229.21 199.313 226.643 199.723C224.075 200.134 221.048 201.216 221.048 201.216C221.048 201.216 221.201 203.087 223.151 202.483L221.942 203.419C221.942 203.419 222.114 204.919 223.763 204.118L222.637 205.359C222.637 205.359 223.346 206.59 224.557 205.801C225.77 205.011 226.351 208.575 229.79 208.088Z" fill="white"/>
</mask>
<g mask="url(#mask28_412_723)">
<path d="M229.79 208.088C229.79 208.088 230.774 204.036 230.377 202.598C229.979 201.161 229.209 199.313 226.642 199.724C224.074 200.134 221.048 201.216 221.048 201.216C221.048 201.216 221.202 203.087 223.151 202.484L221.942 203.42C221.942 203.42 222.115 204.919 223.762 204.118L222.636 205.359C222.636 205.359 223.345 206.59 224.558 205.801C225.771 205.011 226.352 208.575 229.79 208.088Z" fill="url(#paint28_linear_412_723)"/>
</g>
<path d="M215.004 195.276C215.004 196.423 214.074 197.353 212.928 197.353C211.781 197.353 210.85 196.423 210.85 195.276C210.85 194.13 211.781 193.2 212.928 193.2C214.074 193.2 215.004 194.13 215.004 195.276Z" fill="#91B3FA"/>
<path d="M223.624 196.645L222.185 191.759C222.008 191.159 221.525 190.709 220.926 190.584C216.411 189.641 204.056 189.442 203.933 189.44L203.94 188.889C204.45 188.896 216.472 189.09 221.039 190.043C221.837 190.21 222.479 190.808 222.714 191.604L224.155 196.489L223.624 196.645Z" fill="#91B3FA"/>
<defs>
<linearGradient id="paint0_linear_412_723" x1="660.195" y1="317.665" x2="238.923" y2="-137.04" gradientUnits="userSpaceOnUse">
<stop stop-color="#DAE3FE"/>
<stop offset="1" stop-color="#E9EFFD"/>
</linearGradient>
<linearGradient id="paint1_linear_412_723" x1="344.281" y1="218.577" x2="370.606" y2="-560.664" gradientUnits="userSpaceOnUse">
<stop stop-color="#09005D"/>
<stop offset="1" stop-color="#1A0F91"/>
</linearGradient>
<linearGradient id="paint2_linear_412_723" x1="563.817" y1="327.929" x2="231.948" y2="-161.694" gradientUnits="userSpaceOnUse">
<stop stop-color="#4F52FF"/>
<stop offset="1" stop-color="#4042E2"/>
</linearGradient>
<linearGradient id="paint3_linear_412_723" x1="205.535" y1="-100.086" x2="316.073" y2="-100.086" gradientUnits="userSpaceOnUse">
<stop stop-color="#DAE3FE"/>
<stop offset="1" stop-color="#E9EFFD"/>
</linearGradient>
<linearGradient id="paint4_linear_412_723" x1="337.28" y1="-389.763" x2="481.566" y2="-199.958" gradientUnits="userSpaceOnUse">
<stop stop-color="#09005D"/>
<stop offset="1" stop-color="#1A0F91"/>
</linearGradient>
<linearGradient id="paint5_linear_412_723" x1="298.395" y1="-332.977" x2="433.82" y2="-154.829" gradientUnits="userSpaceOnUse">
<stop stop-color="#09005D"/>
<stop offset="1" stop-color="#1A0F91"/>
</linearGradient>
<linearGradient id="paint6_linear_412_723" x1="303.988" y1="-301.179" x2="394.593" y2="-134.811" gradientUnits="userSpaceOnUse">
<stop stop-color="#4F52FF"/>
<stop offset="1" stop-color="#4042E2"/>
</linearGradient>
<linearGradient id="paint7_linear_412_723" x1="108.088" y1="186.492" x2="93.6685" y2="301.245" gradientUnits="userSpaceOnUse">
<stop stop-color="#09005D"/>
<stop offset="1" stop-color="#1A0F91"/>
</linearGradient>
<linearGradient id="paint8_linear_412_723" x1="132.534" y1="193.981" x2="38.9494" y2="305.698" gradientUnits="userSpaceOnUse">
<stop stop-color="#FF928E"/>
<stop offset="1" stop-color="#FE7062"/>
</linearGradient>
<linearGradient id="paint9_linear_412_723" x1="317.336" y1="112.493" x2="168.922" y2="228.501" gradientUnits="userSpaceOnUse">
<stop stop-color="#FF928E"/>
<stop offset="1" stop-color="#FE7062"/>
</linearGradient>
<linearGradient id="paint10_linear_412_723" x1="88.7065" y1="183.744" x2="74.2629" y2="298.691" gradientUnits="userSpaceOnUse">
<stop stop-color="#09005D"/>
<stop offset="1" stop-color="#1A0F91"/>
</linearGradient>
<linearGradient id="paint11_linear_412_723" x1="363.103" y1="252.108" x2="447.488" y2="342.163" gradientUnits="userSpaceOnUse">
<stop stop-color="#09005D"/>
<stop offset="1" stop-color="#1A0F91"/>
</linearGradient>
<linearGradient id="paint12_linear_412_723" x1="389.548" y1="258.749" x2="382.141" y2="258.819" gradientUnits="userSpaceOnUse">
<stop stop-color="#FEBBBA"/>
<stop offset="1" stop-color="#FF928E"/>
</linearGradient>
<linearGradient id="paint13_linear_412_723" x1="454.551" y1="102.523" x2="391.575" y2="224.744" gradientUnits="userSpaceOnUse">
<stop stop-color="#09005D"/>
<stop offset="1" stop-color="#1A0F91"/>
</linearGradient>
<linearGradient id="paint14_linear_412_723" x1="408.804" y1="227.461" x2="498.447" y2="323.127" gradientUnits="userSpaceOnUse">
<stop stop-color="#09005D"/>
<stop offset="1" stop-color="#1A0F91"/>
</linearGradient>
<linearGradient id="paint15_linear_412_723" x1="444.522" y1="252.528" x2="437.743" y2="252.593" gradientUnits="userSpaceOnUse">
<stop stop-color="#FEBBBA"/>
<stop offset="1" stop-color="#FF928E"/>
</linearGradient>
<linearGradient id="paint16_linear_412_723" x1="482.395" y1="98.7602" x2="417.185" y2="225.316" gradientUnits="userSpaceOnUse">
<stop stop-color="#09005D"/>
<stop offset="1" stop-color="#1A0F91"/>
</linearGradient>
<linearGradient id="paint17_linear_412_723" x1="1306.87" y1="-1379.87" x2="1215.3" y2="-1227.55" gradientUnits="userSpaceOnUse">
<stop stop-color="#FF928E"/>
<stop offset="1" stop-color="#FE7062"/>
</linearGradient>
<linearGradient id="paint18_linear_412_723" x1="322.922" y1="93.8832" x2="282.26" y2="74.7638" gradientUnits="userSpaceOnUse">
<stop stop-color="#FEBBBA"/>
<stop offset="1" stop-color="#FF928E"/>
</linearGradient>
<linearGradient id="paint19_linear_412_723" x1="262.073" y1="57.8816" x2="261.397" y2="119.341" gradientUnits="userSpaceOnUse">
<stop stop-color="#FEBBBA"/>
<stop offset="1" stop-color="#FF928E"/>
</linearGradient>
<linearGradient id="paint20_linear_412_723" x1="297.629" y1="6.309" x2="245.319" y2="119.769" gradientUnits="userSpaceOnUse">
<stop stop-color="#FEBBBA"/>
<stop offset="1" stop-color="#FF928E"/>
</linearGradient>
<linearGradient id="paint21_linear_412_723" x1="1383.05" y1="-1431.99" x2="1287.96" y2="-1273.82" gradientUnits="userSpaceOnUse">
<stop stop-color="#FF928E"/>
<stop offset="1" stop-color="#FE7062"/>
</linearGradient>
<linearGradient id="paint22_linear_412_723" x1="495.177" y1="69.0694" x2="441.109" y2="120.547" gradientUnits="userSpaceOnUse">
<stop stop-color="#FEBBBA"/>
<stop offset="1" stop-color="#FF928E"/>
</linearGradient>
<linearGradient id="paint23_linear_412_723" x1="405.053" y1="80.905" x2="410.743" y2="32.99" gradientUnits="userSpaceOnUse">
<stop stop-color="#FEBBBA"/>
<stop offset="1" stop-color="#FF928E"/>
</linearGradient>
<linearGradient id="paint24_linear_412_723" x1="389.213" y1="49.4944" x2="410.362" y2="36.3179" gradientUnits="userSpaceOnUse">
<stop stop-color="#FEBBBA"/>
<stop offset="1" stop-color="#FF928E"/>
</linearGradient>
<linearGradient id="paint25_linear_412_723" x1="431.417" y1="15.6799" x2="403.572" y2="38.1045" gradientUnits="userSpaceOnUse">
<stop stop-color="#09005D"/>
<stop offset="1" stop-color="#1A0F91"/>
</linearGradient>
<linearGradient id="paint26_linear_412_723" x1="393.902" y1="54.9046" x2="412.89" y2="43.0744" gradientUnits="userSpaceOnUse">
<stop stop-color="#FEBBBA"/>
<stop offset="1" stop-color="#FF928E"/>
</linearGradient>
<linearGradient id="paint27_linear_412_723" x1="389.669" y1="82.2126" x2="362.644" y2="194.816" gradientUnits="userSpaceOnUse">
<stop stop-color="#09005D"/>
<stop offset="1" stop-color="#1A0F91"/>
</linearGradient>
<linearGradient id="paint28_linear_412_723" x1="406.478" y1="112.886" x2="391.223" y2="112.886" gradientUnits="userSpaceOnUse">
<stop stop-color="#FEBBBA"/>
<stop offset="1" stop-color="#FF928E"/>
</linearGradient>
</defs>
</svg>
