<svg width="334" height="333" viewBox="0 0 334 333" fill="none" xmlns="http://www.w3.org/2000/svg">
<mask id="mask0_412_6711" style="mask-type:luminance" maskUnits="userSpaceOnUse" x="0" y="5" width="321" height="319">
<path d="M165.118 323.809C145.376 323.809 129.523 321.054 121.312 319.525C89.5181 313.608 62.68 309.434 39.6214 288.601C-12.7747 241.263 -10.2263 142.512 29.8107 81.3417C34.5579 74.0875 74.5341 14.8303 138.41 6.48062C139.973 6.2764 141.138 6.15991 142.159 6.05179C144.655 5.78754 150.431 5.23737 158.469 5.23737C171.55 5.23737 190.634 6.69321 211.371 13.2038C203.52 21.9703 196.437 34.4785 192.092 47.5274C186.182 46.4811 180.146 45.8241 174.013 45.5839L171.516 36.8065C171.265 35.9236 170.492 35.4864 169.72 35.4864C168.933 35.4864 168.145 35.9429 167.911 36.8474L165.672 45.5178C131.92 46.3298 101.581 60.3961 80.0573 82.5213C68.1652 82.5213 51.3364 82.7855 36.9894 83.994C34.4773 84.2054 32.5234 86.2643 32.4323 88.7844L31.9073 96.9455C30.7501 99.8056 29.6848 103.398 29.0173 107.814C29.7093 108.329 30.4082 108.816 31.114 109.277L30.7118 115.532C30.5839 119.07 33.3811 122.026 36.9206 122.093L54.5444 122.427C54.4859 122.582 54.4278 122.736 54.37 122.891C50.9346 123.098 47.5492 123.337 44.2592 123.615C40.9036 123.898 38.2935 126.648 38.1717 130.014L35.8734 165.744C35.7027 170.47 39.4391 174.418 44.1675 174.508L47.8321 174.578C54.0568 233.637 105.821 279.725 168.755 279.725C193.507 279.725 216.943 272.284 236.665 259.647C241.204 267.737 247.531 274.022 254.72 276.156C253.633 278.329 252.521 280.415 251.388 282.397L252.594 283.085C253.786 281.001 254.953 278.804 256.094 276.511C256.236 276.542 256.379 276.571 256.521 276.598C257.763 276.842 259.025 276.96 260.305 276.96C280.674 276.96 304.895 247.12 309.337 218.774C313.216 194.029 299.283 187.899 303.537 162.347C305.735 149.146 311.031 141.309 316.559 134.359C327.292 186.013 317.059 243.124 282.043 279.217C273.698 287.819 266.23 292.876 260.514 296.694C227.992 318.408 192.748 323.809 165.118 323.809ZM262.4 84.669C259.907 82.06 257.29 79.5579 254.557 77.1699C256.072 74.7134 257.454 71.9397 258.569 68.682C261.75 59.3846 261.86 48.7202 259.924 38.6468C261.022 39.5141 262.115 40.403 263.203 41.3147C265.74 43.4409 268.826 46.1724 272.228 49.549C267.512 60.5486 264.347 74.2653 262.4 84.669Z" fill="white"/>
</mask>
<g mask="url(#mask0_412_6711)">
<path d="M165.118 323.809C145.376 323.809 129.523 321.054 121.312 319.525C89.5179 313.608 62.6799 309.434 39.6216 288.601C-12.7746 241.263 -10.2263 142.512 29.8108 81.3414C34.5579 74.0872 74.5342 14.8312 138.41 6.48135C139.973 6.27722 141.138 6.15991 142.159 6.052C144.655 5.7869 150.431 5.23788 158.469 5.23788C171.55 5.23788 190.634 6.69247 211.372 13.2053C203.519 21.9704 196.436 34.4799 192.091 47.5267C186.181 46.4804 180.147 45.8235 174.013 45.5841L171.516 36.8073C171.265 35.9251 170.492 35.4864 169.72 35.4864C168.933 35.4864 168.145 35.9416 167.911 36.8472L165.672 45.5185C131.92 46.3302 101.581 60.3976 80.0572 82.5215C68.1652 82.5215 51.3364 82.7866 36.9894 83.9949C34.4775 84.206 32.5234 86.2635 32.4323 88.7856L31.9073 96.9454C30.7502 99.8054 29.6848 103.4 29.0173 107.815C29.7094 108.329 30.4083 108.817 31.114 109.277L30.7117 115.531C30.5841 119.069 33.3811 122.025 36.9207 122.094L54.5443 122.427C54.4859 122.582 54.4277 122.736 54.37 122.891C50.9346 123.098 47.5493 123.337 44.2591 123.616C40.9037 123.898 38.2934 126.647 38.1717 130.014L35.8734 165.744C35.7028 170.47 39.439 174.418 44.1676 174.508L47.832 174.578C54.0568 233.637 105.821 279.725 168.755 279.725C193.508 279.725 216.944 272.284 236.665 259.647C241.205 267.737 247.53 274.022 254.721 276.156C253.632 278.329 252.52 280.415 251.387 282.397L252.593 283.085C253.785 281.001 254.953 278.804 256.093 276.511C256.237 276.542 256.38 276.571 256.52 276.598C257.764 276.842 259.026 276.96 260.305 276.96C280.674 276.96 304.895 247.121 309.336 218.774C313.217 194.029 299.283 187.899 303.537 162.347C305.735 149.147 311.03 141.308 316.558 134.359C327.291 186.013 317.057 243.124 282.044 279.217C273.699 287.819 266.231 292.876 260.514 296.694C227.992 318.408 192.748 323.809 165.118 323.809ZM262.4 84.6682C259.906 82.0593 257.29 79.5583 254.557 77.17C256.072 74.7136 257.454 71.9405 258.569 68.6817C261.75 59.3864 261.86 48.7209 259.925 38.6467C261.023 39.5147 262.116 40.4039 263.202 41.3142C265.741 43.4398 268.826 46.173 272.228 49.5491C267.512 60.55 264.347 74.2655 262.4 84.6682Z" fill="url(#paint0_linear_412_6711)"/>
</g>
<path d="M256.521 276.598C240.5 273.467 228.239 249.549 229.404 229.413C230.602 208.691 245.222 205.818 255.492 180.606C267.16 151.964 254.059 141.531 260.081 98.9318C261.439 89.3194 269.303 33.6985 289.111 30.8173C307.426 28.1539 338.481 70.2085 332.544 105.232C328.309 130.207 308.385 133.224 303.537 162.347C299.283 187.899 313.215 194.029 309.336 218.774C304.615 248.901 277.555 280.711 256.521 276.598Z" fill="#BDD0FB"/>
<mask id="mask1_412_6711" style="mask-type:luminance" maskUnits="userSpaceOnUse" x="251" y="276" width="6" height="8">
<path d="M252.594 283.084L251.388 282.396C252.521 280.414 253.633 278.329 254.72 276.156C255.176 276.29 255.633 276.409 256.095 276.51C254.953 278.803 253.786 281 252.594 283.084Z" fill="white"/>
</mask>
<g mask="url(#mask1_412_6711)">
<path d="M252.594 283.084L251.387 282.396C252.521 280.414 253.633 278.329 254.721 276.156C255.175 276.29 255.633 276.409 256.094 276.51C254.953 278.803 253.786 281 252.594 283.084Z" fill="url(#paint1_linear_412_6711)"/>
</g>
<path d="M256.095 276.51C255.635 276.409 255.177 276.29 254.721 276.156C262.014 261.586 268.29 242.986 273.553 223.707C274.36 222.511 275.142 221.297 275.905 220.073L275.962 220.085C270.496 240.733 263.875 260.885 256.095 276.51ZM291.929 143.078C291.707 141.707 291.456 140.342 291.184 138.988C295.609 111.178 297.77 90.9055 297.798 90.6439L299.178 90.7899C299.15 91.0624 296.782 113.26 291.929 143.078Z" fill="#D8E3FC"/>
<path d="M184.091 214.567C156.861 206.606 139.653 164.127 150.834 146.993C158.389 135.416 174.004 142.918 185.123 130.265C199.319 114.111 182.209 92.3848 189.151 58.4273C195.063 29.53 216.923 -1.04367 233.651 1.02144C251.164 3.17955 267.802 41.6894 258.568 68.6813C252.564 86.2372 238.745 89.7832 238.618 105.026C238.471 122.713 257.002 127.089 260.364 143.543C266.402 173.098 220.113 225.101 184.091 214.567Z" fill="#91B3FA"/>
<mask id="mask2_412_6711" style="mask-type:luminance" maskUnits="userSpaceOnUse" x="198" y="66" width="17" height="158">
<path d="M199.65 223.233C199.504 223.261 199.348 223.259 199.193 223.218C198.645 223.075 198.317 222.516 198.461 221.968C217.801 148.06 211.878 67.9489 211.815 67.1476C211.772 66.5843 212.195 66.0906 212.758 66.0473C213.323 66.0041 213.815 66.4257 213.858 66.9903C213.921 67.7939 219.871 148.25 200.443 222.487C200.341 222.879 200.024 223.158 199.65 223.233Z" fill="white"/>
</mask>
<g mask="url(#mask2_412_6711)">
<path d="M199.651 223.232C199.505 223.26 199.35 223.258 199.194 223.217C198.645 223.074 198.318 222.515 198.462 221.967C217.802 148.06 211.879 67.9481 211.816 67.147C211.772 66.5827 212.196 66.0894 212.759 66.046C213.323 66.0026 213.816 66.4248 213.86 66.9891C213.921 67.7922 219.872 148.249 200.445 222.486C200.342 222.879 200.024 223.157 199.651 223.232Z" fill="url(#paint2_linear_412_6711)"/>
</g>
<path d="M246.769 70.9009C246.492 70.6962 246.22 70.4961 245.941 70.2914C251.219 56.4482 254.303 39.8786 248.106 25.3468C243.338 14.1624 235.224 9.44486 235.142 9.40067C234.907 9.26575 234.826 8.96797 234.959 8.7307C235.049 8.57252 235.214 8.48413 235.384 8.48413C235.466 8.48413 235.549 8.50506 235.626 8.54926C235.97 8.74466 244.11 13.4785 249.009 24.963C252.884 34.0515 255.204 49.009 246.769 70.9009Z" fill="#BAD1FB"/>
<path d="M180.697 209.122C180.544 209.153 180.379 209.11 180.259 208.991C159.792 188.98 150.83 172.156 153.619 158.991C156.1 147.285 167.368 142.963 167.481 142.921C167.736 142.827 168.016 142.957 168.11 143.209C168.206 143.461 168.077 143.744 167.823 143.838C167.715 143.88 156.937 148.029 154.576 159.205C151.868 172.021 160.74 188.535 180.944 208.291C181.137 208.481 181.14 208.791 180.953 208.985C180.88 209.057 180.79 209.104 180.697 209.122Z" fill="#F0F0F0"/>
<mask id="mask3_412_6711" style="mask-type:luminance" maskUnits="userSpaceOnUse" x="47" y="45" width="247" height="235">
<path d="M168.755 279.725C105.821 279.725 54.0567 233.636 47.832 174.577L64.5075 174.894C70.8018 225.091 115.165 263.984 168.958 263.984C205.864 263.984 239.384 244.872 258.931 216.581L275.904 220.073C275.142 221.297 274.358 222.511 273.553 223.707C263.971 237.951 251.348 250.237 236.665 259.646C216.943 272.283 193.507 279.725 168.755 279.725ZM280.665 211.69L267.89 200.853C273.59 188.413 276.776 174.791 276.776 160.619C276.776 141.027 270.692 122.978 260.288 107.788C255.657 100.823 250.017 94.4945 243.566 88.9461C226.197 73.6342 203.402 63.6809 178.576 61.6184L175.864 52.0879C210.956 54.0507 243.705 70.6011 264.523 97.2008C264.689 97.4122 264.94 97.5228 265.195 97.5228C265.37 97.5228 265.548 97.4699 265.699 97.3606C266.069 97.0915 266.144 96.5834 265.865 96.2278C244.637 69.1044 211.192 52.2849 175.397 50.4422L174.013 45.5833C180.146 45.8236 186.182 46.4806 192.092 47.5269C211.992 51.0513 230.416 58.9949 245.941 70.2924C246.218 70.4954 246.492 70.696 246.768 70.9002C249.457 72.8918 252.054 74.9819 254.557 77.1693C257.29 79.5574 259.907 82.0595 262.4 84.6685C276.754 99.6958 286.975 118.274 291.182 138.988C291.456 140.343 291.706 141.707 291.929 143.079C292.841 148.687 293.313 154.436 293.313 160.312C293.313 178.566 288.74 196.027 280.665 211.69ZM54.3699 122.89C54.4277 122.735 54.4858 122.581 54.5443 122.426L60.729 122.544C58.6 122.649 56.4748 122.763 54.3699 122.89ZM96.4863 89.1046C96.1079 89.0842 95.7319 89.065 95.3595 89.0482C95.2802 85.483 92.3901 82.606 88.8057 82.5664C86.4153 82.5412 83.4675 82.5208 80.1305 82.5208C80.1065 82.5208 80.0812 82.5208 80.0572 82.5208C101.581 60.3955 131.92 46.3293 165.672 45.5173L164.424 50.351C149.655 50.8747 135.362 54.0315 121.878 59.7541C121.454 59.9343 121.261 60.4136 121.448 60.8208C121.586 61.1247 121.894 61.3048 122.218 61.3048C122.33 61.3048 122.445 61.282 122.555 61.2364C135.696 55.6567 149.617 52.5528 164.001 51.9858L161.551 61.4682C136.4 63.1535 113.682 73.3567 96.4863 89.1046Z" fill="white"/>
</mask>
<g mask="url(#mask3_412_6711)">
<path d="M168.756 279.724C105.822 279.724 54.0574 233.636 47.8328 174.577L64.5082 174.894C70.8026 225.09 115.166 263.984 168.96 263.984C205.865 263.984 239.385 244.872 258.931 216.581L275.906 220.073C275.143 221.297 274.36 222.51 273.554 223.707C263.972 237.951 251.349 250.237 236.666 259.646C216.944 272.283 193.508 279.724 168.756 279.724ZM280.666 211.69L267.891 200.852C273.592 188.412 276.776 174.791 276.776 160.618C276.776 141.027 270.693 122.977 260.29 107.788C255.659 100.822 250.02 94.4943 243.568 88.9453C226.198 73.6339 203.404 63.6808 178.577 61.6181L175.864 52.0873C210.957 54.0492 243.707 70.5999 264.525 97.2002C264.69 97.4125 264.941 97.5219 265.196 97.5219C265.372 97.5219 265.55 97.4683 265.7 97.3589C266.071 97.0909 266.146 96.5827 265.867 96.2268C244.638 69.1033 211.193 52.2846 175.397 50.4428L174.014 45.582C180.148 45.8221 186.184 46.4783 192.093 47.5267C211.993 51.0496 230.418 58.9936 245.941 70.2912C246.22 70.4949 246.492 70.6943 246.769 70.9001C249.458 72.892 252.054 74.9804 254.559 77.1696C257.29 79.556 259.908 82.0583 262.4 84.6677C276.755 99.696 286.976 118.273 291.183 138.988C291.457 140.343 291.706 141.706 291.931 143.079C292.843 148.688 293.314 154.436 293.314 160.311C293.314 178.566 288.741 196.027 280.666 211.69ZM54.3705 122.889C54.4284 122.735 54.4865 122.581 54.545 122.426L60.7298 122.544C58.6007 122.647 56.4754 122.763 54.3705 122.889ZM96.4871 89.1039C96.1087 89.0825 95.7326 89.0654 95.3604 89.0482C95.2811 85.4825 92.391 82.605 88.8064 82.5664C86.4161 82.5407 83.4683 82.5193 80.1314 82.5193C80.1071 82.5193 80.0821 82.5193 80.058 82.5193C101.581 60.3959 131.921 46.3282 165.673 45.5177L164.425 50.3506C149.655 50.8737 135.363 54.03 121.878 59.7548C121.454 59.9349 121.262 60.4131 121.448 60.8205C121.587 61.1228 121.895 61.3029 122.218 61.3029C122.331 61.3029 122.446 61.2814 122.556 61.2364C135.697 55.6552 149.618 52.5526 164.001 51.9844L161.552 61.468C136.401 63.1533 113.683 73.3552 96.4871 89.1039Z" fill="url(#paint3_linear_412_6711)"/>
</g>
<path d="M283.77 134.124C283.841 134.124 283.914 134.116 283.986 134.097C284.435 133.982 284.701 133.541 284.584 133.108C283.275 128.375 281.604 123.68 279.617 119.154C279.435 118.742 278.939 118.556 278.515 118.724C278.09 118.899 277.889 119.374 278.069 119.786C280.029 124.24 281.673 128.862 282.959 133.524C283.059 133.886 283.4 134.124 283.77 134.124Z" fill="#BDD0FB"/>
<path d="M265.196 97.5234C265.372 97.5234 265.55 97.4696 265.701 97.3599C266.069 97.0909 266.144 96.5837 265.867 96.2277C243.345 67.4509 207.069 50.2734 168.829 50.2734C152.496 50.2734 136.7 53.465 121.878 59.7553C121.454 59.9353 121.262 60.4135 121.448 60.8212C121.634 61.229 122.13 61.4153 122.555 61.2352C137.162 55.034 152.732 51.8899 168.829 51.8899C206.545 51.8899 242.32 68.8294 264.523 97.2006C264.691 97.4117 264.941 97.5234 265.196 97.5234Z" fill="#BDD0FB"/>
<path d="M63.7421 162.601C63.7421 218.594 110.85 263.984 168.959 263.984C227.068 263.984 276.777 216.611 276.777 160.618C276.777 104.628 227.068 61.2205 168.959 61.2205C110.85 61.2205 63.7421 106.611 63.7421 162.601Z" fill="#BDD0FB"/>
<path d="M63.7424 162.602C63.7424 106.611 110.85 61.2206 168.958 61.2206C200.424 61.2206 229.422 73.9535 249.403 94.5149L168.353 159.496L151.691 262.618C101.797 254.679 63.7424 212.926 63.7424 162.602Z" fill="#BDD0FB"/>
<path d="M78.0632 155.555C78.0632 206.087 121.459 247.051 174.99 247.051C228.522 247.051 274.316 204.297 274.316 153.766C274.316 103.235 228.522 64.0596 174.99 64.0596C121.459 64.0596 78.0632 105.023 78.0632 155.555Z" fill="#91B3FA"/>
<mask id="mask4_412_6711" style="mask-type:luminance" maskUnits="userSpaceOnUse" x="249" y="149" width="18" height="16">
<path d="M249.888 157.345C250.147 161.648 253.979 164.934 258.445 164.683C262.911 164.432 266.322 160.741 266.061 156.438C265.802 152.134 261.97 148.849 257.504 149.099C253.037 149.35 249.627 153.041 249.888 157.345Z" fill="white"/>
</mask>
<g mask="url(#mask4_412_6711)">
<path d="M249.888 157.345C250.147 161.649 253.979 164.935 258.445 164.684C262.911 164.433 266.322 160.742 266.061 156.437C265.802 152.135 261.97 148.849 257.504 149.099C253.038 149.35 249.628 153.041 249.888 157.345Z" fill="url(#paint4_linear_412_6711)"/>
</g>
<mask id="mask5_412_6711" style="mask-type:luminance" maskUnits="userSpaceOnUse" x="178" y="237" width="17" height="16">
<path d="M184.765 237.203C180.364 237.978 177.448 242.043 178.252 246.284C179.056 250.524 183.275 253.334 187.676 252.559C192.077 251.784 194.992 247.72 194.189 243.479C193.385 239.238 189.166 236.428 184.765 237.203Z" fill="white"/>
</mask>
<g mask="url(#mask5_412_6711)">
<path d="M184.765 237.203C180.365 237.977 177.449 242.042 178.253 246.284C179.057 250.524 183.276 253.334 187.676 252.559C192.078 251.784 194.993 247.719 194.189 243.479C193.386 239.238 189.167 236.428 184.765 237.203Z" fill="url(#paint5_linear_412_6711)"/>
</g>
<mask id="mask6_412_6711" style="mask-type:luminance" maskUnits="userSpaceOnUse" x="146" y="70" width="17" height="17">
<path d="M153.267 71.0374C148.865 71.8122 145.95 75.8771 146.754 80.1186C147.557 84.3589 151.776 87.1685 156.177 86.3938C160.579 85.619 163.495 81.554 162.692 77.3137C161.887 73.0722 157.668 70.2626 153.267 71.0374Z" fill="white"/>
</mask>
<g mask="url(#mask6_412_6711)">
<path d="M153.267 71.0369C148.866 71.8122 145.951 75.8775 146.755 80.1196C147.558 84.3597 151.777 87.1697 156.178 86.3943C160.58 85.619 163.496 81.5537 162.692 77.3135C161.887 73.0734 157.669 70.2635 153.267 71.0369Z" fill="url(#paint6_linear_412_6711)"/>
</g>
<path d="M127.953 245.894C127.844 245.894 127.737 245.879 127.635 245.849C126.558 245.539 126.352 243.665 127.175 241.664C127.92 239.853 129.252 238.559 130.297 238.559C130.406 238.559 130.513 238.572 130.615 238.602C131.693 238.912 131.898 240.787 131.075 242.788C130.331 244.599 128.997 245.894 127.953 245.894Z" fill="#F1F5FE"/>
<mask id="mask7_412_6711" style="mask-type:luminance" maskUnits="userSpaceOnUse" x="197" y="80" width="5" height="9">
<path d="M197.579 84.0561C196.757 86.0573 196.962 87.9312 198.04 88.2411C199.116 88.5523 200.657 87.1805 201.48 85.1805C202.303 83.1792 202.097 81.3053 201.021 80.9942C199.943 80.6843 198.404 82.0549 197.579 84.0561Z" fill="white"/>
</mask>
<g mask="url(#mask7_412_6711)">
<path d="M197.578 84.0575C196.756 86.0577 196.961 87.9318 198.039 88.2423C199.116 88.5528 200.657 87.1811 201.479 85.1809C202.301 83.1788 202.096 81.3066 201.02 80.9942C199.943 80.6857 198.402 82.0555 197.578 84.0575Z" fill="url(#paint7_linear_412_6711)"/>
</g>
<path d="M89.7499 215.925C89.237 215.925 88.8141 215.791 88.5511 215.51C87.7979 214.707 88.6327 213.002 90.4142 211.704C91.5733 210.858 92.849 210.393 93.8064 210.393C94.3193 210.393 94.7409 210.528 95.004 210.809C95.7572 211.612 94.9235 213.317 93.1421 214.615C91.9817 215.46 90.7073 215.925 89.7499 215.925Z" fill="#F1F5FE"/>
<mask id="mask8_412_6711" style="mask-type:luminance" maskUnits="userSpaceOnUse" x="233" y="110" width="8" height="7">
<path d="M235.513 112.23C233.731 113.528 232.898 115.232 233.651 116.036C234.404 116.84 236.459 116.439 238.241 115.142C240.023 113.843 240.857 112.138 240.104 111.334C239.351 110.53 237.295 110.931 235.513 112.23Z" fill="white"/>
</mask>
<g mask="url(#mask8_412_6711)">
<path d="M235.513 112.229C233.73 113.529 232.897 115.232 233.65 116.038C234.403 116.84 236.459 116.44 238.24 115.142C240.023 113.843 240.857 112.138 240.104 111.334C239.35 110.53 237.294 110.932 235.513 112.229Z" fill="url(#paint8_linear_412_6711)"/>
</g>
<path d="M119.283 89.1286C118.058 87.3285 116.348 86.4118 115.466 87.0827C114.583 87.7536 114.86 89.7569 116.085 91.5551C117.311 93.3552 119.02 94.2719 119.903 93.601C120.786 92.9302 120.508 90.9286 119.283 89.1286Z" fill="#91B3FA"/>
<mask id="mask9_412_6711" style="mask-type:luminance" maskUnits="userSpaceOnUse" x="208" y="233" width="6" height="7">
<path d="M212.57 235.288C211.344 233.489 209.635 232.572 208.752 233.243C207.869 233.913 208.147 235.915 209.372 237.716C210.597 239.517 212.306 240.432 213.189 239.762C214.072 239.091 213.795 237.089 212.57 235.288Z" fill="white"/>
</mask>
<g mask="url(#mask9_412_6711)">
<path d="M212.568 235.289C211.343 233.489 209.634 232.573 208.75 233.243C207.867 233.914 208.146 235.916 209.371 237.717C210.596 239.517 212.305 240.433 213.187 239.762C214.072 239.092 213.793 237.09 212.568 235.289Z" fill="url(#paint9_linear_412_6711)"/>
</g>
<mask id="mask10_412_6711" style="mask-type:luminance" maskUnits="userSpaceOnUse" x="169" y="159" width="122" height="64">
<path d="M288.688 222.661C288.553 222.661 288.413 222.648 288.269 222.618L275.961 220.086L275.904 220.074L258.931 216.582L249.446 214.631L227.67 210.151C226.22 209.852 225.695 208.121 226.751 207.118L233.846 200.376C234.722 199.543 234.534 198.134 233.467 197.542L170.474 162.623C169.596 162.137 169.283 161.065 169.768 160.209C170.104 159.613 170.743 159.272 171.404 159.272C171.684 159.272 171.967 159.333 172.234 159.462L237.307 190.733C237.58 190.864 237.862 190.924 238.138 190.924C239.136 190.924 240.034 190.136 240.001 189.073L239.745 181.001C239.711 179.903 240.638 179.147 241.619 179.147C242.04 179.147 242.47 179.288 242.838 179.599L262.794 196.529L267.89 200.853L280.665 211.691L289.888 219.515C291.217 220.643 290.31 222.661 288.688 222.661ZM235.902 207.998C235.488 207.998 235.118 208.31 235.073 208.725C235.028 209.164 235.354 209.556 235.805 209.61C236.768 209.758 261.391 214.915 282.216 219.291C282.336 219.316 282.455 219.329 282.572 219.329C283.177 219.329 283.725 219.004 284.001 218.456C284.332 217.8 284.161 217.05 283.578 216.586L273.283 208.384C273.127 208.26 272.938 208.199 272.749 208.199C272.507 208.199 272.267 208.3 272.102 208.493C271.805 208.838 271.857 209.346 272.214 209.632L282.509 217.834C268.791 214.815 236.66 208.068 235.995 208.003C235.963 207.999 235.933 207.998 235.902 207.998Z" fill="white"/>
</mask>
<g mask="url(#mask10_412_6711)">
<path d="M288.689 222.661C288.553 222.661 288.415 222.648 288.27 222.618L275.963 220.086L275.905 220.074L258.931 216.582L249.446 214.631L227.671 210.151C226.22 209.851 225.697 208.121 226.752 207.117L233.846 200.376C234.722 199.543 234.535 198.134 233.467 197.541L170.475 162.624C169.596 162.137 169.284 161.065 169.769 160.208C170.105 159.612 170.743 159.272 171.404 159.272C171.685 159.272 171.968 159.334 172.234 159.461L237.309 190.733C237.581 190.864 237.864 190.924 238.138 190.924C239.136 190.924 240.036 190.136 240.002 189.073L239.746 181.001C239.712 179.903 240.64 179.147 241.618 179.147C242.042 179.147 242.471 179.288 242.839 179.599L262.794 196.529L267.89 200.853L280.666 211.691L289.889 219.515C291.218 220.643 290.31 222.661 288.689 222.661ZM235.903 207.998C235.488 207.998 235.118 208.31 235.073 208.725C235.028 209.164 235.354 209.556 235.805 209.61C236.768 209.758 261.392 214.915 282.216 219.291C282.338 219.316 282.457 219.329 282.572 219.329C283.178 219.329 283.725 219.004 284.001 218.456C284.333 217.8 284.163 217.05 283.58 216.586L273.283 208.384C273.127 208.26 272.938 208.199 272.751 208.199C272.508 208.199 272.268 208.3 272.102 208.493C271.806 208.838 271.857 209.346 272.215 209.632L282.51 217.834C268.792 214.815 236.66 208.068 235.994 208.003C235.964 207.999 235.935 207.998 235.903 207.998Z" fill="url(#paint10_linear_412_6711)"/>
</g>
<mask id="mask11_412_6711" style="mask-type:luminance" maskUnits="userSpaceOnUse" x="235" y="207" width="50" height="13">
<path d="M282.572 219.329C282.455 219.329 282.336 219.316 282.216 219.29C261.391 214.914 236.768 209.758 235.805 209.61C235.354 209.556 235.028 209.164 235.073 208.725C235.118 208.31 235.488 207.998 235.902 207.998C235.933 207.998 235.963 207.999 235.995 208.003C236.66 208.067 268.791 214.815 282.509 217.833L272.214 209.631C271.857 209.346 271.805 208.837 272.102 208.493C272.267 208.299 272.507 208.198 272.749 208.198C272.938 208.198 273.127 208.26 273.283 208.383L283.578 216.585C284.161 217.05 284.332 217.8 284.001 218.456C283.725 219.003 283.177 219.329 282.572 219.329Z" fill="white"/>
</mask>
<g mask="url(#mask11_412_6711)">
<path d="M282.571 219.329C282.456 219.329 282.337 219.316 282.216 219.291C261.39 214.915 236.768 209.758 235.805 209.61C235.354 209.556 235.028 209.165 235.074 208.725C235.118 208.311 235.488 207.998 235.903 207.998C235.932 207.998 235.964 208 235.995 208.003C236.661 208.068 268.792 214.815 282.508 217.834L272.214 209.632C271.857 209.346 271.805 208.838 272.102 208.493C272.267 208.3 272.507 208.199 272.749 208.199C272.939 208.199 273.127 208.26 273.283 208.384L283.577 216.586C284.16 217.051 284.331 217.8 284.001 218.456C283.726 219.004 283.177 219.329 282.571 219.329Z" fill="url(#paint11_linear_412_6711)"/>
</g>
<mask id="mask12_412_6711" style="mask-type:luminance" maskUnits="userSpaceOnUse" x="152" y="35" width="36" height="124">
<path d="M167.31 158.148C167.296 158.148 167.282 158.148 167.269 158.148C166.267 158.128 165.461 157.347 165.446 156.381L165.576 95.0737C165.559 94.0407 164.675 93.3043 163.711 93.3043C163.41 93.3043 163.1 93.3764 162.807 93.5337L155.487 97.4653C155.189 97.6251 154.879 97.6972 154.578 97.6972C153.448 97.6972 152.461 96.6689 152.772 95.4641L160.625 65.0577L161.551 61.4685L164.001 51.986L164.424 50.3512L165.672 45.5175L167.911 36.8471C168.145 35.9426 168.933 35.4861 169.72 35.4861C170.492 35.4861 171.264 35.9233 171.516 36.8062L174.013 45.5835L175.397 50.4425L175.864 52.0881L178.576 61.6186L179.296 64.1436L187.903 94.3878C188.239 95.5722 187.284 96.6593 186.114 96.6593C185.923 96.6593 185.727 96.6305 185.529 96.5692L176.054 93.5998C175.86 93.5397 175.666 93.5109 175.475 93.5109C174.514 93.5109 173.662 94.2388 173.616 95.2274L169.17 156.433C169.126 157.394 168.304 158.148 167.31 158.148ZM169.755 43.9355C173.284 57.0612 181.847 87.6514 182.092 88.2532C182.222 88.5715 182.538 88.7661 182.873 88.7661C182.976 88.7661 183.08 88.7481 183.181 88.7108C183.607 88.5499 183.818 88.0898 183.661 87.6778C183.356 86.7901 176.78 63.3496 171.233 43.5163C171.04 42.828 170.44 42.3703 169.686 42.3703C169.672 42.3703 169.657 42.3715 169.644 42.3715C168.887 42.3907 168.273 42.8808 168.113 43.5943L165.292 56.1759C165.195 56.6119 165.482 57.0432 165.935 57.1357C165.995 57.1489 166.055 57.1549 166.115 57.1549C166.498 57.1549 166.846 56.8954 166.933 56.517L169.755 43.9355Z" fill="white"/>
</mask>
<g mask="url(#mask12_412_6711)">
<path d="M167.309 158.15C167.296 158.15 167.283 158.15 167.27 158.15C166.267 158.128 165.461 157.348 165.446 156.382L165.576 95.0747C165.559 94.0419 164.675 93.3052 163.711 93.3052C163.409 93.3052 163.1 93.3765 162.806 93.5342L155.486 97.4664C155.188 97.6263 154.878 97.6976 154.578 97.6976C153.448 97.6976 152.46 96.6692 152.772 95.4657L160.624 65.0582L161.551 61.4695L164.001 51.9869L164.422 50.3535L165.671 45.5182L167.909 36.848C168.145 35.9427 168.933 35.4868 169.72 35.4868C170.491 35.4868 171.265 35.9254 171.515 36.8069L174.013 45.5852L175.396 50.4443L175.865 52.0885L178.576 61.6208L179.295 64.1443L187.903 94.3876C188.238 95.5738 187.283 96.6605 186.114 96.6605C185.922 96.6605 185.727 96.6303 185.529 96.5698L176.052 93.6012C175.86 93.5407 175.666 93.5126 175.473 93.5126C174.514 93.5126 173.661 94.2385 173.615 95.2281L169.169 156.434C169.126 157.396 168.303 158.15 167.309 158.15ZM169.754 43.9367C173.283 57.062 181.847 87.6532 182.091 88.2538C182.221 88.5714 182.538 88.7659 182.873 88.7659C182.977 88.7659 183.079 88.7486 183.18 88.7119C183.606 88.5498 183.817 88.0896 183.66 87.6791C183.355 86.7911 176.781 63.3514 171.232 43.5176C171.04 42.8284 170.439 42.3725 169.685 42.3725C169.672 42.3725 169.657 42.3725 169.644 42.3725C168.886 42.3919 168.272 42.8824 168.112 43.5953L165.291 56.1762C165.194 56.6126 165.481 57.0426 165.935 57.1376C165.995 57.1506 166.053 57.1549 166.114 57.1549C166.499 57.1549 166.846 56.8957 166.933 56.5176L169.754 43.9367Z" fill="url(#paint12_linear_412_6711)"/>
</g>
<mask id="mask13_412_6711" style="mask-type:luminance" maskUnits="userSpaceOnUse" x="165" y="42" width="19" height="47">
<path d="M182.873 88.7664C182.538 88.7664 182.222 88.5717 182.092 88.2534C181.847 87.6516 173.284 57.0614 169.755 43.9357L166.933 56.5173C166.846 56.8956 166.498 57.1551 166.115 57.1551C166.055 57.1551 165.995 57.1491 165.935 57.1359C165.482 57.0434 165.195 56.6122 165.292 56.1761L168.113 43.5946C168.274 42.8811 168.887 42.3909 169.644 42.3717C169.657 42.3717 169.672 42.3705 169.686 42.3705C170.44 42.3705 171.04 42.8282 171.233 43.5165C176.781 63.3498 183.356 86.7903 183.661 87.678C183.818 88.0901 183.607 88.5501 183.181 88.7111C183.08 88.7483 182.976 88.7664 182.873 88.7664Z" fill="white"/>
</mask>
<g mask="url(#mask13_412_6711)">
<path d="M182.873 88.7661C182.538 88.7661 182.222 88.5712 182.091 88.2535C181.847 87.6519 173.283 57.0613 169.754 43.9342L166.932 56.5169C166.846 56.8961 166.498 57.1546 166.115 57.1546C166.055 57.1546 165.994 57.1482 165.935 57.1355C165.481 57.0423 165.193 56.6123 165.291 56.1759L168.112 43.5931C168.273 42.8814 168.888 42.3899 169.644 42.3709C169.657 42.3709 169.671 42.3709 169.686 42.3709C170.44 42.3709 171.04 42.8284 171.233 43.5169C176.78 63.3485 183.356 86.7897 183.661 87.6773C183.817 88.0904 183.606 88.55 183.18 88.711C183.08 88.747 182.977 88.7661 182.873 88.7661Z" fill="url(#paint13_linear_412_6711)"/>
</g>
<mask id="mask14_412_6711" style="mask-type:luminance" maskUnits="userSpaceOnUse" x="160" y="151" width="19" height="18">
<path d="M160.85 159.668C160.85 164.272 164.723 168.004 169.501 168.004C174.28 168.004 178.152 164.272 178.152 159.668C178.152 155.065 174.28 151.331 169.501 151.331C164.723 151.331 160.85 155.065 160.85 159.668Z" fill="white"/>
</mask>
<g mask="url(#mask14_412_6711)">
<path d="M160.851 159.667C160.851 164.272 164.723 168.004 169.502 168.004C174.281 168.004 178.153 164.272 178.153 159.667C178.153 155.064 174.281 151.331 169.502 151.331C164.723 151.331 160.851 155.064 160.851 159.667Z" fill="url(#paint14_linear_412_6711)"/>
</g>
<mask id="mask15_412_6711" style="mask-type:luminance" maskUnits="userSpaceOnUse" x="79" y="320" width="33" height="4">
<path d="M79.9624 320.377C85.5541 320.861 95.2587 321.645 102.91 321.983C107.51 322.184 110.157 321.734 111.683 321.124C111.679 321.296 111.675 321.458 111.669 321.609C111.633 322.414 110.978 323.058 110.165 323.103C95.708 323.911 84.2099 323.383 80.1162 323.133C79.2705 323.082 78.766 322.163 79.1984 321.441C79.4146 321.081 79.6777 320.726 79.9624 320.377Z" fill="white"/>
</mask>
<g mask="url(#mask15_412_6711)">
<path d="M79.9624 320.377C85.5541 320.861 95.2587 321.645 102.91 321.983C107.51 322.184 110.157 321.734 111.683 321.124C111.679 321.296 111.675 321.458 111.669 321.609C111.633 322.414 110.978 323.058 110.165 323.103C95.708 323.911 84.2099 323.383 80.1162 323.133C79.2705 323.082 78.766 322.163 79.1984 321.441C79.4146 321.081 79.6777 320.726 79.9624 320.377Z" fill="url(#paint15_linear_412_6711)"/>
</g>
<mask id="mask16_412_6711" style="mask-type:luminance" maskUnits="userSpaceOnUse" x="79" y="309" width="33" height="14">
<path d="M102.91 321.982C95.2586 321.645 85.554 320.86 79.9623 320.376C85.4603 313.632 102.91 309.085 102.91 309.085H107.839C111.229 313.972 111.719 318.624 111.683 321.124C110.157 321.734 107.51 322.184 102.91 321.982Z" fill="white"/>
</mask>
<g mask="url(#mask16_412_6711)">
<path d="M102.91 321.982C95.2586 321.645 85.554 320.86 79.9623 320.376C85.4603 313.632 102.91 309.085 102.91 309.085H107.839C111.229 313.972 111.719 318.624 111.683 321.124C110.157 321.734 107.51 322.184 102.91 321.982Z" fill="url(#paint16_linear_412_6711)"/>
</g>
<mask id="mask17_412_6711" style="mask-type:luminance" maskUnits="userSpaceOnUse" x="99" y="301" width="10" height="12">
<path d="M108.669 301.039L108.208 310.166C108.157 311.155 107.417 311.985 106.428 312.126C105.443 312.267 104.125 312.285 102.726 311.819C101.865 311.533 101.226 310.808 101.068 309.923L99.4738 301.039H108.669Z" fill="white"/>
</mask>
<g mask="url(#mask17_412_6711)">
<path d="M108.669 301.039L108.208 310.166C108.157 311.155 107.417 311.985 106.428 312.126C105.443 312.267 104.125 312.285 102.726 311.819C101.865 311.533 101.226 310.808 101.068 309.923L99.4738 301.039H108.669Z" fill="url(#paint17_linear_412_6711)"/>
</g>
<mask id="mask18_412_6711" style="mask-type:luminance" maskUnits="userSpaceOnUse" x="157" y="327" width="13" height="6">
<path d="M165.871 330.905C168.295 330.468 169.393 328.84 169.853 327.1C169.856 327.115 169.859 327.131 169.862 327.147C170.218 328.982 169.392 330.885 167.738 331.79C165.74 332.885 163.554 333.071 161.858 332.98C160.038 332.884 158.367 331.909 157.449 330.351L157.435 330.329C159.262 331.496 161.827 331.634 165.871 330.905Z" fill="white"/>
</mask>
<g mask="url(#mask18_412_6711)">
<path d="M165.872 330.905C168.296 330.468 169.394 328.84 169.853 327.1C169.856 327.115 169.86 327.131 169.863 327.147C170.22 328.982 169.393 330.885 167.739 331.791C165.741 332.885 163.555 333.071 161.858 332.98C160.038 332.884 158.368 331.909 157.451 330.351L157.436 330.329C159.263 331.496 161.828 331.634 165.872 330.905Z" fill="url(#paint18_linear_412_6711)"/>
</g>
<mask id="mask19_412_6711" style="mask-type:luminance" maskUnits="userSpaceOnUse" x="151" y="303" width="19" height="29">
<path d="M154.437 303.851H158.502C164.693 303.688 168.58 320.564 169.853 327.1C169.393 328.84 168.295 330.468 165.871 330.905C161.827 331.634 159.262 331.496 157.435 330.329C154.091 324.64 152.432 316.309 151.635 311.447C150.728 305.917 154.437 303.851 154.437 303.851Z" fill="white"/>
</mask>
<g mask="url(#mask19_412_6711)">
<path d="M154.437 303.851H158.502C164.694 303.688 168.581 320.564 169.854 327.1C169.393 328.84 168.296 330.468 165.871 330.905C161.827 331.634 159.262 331.496 157.435 330.329C154.091 324.64 152.432 316.309 151.636 311.447C150.729 305.917 154.437 303.851 154.437 303.851Z" fill="url(#paint19_linear_412_6711)"/>
</g>
<mask id="mask20_412_6711" style="mask-type:luminance" maskUnits="userSpaceOnUse" x="149" y="295" width="12" height="14">
<path d="M157.979 295.38L160.236 304.357C160.512 305.457 159.986 306.596 158.969 307.118C157.706 307.766 155.929 308.446 154.295 308.249C153.526 308.157 152.888 307.616 152.635 306.892L149.321 297.448L157.979 295.38Z" fill="white"/>
</mask>
<g mask="url(#mask20_412_6711)">
<path d="M157.98 295.38L160.237 304.357C160.513 305.457 159.987 306.596 158.97 307.117C157.707 307.766 155.93 308.446 154.296 308.249C153.527 308.156 152.89 307.616 152.636 306.891L149.322 297.447L157.98 295.38Z" fill="url(#paint20_linear_412_6711)"/>
</g>
<mask id="mask21_412_6711" style="mask-type:luminance" maskUnits="userSpaceOnUse" x="78" y="174" width="82" height="132">
<path d="M78.5858 177.154C78.5858 177.154 98.7542 303.228 98.4227 303.92C98.4227 303.92 103.993 306.452 110.066 304.243C110.066 304.243 108.241 236.847 103.967 211.007C103.967 211.007 138.39 271.244 149.321 301.26C149.321 301.26 155.022 300.58 159.741 297.474C159.741 297.474 122.679 189.049 112.79 174.606L78.5858 177.154Z" fill="white"/>
</mask>
<g mask="url(#mask21_412_6711)">
<path d="M78.5864 177.152C78.5864 177.152 98.7548 303.227 98.4236 303.919C98.4236 303.919 103.994 306.451 110.066 304.242C110.066 304.242 108.242 236.847 103.969 211.006C103.969 211.006 138.391 271.243 149.322 301.259C149.322 301.259 155.022 300.58 159.742 297.473C159.742 297.473 122.68 189.047 112.791 174.605L78.5864 177.152Z" fill="url(#paint21_linear_412_6711)"/>
</g>
<mask id="mask22_412_6711" style="mask-type:luminance" maskUnits="userSpaceOnUse" x="29" y="89" width="101" height="92">
<path d="M89.8172 180.657C86.521 180.657 83.7198 180.539 81.6838 180.414C80.7852 180.36 80.0357 180.304 79.4567 180.256C78.6423 180.189 77.966 179.606 77.7786 178.818C77.4831 177.573 77.1996 176.343 76.9281 175.13L113.771 175.831C113.824 175.832 113.878 175.832 113.932 175.832C114.073 175.832 114.214 175.828 114.353 175.822C114.434 176.03 114.519 176.237 114.606 176.443L114.739 176.758C115.002 177.374 114.64 178.083 113.982 178.231C105.369 180.164 96.556 180.657 89.8172 180.657ZM120.365 125.124C118.765 123.069 116.28 121.74 113.476 121.71C110.286 121.675 106.348 121.647 101.892 121.647C99.135 121.647 96.18 121.658 93.0749 121.683C94.4695 120.544 95.3608 118.811 95.3608 116.865V89.1999C95.3608 89.1482 95.3608 89.099 95.3596 89.0485C95.732 89.0654 96.108 89.0846 96.4864 89.105C99.9302 89.2876 103.59 89.5783 107.355 90.0167C114.705 90.8732 122.447 92.299 129.718 94.6102C127.108 104.187 123.409 113.683 122.425 123.338C122.14 122.814 121.845 122.286 121.529 121.752C121.126 122.841 120.738 123.967 120.365 125.124ZM31.1141 109.277C30.4082 108.816 29.7094 108.329 29.0173 107.814C29.6849 103.398 30.7501 99.8054 31.9073 96.9453L31.1141 109.277Z" fill="white"/>
</mask>
<g mask="url(#mask22_412_6711)">
<path d="M89.8167 180.657C86.5205 180.657 83.7192 180.54 81.6832 180.415C80.7846 180.36 80.0352 180.304 79.4561 180.256C78.6418 180.188 77.9655 179.606 77.7781 178.818C77.4826 177.574 77.1992 176.343 76.9277 175.13L113.77 175.83C113.823 175.832 113.877 175.832 113.931 175.832C114.073 175.832 114.213 175.828 114.353 175.823C114.433 176.03 114.518 176.237 114.605 176.444L114.738 176.759C115.001 177.374 114.64 178.083 113.981 178.232C105.369 180.164 96.5555 180.657 89.8167 180.657ZM120.365 125.124C118.765 123.07 116.279 121.74 113.476 121.711C110.285 121.676 106.348 121.649 101.891 121.649C99.1345 121.649 96.1795 121.658 93.0744 121.683C94.4689 120.546 95.3603 118.811 95.3603 116.865V89.2013C95.3603 89.1481 95.3603 89.1005 95.359 89.0492C95.7315 89.0657 96.1074 89.0858 96.4858 89.106C99.9297 89.2874 103.59 89.5786 107.354 90.0165C114.705 90.8738 122.446 92.2991 129.717 94.611C127.107 104.188 123.409 113.683 122.425 123.339C122.139 122.814 121.845 122.286 121.529 121.753C121.125 122.841 120.737 123.968 120.365 125.124ZM31.1136 109.278C30.4078 108.816 29.7089 108.33 29.0169 107.814C29.6845 103.399 30.7498 99.8064 31.907 96.9467L31.1136 109.278Z" fill="url(#paint22_linear_412_6711)"/>
</g>
<mask id="mask23_412_6711" style="mask-type:luminance" maskUnits="userSpaceOnUse" x="93" y="71" width="19" height="25">
<path d="M108.584 71.5937C108.584 71.5937 110.07 87.3033 111.378 91.9496C111.576 92.6547 111.27 93.3982 110.63 93.7634C108.41 95.0319 103.085 97.1016 95.8005 93.5316C94.6209 92.9538 93.911 91.7237 93.9663 90.4216L94.6077 75.2418L108.584 71.5937Z" fill="white"/>
</mask>
<g mask="url(#mask23_412_6711)">
<path d="M108.584 71.5939C108.584 71.5939 110.07 87.3039 111.378 91.9499C111.576 92.6557 111.27 93.3983 110.629 93.7628C108.41 95.0329 103.085 97.1019 95.8006 93.5321C94.6209 92.9543 93.911 91.723 93.9663 90.4219L94.6077 75.2412L108.584 71.5939Z" fill="url(#paint23_linear_412_6711)"/>
</g>
<mask id="mask24_412_6711" style="mask-type:luminance" maskUnits="userSpaceOnUse" x="88" y="51" width="26" height="28">
<path d="M94.287 51.4973C94.287 51.4973 89.5349 62.414 89.2166 68.1426C88.8971 73.8724 87.6622 77.5901 94.287 78.7445C100.912 79.8977 106.493 76.5979 109.516 70.8898C109.516 70.8898 114.254 62.0956 113.191 58.4944C112.129 54.8931 94.287 51.4973 94.287 51.4973Z" fill="white"/>
</mask>
<g mask="url(#mask24_412_6711)">
<path d="M94.2873 51.4967C94.2873 51.4967 89.5352 62.4126 89.2168 68.1417C88.8974 73.8709 87.6625 77.5892 94.2873 78.7441C100.912 79.897 106.493 76.5973 109.516 70.8888C109.516 70.8888 114.254 62.095 113.191 58.4942C112.129 54.8913 94.2873 51.4967 94.2873 51.4967Z" fill="url(#paint24_linear_412_6711)"/>
</g>
<mask id="mask25_412_6711" style="mask-type:luminance" maskUnits="userSpaceOnUse" x="92" y="43" width="30" height="30">
<path d="M107.253 66.7864L106.876 66.6207C106.395 66.4093 106.19 65.8375 106.431 65.3714C107.366 63.566 109.187 59.4302 106.834 58.4656C104.617 57.5563 102.219 57.0458 99.9398 56.3166C97.8245 55.6391 93.7151 54.9304 92.6124 52.6986C92.2929 52.0535 92.6424 51.2919 92.9872 50.6601C93.631 49.4757 94.2749 48.2925 94.9187 47.1081C95.4629 46.1087 96.0263 45.0841 96.8935 44.3453C98.8792 42.6552 101.248 44.1387 103.445 44.5435C111.618 46.0522 117.021 49.3604 117.156 55.0073C117.164 55.3665 117.546 55.5659 117.852 55.3785C118.457 55.0109 119.422 54.8391 120.712 55.9238C122.956 57.8109 122.039 62.7071 117.118 66.7336C116.884 66.9258 116.887 67.2897 117.139 67.4555C118.031 68.0357 119.361 69.4171 115.916 71.2598C112.352 73.1637 109.69 73.0076 108.665 72.8394C108.411 72.7961 108.246 72.5499 108.302 72.2976L109.396 67.3342C109.458 67.0531 109.243 66.7864 108.956 66.7864H107.253Z" fill="white"/>
</mask>
<g mask="url(#mask25_412_6711)">
<path d="M107.252 66.7875L106.875 66.6208C106.395 66.4097 106.189 65.8376 106.431 65.371C107.365 63.5661 109.186 59.4305 106.833 58.4658C104.617 57.5559 102.218 57.0472 99.9395 56.3168C97.824 55.6391 93.7146 54.9319 92.612 52.6984C92.2924 52.0546 92.642 51.2925 92.9867 50.6592C93.6306 49.477 94.2745 48.2927 94.9183 47.1084C95.4626 46.1078 96.0258 45.0839 96.893 44.345C98.8787 42.6562 101.247 44.1382 103.445 44.5456C111.618 46.0529 117.021 49.3609 117.155 55.0079C117.164 55.3668 117.546 55.5673 117.852 55.3795C118.456 55.0121 119.422 54.839 120.712 55.9241C122.956 57.8114 122.038 62.7069 117.118 66.7348C116.884 66.9269 116.886 67.29 117.138 67.4567C118.031 68.0373 119.361 69.4179 115.916 71.2608C112.352 73.165 109.69 73.0088 108.665 72.8399C108.41 72.7977 108.246 72.5507 108.301 72.2974L109.395 67.3343C109.458 67.0535 109.243 66.7875 108.956 66.7875H107.252Z" fill="url(#paint25_linear_412_6711)"/>
</g>
<mask id="mask26_412_6711" style="mask-type:luminance" maskUnits="userSpaceOnUse" x="107" y="62" width="7" height="9">
<path d="M107.046 67.8337C107.046 67.8337 108.86 60.8607 111.986 62.8163C115.112 64.7719 110.364 70.629 107.85 70.8896L107.046 67.8337Z" fill="white"/>
</mask>
<g mask="url(#mask26_412_6711)">
<path d="M107.046 67.8342C107.046 67.8342 108.86 60.8615 111.986 62.8167C115.113 64.7718 110.364 70.6293 107.85 70.8887L107.046 67.8342Z" fill="url(#paint26_linear_412_6711)"/>
</g>
<mask id="mask27_412_6711" style="mask-type:luminance" maskUnits="userSpaceOnUse" x="90" y="41" width="32" height="24">
<path d="M90.3577 53.3533C98.1296 30.3103 130.377 44.8367 119.744 64.9138C108.581 59.8591 95.5782 51.7593 90.3577 53.3533Z" fill="white"/>
</mask>
<g mask="url(#mask27_412_6711)">
<path d="M90.3582 53.3517C98.13 30.3106 130.378 44.8355 119.745 64.9126C108.582 59.8572 95.5788 51.7572 90.3582 53.3517Z" fill="url(#paint27_linear_412_6711)"/>
</g>
<mask id="mask28_412_6711" style="mask-type:luminance" maskUnits="userSpaceOnUse" x="78" y="52" width="32" height="11">
<path d="M109.362 59.4791L89.0953 62.1423C88.5811 62.2095 88.067 62.0029 87.7451 61.5957C85.4075 58.6275 82.4249 56.9806 78.9342 56.3776C78.4921 56.3007 78.4789 55.6701 78.9149 55.568L91.1409 52.7127C91.1541 52.7091 91.1686 52.7067 91.1818 52.7055C97.4209 52.1758 103.48 54.9926 109.474 59.0011C109.675 59.1356 109.601 59.4479 109.362 59.4791Z" fill="white"/>
</mask>
<g mask="url(#mask28_412_6711)">
<path d="M109.362 59.4809L89.0946 62.1426C88.5805 62.2104 88.0663 62.0028 87.7444 61.5959C85.4069 58.628 82.4242 56.9817 78.9334 56.3774C78.4915 56.3013 78.4782 55.6704 78.9143 55.5697L91.1402 52.7127C91.1534 52.7107 91.1678 52.7086 91.1811 52.7066C97.4203 52.1763 103.479 54.9942 109.473 59.0021C109.674 59.1357 109.601 59.4481 109.362 59.4809Z" fill="url(#paint28_linear_412_6711)"/>
</g>
<mask id="mask29_412_6711" style="mask-type:luminance" maskUnits="userSpaceOnUse" x="35" y="121" width="88" height="55">
<path d="M113.932 175.832C113.878 175.832 113.823 175.832 113.771 175.83L76.9281 175.13L64.5075 174.895L47.8321 174.577L44.1675 174.508C39.439 174.418 35.7027 170.469 35.8734 165.744L38.1717 130.014C38.2935 126.648 40.9036 123.898 44.2592 123.615C47.5492 123.337 50.9346 123.098 54.3699 122.89C56.4748 122.763 58.6 122.649 60.7291 122.544L72.0968 122.761L69.9586 151.849C69.8625 153.169 70.9136 154.27 72.2037 154.27C72.2842 154.27 72.3671 154.265 72.4499 154.256L82.4537 153.178C83.5996 153.054 84.4669 152.087 84.4669 150.935V122.996L89.0255 123.082C89.0652 123.084 89.106 123.084 89.1457 123.084C90.634 123.084 92.0034 122.559 93.0748 121.683C96.18 121.658 99.135 121.647 101.892 121.647C106.348 121.647 110.286 121.675 113.476 121.71C116.28 121.74 118.765 123.069 120.365 125.123C121.536 126.626 122.234 128.517 122.234 130.568V167.526C122.234 171.979 118.734 175.602 114.353 175.822C114.214 175.828 114.073 175.832 113.932 175.832Z" fill="white"/>
</mask>
<g mask="url(#mask29_412_6711)">
<path d="M113.93 175.832C113.876 175.832 113.822 175.832 113.77 175.832L76.9272 175.13L64.5068 174.895L47.8314 174.578L44.1668 174.508C39.4383 174.418 35.7021 170.469 35.8726 165.744L38.1709 130.015C38.2928 126.648 40.9029 123.898 44.2584 123.616C47.5484 123.338 50.9339 123.098 54.3691 122.891C56.474 122.764 58.5993 122.65 60.7284 122.545L72.096 122.761L69.9579 151.85C69.8617 153.17 70.9129 154.27 72.2029 154.27C72.2834 154.27 72.3663 154.265 72.4492 154.257L82.4529 153.178C83.5988 153.054 84.4662 152.088 84.4662 150.936V122.997L89.0247 123.084C89.0644 123.084 89.1052 123.084 89.1448 123.084C90.6332 123.084 92.0025 122.56 93.0741 121.683C96.1792 121.659 99.1342 121.648 101.891 121.648C106.347 121.648 110.286 121.675 113.476 121.71C116.278 121.741 118.764 123.071 120.365 125.124C121.536 126.627 122.233 128.518 122.233 130.569V167.527C122.233 171.98 118.733 175.603 114.353 175.822C114.212 175.828 114.072 175.832 113.93 175.832Z" fill="url(#paint29_linear_412_6711)"/>
</g>
<path d="M113.795 134.568C113.856 137.712 113.762 142.702 113.686 145.925C113.647 147.601 112.175 148.881 110.508 148.686L98.5152 147.279C96.9176 147.093 95.7919 145.62 96.031 144.03L97.5025 134.21C97.7116 132.816 98.9092 131.784 100.319 131.784H110.947C112.495 131.784 113.763 133.02 113.795 134.568Z" fill="white"/>
<mask id="mask30_412_6711" style="mask-type:luminance" maskUnits="userSpaceOnUse" x="69" y="122" width="16" height="33">
<path d="M72.2037 154.27C70.9136 154.27 69.8625 153.169 69.9586 151.849L72.0968 122.761L84.4669 122.996V150.935C84.4669 152.087 83.5996 153.054 82.4537 153.178L72.4499 154.257C72.3671 154.265 72.2842 154.27 72.2037 154.27Z" fill="white"/>
</mask>
<g mask="url(#mask30_412_6711)">
<path d="M72.2041 154.269C70.9141 154.269 69.863 153.169 69.9592 151.848L72.0972 122.76L84.4675 122.995V150.935C84.4675 152.087 83.6002 153.054 82.4541 153.177L72.4503 154.256C72.3676 154.264 72.2846 154.269 72.2041 154.269Z" fill="url(#paint30_linear_412_6711)"/>
</g>
<path d="M78.3536 148.02C78.3223 148.555 77.879 148.969 77.3494 148.969C77.3301 148.969 77.3109 148.967 77.2905 148.966C76.7355 148.935 76.3114 148.458 76.3451 147.904L77.8525 121.932C78.53 121.914 79.2003 121.901 79.8706 121.885L78.3536 148.02Z" fill="white"/>
<mask id="mask31_412_6711" style="mask-type:luminance" maskUnits="userSpaceOnUse" x="107" y="135" width="3" height="9">
<path d="M108.247 143.942C108.424 143.942 108.572 143.805 108.583 143.627L109.102 135.447C109.114 135.262 108.973 135.103 108.788 135.091C108.593 135.076 108.444 135.22 108.432 135.405L107.914 143.585C107.902 143.77 108.042 143.929 108.227 143.941L108.247 143.942Z" fill="white"/>
</mask>
<g mask="url(#mask31_412_6711)">
<path d="M108.248 143.941C108.424 143.941 108.573 143.805 108.584 143.626L109.101 135.447C109.114 135.261 108.973 135.103 108.788 135.09C108.595 135.075 108.444 135.219 108.434 135.405L107.915 143.585C107.902 143.769 108.043 143.929 108.228 143.939L108.248 143.941Z" fill="url(#paint31_linear_412_6711)"/>
</g>
<mask id="mask32_412_6711" style="mask-type:luminance" maskUnits="userSpaceOnUse" x="106" y="134" width="2" height="10">
<path d="M107.181 143.942C107.36 143.942 107.51 143.799 107.516 143.618L107.787 135.28C107.793 135.095 107.648 134.94 107.463 134.934C107.249 134.923 107.123 135.073 107.117 135.258L106.844 143.595C106.838 143.781 106.984 143.936 107.169 143.942H107.181Z" fill="white"/>
</mask>
<g mask="url(#mask32_412_6711)">
<path d="M107.182 143.94C107.36 143.94 107.51 143.798 107.517 143.616L107.788 135.28C107.794 135.094 107.648 134.938 107.464 134.934C107.25 134.923 107.123 135.072 107.118 135.258L106.845 143.595C106.839 143.781 106.985 143.936 107.169 143.94H107.182Z" fill="url(#paint32_linear_412_6711)"/>
</g>
<mask id="mask33_412_6711" style="mask-type:luminance" maskUnits="userSpaceOnUse" x="105" y="134" width="2" height="10">
<path d="M105.732 143.941C105.547 143.932 105.404 143.775 105.414 143.591C105.546 140.79 105.799 135.448 105.804 135.266C105.805 135.083 105.956 134.934 106.139 134.934C106.324 134.934 106.474 135.084 106.474 135.269C106.474 135.407 106.149 142.252 106.083 143.622C106.074 143.803 105.927 143.942 105.748 143.942L105.732 143.941Z" fill="white"/>
</mask>
<g mask="url(#mask33_412_6711)">
<path d="M105.731 143.941C105.546 143.934 105.404 143.775 105.413 143.592C105.545 140.791 105.799 135.45 105.804 135.267C105.805 135.084 105.954 134.935 106.139 134.935C106.323 134.935 106.474 135.085 106.474 135.27C106.474 135.408 106.148 142.253 106.083 143.623C106.074 143.803 105.926 143.943 105.746 143.943L105.731 143.941Z" fill="url(#paint33_linear_412_6711)"/>
</g>
<mask id="mask34_412_6711" style="mask-type:luminance" maskUnits="userSpaceOnUse" x="102" y="134" width="3" height="11">
<path d="M103.512 144.277C103.871 144.277 104.169 143.992 104.181 143.629C104.465 135.552 104.416 135.37 104.383 135.25C104.286 134.891 103.913 134.68 103.559 134.779C103.231 134.868 103.026 135.186 103.07 135.515C103.092 136 102.942 140.7 102.841 143.583C102.829 143.953 103.118 144.264 103.488 144.277H103.512Z" fill="white"/>
</mask>
<g mask="url(#mask34_412_6711)">
<path d="M103.512 144.275C103.872 144.275 104.17 143.991 104.181 143.628C104.465 135.551 104.415 135.369 104.383 135.248C104.287 134.89 103.914 134.679 103.559 134.778C103.232 134.867 103.027 135.185 103.07 135.514C103.092 135.999 102.941 140.699 102.841 143.582C102.83 143.951 103.118 144.263 103.489 144.275H103.512Z" fill="url(#paint34_linear_412_6711)"/>
</g>
<mask id="mask35_412_6711" style="mask-type:luminance" maskUnits="userSpaceOnUse" x="101" y="135" width="2" height="9">
<path d="M102.059 143.942C102.244 143.942 102.394 143.792 102.394 143.607V135.425C102.394 135.24 102.244 135.09 102.059 135.09C101.873 135.09 101.722 135.24 101.722 135.425V143.607C101.722 143.792 101.873 143.942 102.059 143.942Z" fill="white"/>
</mask>
<g mask="url(#mask35_412_6711)">
<path d="M102.059 143.941C102.245 143.941 102.395 143.791 102.395 143.605V135.424C102.395 135.239 102.245 135.089 102.059 135.089C101.873 135.089 101.723 135.239 101.723 135.424V143.605C101.723 143.791 101.873 143.941 102.059 143.941Z" fill="url(#paint35_linear_412_6711)"/>
</g>
<mask id="mask36_412_6711" style="mask-type:luminance" maskUnits="userSpaceOnUse" x="100" y="135" width="2" height="9">
<path d="M100.884 143.942C101.067 143.942 101.216 143.797 101.22 143.614C101.284 140.772 101.434 136.129 101.569 135.571C101.628 135.465 101.626 135.332 101.555 135.222C101.455 135.067 101.247 135.025 101.092 135.126C100.909 135.246 100.735 135.359 100.549 143.598C100.545 143.783 100.692 143.937 100.877 143.942H100.884Z" fill="white"/>
</mask>
<g mask="url(#mask36_412_6711)">
<path d="M100.884 143.943C101.067 143.943 101.215 143.797 101.22 143.614C101.283 140.772 101.434 136.13 101.569 135.57C101.627 135.465 101.626 135.332 101.556 135.223C101.454 135.068 101.246 135.025 101.091 135.127C100.91 135.246 100.735 135.36 100.549 143.599C100.546 143.783 100.692 143.938 100.878 143.943H100.884Z" fill="url(#paint36_linear_412_6711)"/>
</g>
<mask id="mask37_412_6711" style="mask-type:luminance" maskUnits="userSpaceOnUse" x="109" y="134" width="3" height="11">
<path d="M110.053 144.687C110.407 144.687 110.704 144.409 110.722 144.05L111.17 135.46C111.189 135.09 110.905 134.775 110.535 134.756C110.184 134.731 109.849 135.02 109.829 135.392L109.383 143.981C109.363 144.351 109.647 144.666 110.017 144.685C110.029 144.687 110.041 144.687 110.053 144.687Z" fill="white"/>
</mask>
<g mask="url(#mask37_412_6711)">
<path d="M110.054 144.685C110.408 144.685 110.704 144.409 110.723 144.049L111.171 135.46C111.19 135.089 110.906 134.774 110.535 134.755C110.184 134.73 109.849 135.019 109.83 135.391L109.384 143.981C109.363 144.35 109.647 144.665 110.017 144.685C110.029 144.685 110.041 144.685 110.054 144.685Z" fill="url(#paint37_linear_412_6711)"/>
</g>
<mask id="mask38_412_6711" style="mask-type:luminance" maskUnits="userSpaceOnUse" x="30" y="82" width="66" height="42">
<path d="M89.1457 123.083C89.106 123.083 89.0652 123.084 89.0256 123.082L84.4669 122.996L72.0968 122.76L60.7291 122.544L54.5444 122.426L36.9206 122.092C33.3811 122.025 30.5839 119.069 30.7117 115.531L31.114 109.277L31.9073 96.945L32.4322 88.784C32.5234 86.2638 34.4773 84.2049 36.9894 83.9935C51.3364 82.7851 68.1652 82.5208 80.0573 82.5208C80.0813 82.5208 80.1065 82.5208 80.1305 82.5208C83.4675 82.5208 86.4153 82.5412 88.8057 82.5664C92.3902 82.6061 95.2803 85.483 95.3596 89.0482C95.3608 89.0987 95.3608 89.1479 95.3608 89.1996V116.865C95.3608 118.811 94.4695 120.544 93.0749 121.683C92.0034 122.559 90.634 123.083 89.1457 123.083ZM67.0889 82.6289C64.1015 82.6806 61.0048 82.7526 57.8655 82.8523L56.2282 105.13C56.1557 106.119 56.9425 106.942 57.9084 106.942C57.9693 106.942 58.031 106.938 58.0931 106.932L65.5826 106.124C66.4391 106.031 67.0889 105.308 67.0889 104.445V82.6289Z" fill="white"/>
</mask>
<g mask="url(#mask38_412_6711)">
<path d="M89.1454 123.083C89.1059 123.083 89.0649 123.083 89.0252 123.083L84.4667 122.995L72.0966 122.761L60.7288 122.544L54.5441 122.426L36.9203 122.093C33.3809 122.026 30.5837 119.07 30.7114 115.532L31.1137 109.277L31.9071 96.9447L32.432 88.7847C32.5231 86.2631 34.4771 84.2058 36.9891 83.9943C51.3362 82.7849 68.1651 82.521 80.0571 82.521C80.081 82.521 80.1063 82.521 80.1302 82.521C83.4673 82.521 86.4151 82.5416 88.8054 82.5659C92.3899 82.6071 95.2801 85.4825 95.3593 89.0486C95.3606 89.0992 95.3606 89.1478 95.3606 89.2002V116.865C95.3606 118.811 94.4691 120.545 93.0745 121.683C92.0032 122.559 90.6338 123.083 89.1454 123.083ZM67.0887 82.6296C64.1012 82.6801 61.0045 82.7531 57.8652 82.8523L56.2279 105.131C56.1555 106.119 56.9423 106.941 57.9081 106.941C57.9691 106.941 58.0309 106.937 58.0928 106.932L65.5823 106.123C66.4389 106.031 67.0887 105.309 67.0887 104.446V82.6296Z" fill="url(#paint38_linear_412_6711)"/>
</g>
<path d="M89.0439 92.1932C89.0896 94.5462 89.0198 98.281 88.9623 100.694C88.9333 101.95 87.8307 102.907 86.5838 102.761L77.6059 101.709C76.4095 101.569 75.5674 100.466 75.7465 99.2759L76.848 91.923C77.004 90.8807 77.9002 90.1085 78.9562 90.1085H86.9118C88.071 90.1085 89.0211 91.034 89.0439 92.1932Z" fill="white"/>
<mask id="mask39_412_6711" style="mask-type:luminance" maskUnits="userSpaceOnUse" x="56" y="82" width="12" height="25">
<path d="M57.9084 106.942C56.9425 106.942 56.1557 106.119 56.2282 105.13L57.8655 82.8524C61.0047 82.7527 64.1015 82.6807 67.0889 82.629V104.446C67.0889 105.308 66.439 106.031 65.5826 106.124L58.0931 106.932C58.031 106.938 57.9693 106.942 57.9084 106.942Z" fill="white"/>
</mask>
<g mask="url(#mask39_412_6711)">
<path d="M57.9084 106.941C56.9426 106.941 56.1557 106.118 56.2283 105.129L57.8656 82.8513C61.0049 82.7521 64.1016 82.681 67.089 82.6286V104.445C67.089 105.307 66.4392 106.031 65.5827 106.123L58.0933 106.932C58.0312 106.937 57.9694 106.941 57.9084 106.941Z" fill="url(#paint39_linear_412_6711)"/>
</g>
<path d="M62.5127 102.264C62.4897 102.664 62.1576 102.973 61.7613 102.973C61.7465 102.973 61.7319 102.973 61.7172 102.973C61.3018 102.948 60.9845 102.591 61.009 102.176L62.1381 82.7332C62.6446 82.7201 63.1467 82.7088 63.6489 82.6976L62.5127 102.264Z" fill="white"/>
<mask id="mask40_412_6711" style="mask-type:luminance" maskUnits="userSpaceOnUse" x="84" y="92" width="2" height="8">
<path d="M84.891 99.2109C85.0232 99.2109 85.1337 99.1088 85.1421 98.9755L85.5301 92.8517C85.5397 92.7123 85.434 92.5934 85.2958 92.585C85.1505 92.573 85.0376 92.6811 85.0292 92.8192L84.6412 98.9431C84.6316 99.0824 84.7373 99.2013 84.8754 99.2097L84.891 99.2109Z" fill="white"/>
</mask>
<g mask="url(#mask40_412_6711)">
<path d="M84.8916 99.2102C85.0238 99.2102 85.1344 99.107 85.1427 98.9749L85.5308 92.8506C85.5402 92.7112 85.4345 92.5917 85.2966 92.5845C85.1512 92.5718 85.0382 92.6804 85.0297 92.818L84.6418 98.9423C84.6322 99.0817 84.7379 99.1994 84.876 99.2084L84.8916 99.2102Z" fill="url(#paint40_linear_412_6711)"/>
</g>
<mask id="mask41_412_6711" style="mask-type:luminance" maskUnits="userSpaceOnUse" x="83" y="92" width="2" height="8">
<path d="M84.0922 99.2109C84.2267 99.2109 84.3384 99.104 84.3432 98.9671L84.5462 92.7268C84.551 92.5874 84.4417 92.4721 84.3036 92.4673C84.1438 92.4589 84.0489 92.5718 84.0441 92.7099L83.8411 98.9515C83.8363 99.0896 83.9456 99.2061 84.0837 99.2109H84.0922Z" fill="white"/>
</mask>
<g mask="url(#mask41_412_6711)">
<path d="M84.0927 99.2095C84.2272 99.2095 84.3388 99.1026 84.3437 98.9668L84.5467 92.726C84.5514 92.5865 84.4422 92.4706 84.304 92.467C84.1443 92.458 84.0494 92.5703 84.0445 92.7097L83.8416 98.9505C83.8368 99.0881 83.9461 99.2059 84.0841 99.2095H84.0927Z" fill="url(#paint41_linear_412_6711)"/>
</g>
<mask id="mask42_412_6711" style="mask-type:luminance" maskUnits="userSpaceOnUse" x="82" y="92" width="2" height="8">
<path d="M83.0087 99.2097C82.8693 99.2037 82.7624 99.086 82.7696 98.9479C82.8693 96.8505 83.0591 92.8517 83.0615 92.7159C83.0627 92.579 83.1744 92.4673 83.3126 92.4673C83.4519 92.4673 83.5636 92.579 83.5636 92.7184C83.5636 92.8217 83.3198 97.9449 83.2705 98.9707C83.2645 99.1064 83.1528 99.2109 83.0195 99.2109L83.0087 99.2097Z" fill="white"/>
</mask>
<g mask="url(#mask42_412_6711)">
<path d="M83.0082 99.2101C82.8688 99.2047 82.7619 99.0869 82.7691 98.9475C82.8687 96.8504 83.0585 92.8518 83.0611 92.716C83.0622 92.5801 83.1739 92.4679 83.3121 92.4679C83.4513 92.4679 83.5631 92.5802 83.5631 92.7196C83.5631 92.8228 83.3193 97.946 83.2701 98.971C83.2641 99.1069 83.1523 99.2119 83.0189 99.2119L83.0082 99.2101Z" fill="url(#paint42_linear_412_6711)"/>
</g>
<mask id="mask43_412_6711" style="mask-type:luminance" maskUnits="userSpaceOnUse" x="80" y="92" width="3" height="8">
<path d="M81.3462 99.4619C81.6153 99.4619 81.8375 99.2481 81.8471 98.9766C82.0598 92.9297 82.0225 92.794 81.9985 92.7039C81.9252 92.4348 81.6465 92.2774 81.3811 92.3507C81.136 92.418 80.9823 92.6558 81.0159 92.9021C81.0315 93.2648 80.9198 96.7832 80.8441 98.9418C80.8345 99.2181 81.0507 99.4511 81.3282 99.4607L81.3462 99.4619Z" fill="white"/>
</mask>
<g mask="url(#mask43_412_6711)">
<path d="M81.3454 99.4619C81.6144 99.4619 81.8368 99.2481 81.8464 98.9781C82.0589 92.9302 82.0217 92.7943 81.9977 92.7055C81.9245 92.4356 81.6458 92.2779 81.3802 92.3522C81.1352 92.4193 80.9814 92.6566 81.0151 92.903C81.0307 93.2654 80.9191 96.784 80.8433 98.9419C80.8337 99.2191 81.0499 99.451 81.3275 99.4619H81.3454Z" fill="url(#paint43_linear_412_6711)"/>
</g>
<mask id="mask44_412_6711" style="mask-type:luminance" maskUnits="userSpaceOnUse" x="80" y="92" width="1" height="8">
<path d="M80.2578 99.2109C80.3972 99.2109 80.5089 99.098 80.5089 98.9599V92.8349C80.5089 92.6967 80.3972 92.5838 80.2578 92.5838C80.1185 92.5838 80.0068 92.6967 80.0068 92.8349V98.9599C80.0068 99.098 80.1185 99.2109 80.2578 99.2109Z" fill="white"/>
</mask>
<g mask="url(#mask44_412_6711)">
<path d="M80.258 99.2109C80.3974 99.2109 80.5091 99.0969 80.5091 98.9593V92.8352C80.5091 92.6958 80.3974 92.5836 80.258 92.5836C80.1186 92.5836 80.007 92.6958 80.007 92.8352V98.9593C80.007 99.0969 80.1186 99.2109 80.258 99.2109Z" fill="url(#paint44_linear_412_6711)"/>
</g>
<mask id="mask45_412_6711" style="mask-type:luminance" maskUnits="userSpaceOnUse" x="79" y="92" width="1" height="8">
<path d="M79.3786 99.2109C79.5155 99.2109 79.6272 99.1016 79.6296 98.9647C79.6777 96.8373 79.7906 93.3622 79.8915 92.9442C79.9348 92.8649 79.9348 92.7652 79.8819 92.6835C79.8062 92.567 79.6501 92.5358 79.5336 92.6114C79.3978 92.7015 79.2669 92.7856 79.1275 98.9539C79.1251 99.092 79.2344 99.2073 79.3726 99.2109H79.3786Z" fill="white"/>
</mask>
<g mask="url(#mask45_412_6711)">
<path d="M79.3791 99.2097C79.5159 99.2097 79.6276 99.1011 79.63 98.9635C79.6781 96.8363 79.7911 93.3622 79.8919 92.944C79.9352 92.8643 79.9352 92.7648 79.8824 92.6833C79.8067 92.5656 79.6504 92.5349 79.534 92.6109C79.3983 92.7014 79.2674 92.7847 79.128 98.9527C79.1256 99.0921 79.235 99.2061 79.3731 99.2097H79.3791Z" fill="url(#paint45_linear_412_6711)"/>
</g>
<mask id="mask46_412_6711" style="mask-type:luminance" maskUnits="userSpaceOnUse" x="85" y="92" width="3" height="8">
<path d="M86.2423 99.7681C86.5078 99.7681 86.73 99.5603 86.7432 99.2912L87.0783 92.8611C87.0928 92.5836 86.8801 92.3482 86.6027 92.3338C86.3396 92.3145 86.0897 92.5319 86.0753 92.8094L85.7402 99.2395C85.7258 99.517 85.9384 99.7525 86.2159 99.7669L86.2423 99.7681Z" fill="white"/>
</mask>
<g mask="url(#mask46_412_6711)">
<path d="M86.2417 99.7681C86.5072 99.7681 86.7295 99.5615 86.7427 99.2916L87.0779 92.8613C87.0922 92.5841 86.8797 92.3486 86.6021 92.3341C86.339 92.316 86.0892 92.5334 86.0748 92.8106L85.7397 99.2408C85.7252 99.518 85.9379 99.7536 86.2153 99.7681H86.2417Z" fill="url(#paint46_linear_412_6711)"/>
</g>
<mask id="mask47_412_6711" style="mask-type:luminance" maskUnits="userSpaceOnUse" x="27" y="94" width="7" height="21">
<path d="M28.2552 98.5634C29.7859 98.1874 33.2239 93.5363 33.5896 95.236C33.9554 96.9345 32.9185 99.0895 33.0723 99.8126C33.2262 100.535 34.38 104.583 33.4631 106.281C32.8013 107.506 31.5026 111.361 30.8309 113.413C30.6078 114.094 30.4264 114.992 29.7143 114.912C29.0024 114.833 28.4509 113.874 28.3846 113.161C28.358 112.875 26.7244 98.9382 28.2552 98.5634Z" fill="white"/>
</mask>
<g mask="url(#mask47_412_6711)">
<path d="M28.2554 98.5627C29.786 98.1872 33.224 93.5366 33.5897 95.2359C33.9554 96.9352 32.9186 99.089 33.0724 99.8129C33.2263 100.535 34.3801 104.582 33.4632 106.281C32.8015 107.506 31.5027 111.361 30.8309 113.413C30.608 114.093 30.4266 114.992 29.7144 114.913C29.0025 114.832 28.451 113.874 28.3847 113.161C28.3581 112.874 26.7244 98.9381 28.2554 98.5627Z" fill="url(#paint47_linear_412_6711)"/>
</g>
<mask id="mask48_412_6711" style="mask-type:luminance" maskUnits="userSpaceOnUse" x="121" y="94" width="24" height="73">
<path d="M137.926 104.302C136.041 99.976 130.033 94.7099 129.718 94.6102C127.108 104.187 122.513 112.097 121.529 121.752C127.97 133.582 126.494 147.537 122.471 154.323C124.45 157.261 126.763 161.261 128.767 166.238C153.535 151.412 143.73 117.622 137.926 104.302Z" fill="white"/>
</mask>
<g mask="url(#mask48_412_6711)">
<path d="M137.925 104.302C136.041 99.9762 130.033 94.7085 129.718 94.6096C127.108 104.187 122.513 112.097 121.53 121.751C127.971 133.581 126.495 147.536 122.471 154.323C124.449 157.26 126.763 161.26 128.767 166.237C153.534 151.412 143.731 117.622 137.925 104.302Z" fill="url(#paint48_linear_412_6711)"/>
</g>
<mask id="mask49_412_6711" style="mask-type:luminance" maskUnits="userSpaceOnUse" x="84" y="154" width="45" height="23">
<path d="M106.113 176.966L84.6688 176.499C84.6688 176.499 103.368 171.213 104.528 172.652C104.528 172.652 116.119 165.037 122.471 154.323C124.449 157.261 126.762 161.261 128.767 166.238C123.073 169.58 115.594 175.387 106.113 176.966Z" fill="white"/>
</mask>
<g mask="url(#mask49_412_6711)">
<path d="M106.113 176.966L84.6691 176.498C84.6691 176.498 103.369 171.213 104.528 172.652C104.528 172.652 116.119 165.036 122.471 154.323C124.45 157.262 126.762 161.261 128.766 166.237C123.073 169.58 115.594 175.387 106.113 176.966Z" fill="url(#paint49_linear_412_6711)"/>
</g>
<mask id="mask50_412_6711" style="mask-type:luminance" maskUnits="userSpaceOnUse" x="80" y="173" width="27" height="8">
<path d="M106.717 173.251C106.717 173.251 107.16 181.795 95.9445 180.555C89.8484 179.881 80.008 174.198 80.008 174.198C80.008 174.198 105.658 174.129 106.717 173.251Z" fill="white"/>
</mask>
<g mask="url(#mask50_412_6711)">
<path d="M106.716 173.252C106.716 173.252 107.159 181.797 95.9433 180.555C89.8467 179.882 80.0065 174.199 80.0065 174.199C80.0065 174.199 105.656 174.131 106.716 173.252Z" fill="url(#paint50_linear_412_6711)"/>
</g>
<defs>
<linearGradient id="paint0_linear_412_6711" x1="736.983" y1="364.431" x2="295.45" y2="-105.588" gradientUnits="userSpaceOnUse">
<stop stop-color="#DAE3FE"/>
<stop offset="1" stop-color="#E9EFFD"/>
</linearGradient>
<linearGradient id="paint1_linear_412_6711" x1="591.505" y1="368.691" x2="230.956" y2="-15.1209" gradientUnits="userSpaceOnUse">
<stop stop-color="#E9EFFE"/>
<stop offset="1" stop-color="#F2F6FD"/>
</linearGradient>
<linearGradient id="paint2_linear_412_6711" x1="376.614" y1="-140.685" x2="374.694" y2="117.69" gradientUnits="userSpaceOnUse">
<stop stop-color="#09005D"/>
<stop offset="1" stop-color="#1A0F91"/>
</linearGradient>
<linearGradient id="paint3_linear_412_6711" x1="460.361" y1="-167.66" x2="722.313" y2="-519.794" gradientUnits="userSpaceOnUse">
<stop stop-color="#4F52FF"/>
<stop offset="1" stop-color="#4042E2"/>
</linearGradient>
<linearGradient id="paint4_linear_412_6711" x1="485.779" y1="-35.2455" x2="745.797" y2="-485.33" gradientUnits="userSpaceOnUse">
<stop stop-color="#3E30CB"/>
<stop offset="1" stop-color="#1D129D"/>
</linearGradient>
<linearGradient id="paint5_linear_412_6711" x1="345.047" y1="47.3141" x2="547.175" y2="-302.562" gradientUnits="userSpaceOnUse">
<stop stop-color="#3E30CB"/>
<stop offset="1" stop-color="#1D129D"/>
</linearGradient>
<linearGradient id="paint6_linear_412_6711" x1="296.49" y1="-132.007" x2="552.062" y2="-574.391" gradientUnits="userSpaceOnUse">
<stop stop-color="#3E30CB"/>
<stop offset="1" stop-color="#1D129D"/>
</linearGradient>
<linearGradient id="paint7_linear_412_6711" x1="341.937" y1="-82.8149" x2="589.404" y2="-511.172" gradientUnits="userSpaceOnUse">
<stop stop-color="#3E30CB"/>
<stop offset="1" stop-color="#1D129D"/>
</linearGradient>
<linearGradient id="paint8_linear_412_6711" x1="390.262" y1="-31.7443" x2="629.548" y2="-445.941" gradientUnits="userSpaceOnUse">
<stop stop-color="#3E30CB"/>
<stop offset="1" stop-color="#1D129D"/>
</linearGradient>
<linearGradient id="paint9_linear_412_6711" x1="312.061" y1="10.6673" x2="312.061" y2="120.1" gradientUnits="userSpaceOnUse">
<stop stop-color="#3E30CB"/>
<stop offset="1" stop-color="#1D129D"/>
</linearGradient>
<linearGradient id="paint10_linear_412_6711" x1="903.953" y1="-328.584" x2="396.504" y2="83.3083" gradientUnits="userSpaceOnUse">
<stop stop-color="#FF928E"/>
<stop offset="1" stop-color="#FE7062"/>
</linearGradient>
<linearGradient id="paint11_linear_412_6711" x1="886.321" y1="-315.431" x2="388.191" y2="88.8971" gradientUnits="userSpaceOnUse">
<stop stop-color="#FFE1E0"/>
<stop offset="1" stop-color="#FFD7D3"/>
</linearGradient>
<linearGradient id="paint12_linear_412_6711" x1="792.23" y1="-496.074" x2="276.805" y2="-77.7083" gradientUnits="userSpaceOnUse">
<stop stop-color="#FF928E"/>
<stop offset="1" stop-color="#FE7062"/>
</linearGradient>
<linearGradient id="paint13_linear_412_6711" x1="775.644" y1="-478.799" x2="270.296" y2="-68.6116" gradientUnits="userSpaceOnUse">
<stop stop-color="#FFE1E0"/>
<stop offset="1" stop-color="#FFD7D3"/>
</linearGradient>
<linearGradient id="paint14_linear_412_6711" x1="309.319" y1="-4.21307" x2="236.726" y2="86.7709" gradientUnits="userSpaceOnUse">
<stop stop-color="#FF928E"/>
<stop offset="0.673306" stop-color="#FE7B70"/>
<stop offset="1" stop-color="#FE7062"/>
</linearGradient>
<linearGradient id="paint15_linear_412_6711" x1="111.683" y1="321.956" x2="79.0411" y2="321.956" gradientUnits="userSpaceOnUse">
<stop stop-color="#4F52FF"/>
<stop offset="1" stop-color="#4042E2"/>
</linearGradient>
<linearGradient id="paint16_linear_412_6711" x1="111.684" y1="315.558" x2="79.9621" y2="315.558" gradientUnits="userSpaceOnUse">
<stop stop-color="#09005D"/>
<stop offset="1" stop-color="#1A0F91"/>
</linearGradient>
<linearGradient id="paint17_linear_412_6711" x1="108.669" y1="306.626" x2="99.4746" y2="306.626" gradientUnits="userSpaceOnUse">
<stop stop-color="#FEBBBA"/>
<stop offset="1" stop-color="#FF928E"/>
</linearGradient>
<linearGradient id="paint18_linear_412_6711" x1="204.974" y1="321.126" x2="190.528" y2="321.126" gradientUnits="userSpaceOnUse">
<stop stop-color="#4F52FF"/>
<stop offset="1" stop-color="#4042E2"/>
</linearGradient>
<linearGradient id="paint19_linear_412_6711" x1="204.76" y1="306.783" x2="183.564" y2="306.783" gradientUnits="userSpaceOnUse">
<stop stop-color="#09005D"/>
<stop offset="1" stop-color="#1A0F91"/>
</linearGradient>
<linearGradient id="paint20_linear_412_6711" x1="183.195" y1="292.76" x2="171.045" y2="292.76" gradientUnits="userSpaceOnUse">
<stop stop-color="#FEBBBA"/>
<stop offset="1" stop-color="#FF928E"/>
</linearGradient>
<linearGradient id="paint21_linear_412_6711" x1="245.892" y1="13.2628" x2="147.728" y2="201.633" gradientUnits="userSpaceOnUse">
<stop stop-color="#09005D"/>
<stop offset="1" stop-color="#1A0F91"/>
</linearGradient>
<linearGradient id="paint22_linear_412_6711" x1="73.7529" y1="1.94595" x2="227.329" y2="1.94595" gradientUnits="userSpaceOnUse">
<stop stop-color="#090056"/>
<stop offset="1" stop-color="#020039"/>
</linearGradient>
<linearGradient id="paint23_linear_412_6711" x1="205.897" y1="-65.4392" x2="198.211" y2="-105.789" gradientUnits="userSpaceOnUse">
<stop stop-color="#FEBBBA"/>
<stop offset="1" stop-color="#FF928E"/>
</linearGradient>
<linearGradient id="paint24_linear_412_6711" x1="200.443" y1="-172.985" x2="247.082" y2="-137.299" gradientUnits="userSpaceOnUse">
<stop stop-color="#FEBBBA"/>
<stop offset="1" stop-color="#FF928E"/>
</linearGradient>
<linearGradient id="paint25_linear_412_6711" x1="245.072" y1="-211.3" x2="200.608" y2="-154.054" gradientUnits="userSpaceOnUse">
<stop stop-color="#09005D"/>
<stop offset="1" stop-color="#1A0F91"/>
</linearGradient>
<linearGradient id="paint26_linear_412_6711" x1="197.668" y1="-162.012" x2="242.787" y2="-127.49" gradientUnits="userSpaceOnUse">
<stop stop-color="#FEBBBA"/>
<stop offset="1" stop-color="#FF928E"/>
</linearGradient>
<linearGradient id="paint27_linear_412_6711" x1="362.073" y1="-273.33" x2="244.115" y2="-206.629" gradientUnits="userSpaceOnUse">
<stop stop-color="#FF928E"/>
<stop offset="1" stop-color="#FE7062"/>
</linearGradient>
<linearGradient id="paint28_linear_412_6711" x1="345.049" y1="-258.653" x2="230.863" y2="-194.085" gradientUnits="userSpaceOnUse">
<stop stop-color="#FF928E"/>
<stop offset="1" stop-color="#FE7062"/>
</linearGradient>
<linearGradient id="paint29_linear_412_6711" x1="301.931" y1="-56.723" x2="67.3084" y2="106.967" gradientUnits="userSpaceOnUse">
<stop stop-color="#FF928E"/>
<stop offset="1" stop-color="#FE7062"/>
</linearGradient>
<linearGradient id="paint30_linear_412_6711" x1="300.434" y1="-54.8651" x2="66.7926" y2="108.14" gradientUnits="userSpaceOnUse">
<stop stop-color="#FFBAB8"/>
<stop offset="1" stop-color="#FEA59C"/>
</linearGradient>
<linearGradient id="paint31_linear_412_6711" x1="151.027" y1="59.9689" x2="178.718" y2="100.208" gradientUnits="userSpaceOnUse">
<stop stop-color="#09005D"/>
<stop offset="1" stop-color="#1A0F91"/>
</linearGradient>
<linearGradient id="paint32_linear_412_6711" x1="150.159" y1="60.4514" x2="177.867" y2="100.715" gradientUnits="userSpaceOnUse">
<stop stop-color="#09005D"/>
<stop offset="1" stop-color="#1A0F91"/>
</linearGradient>
<linearGradient id="paint33_linear_412_6711" x1="148.953" y1="61.2845" x2="176.661" y2="101.548" gradientUnits="userSpaceOnUse">
<stop stop-color="#09005D"/>
<stop offset="1" stop-color="#1A0F91"/>
</linearGradient>
<linearGradient id="paint34_linear_412_6711" x1="147.021" y1="62.4768" x2="174.749" y2="102.769" gradientUnits="userSpaceOnUse">
<stop stop-color="#09005D"/>
<stop offset="1" stop-color="#1A0F91"/>
</linearGradient>
<linearGradient id="paint35_linear_412_6711" x1="145.38" y1="63.8562" x2="173.071" y2="104.095" gradientUnits="userSpaceOnUse">
<stop stop-color="#09005D"/>
<stop offset="1" stop-color="#1A0F91"/>
</linearGradient>
<linearGradient id="paint36_linear_412_6711" x1="144.54" y1="64.4248" x2="172.232" y2="104.665" gradientUnits="userSpaceOnUse">
<stop stop-color="#09005D"/>
<stop offset="1" stop-color="#1A0F91"/>
</linearGradient>
<linearGradient id="paint37_linear_412_6711" x1="152.729" y1="58.5502" x2="180.457" y2="98.8421" gradientUnits="userSpaceOnUse">
<stop stop-color="#09005D"/>
<stop offset="1" stop-color="#1A0F91"/>
</linearGradient>
<linearGradient id="paint38_linear_412_6711" x1="297.711" y1="-171.937" x2="96.2385" y2="-31.3747" gradientUnits="userSpaceOnUse">
<stop stop-color="#FF928E"/>
<stop offset="1" stop-color="#FE7062"/>
</linearGradient>
<linearGradient id="paint39_linear_412_6711" x1="297.587" y1="-171.739" x2="96.185" y2="-31.2269" gradientUnits="userSpaceOnUse">
<stop stop-color="#FFBAB8"/>
<stop offset="1" stop-color="#FEA59C"/>
</linearGradient>
<linearGradient id="paint40_linear_412_6711" x1="152.143" y1="-58.6902" x2="176.362" y2="-23.4971" gradientUnits="userSpaceOnUse">
<stop stop-color="#09005D"/>
<stop offset="1" stop-color="#1A0F91"/>
</linearGradient>
<linearGradient id="paint41_linear_412_6711" x1="151.354" y1="-58.2683" x2="175.582" y2="-23.0616" gradientUnits="userSpaceOnUse">
<stop stop-color="#09005D"/>
<stop offset="1" stop-color="#1A0F91"/>
</linearGradient>
<linearGradient id="paint42_linear_412_6711" x1="150.295" y1="-57.5311" x2="174.522" y2="-22.3254" gradientUnits="userSpaceOnUse">
<stop stop-color="#09005D"/>
<stop offset="1" stop-color="#1A0F91"/>
</linearGradient>
<linearGradient id="paint43_linear_412_6711" x1="148.576" y1="-56.4945" x2="172.815" y2="-21.2717" gradientUnits="userSpaceOnUse">
<stop stop-color="#09005D"/>
<stop offset="1" stop-color="#1A0F91"/>
</linearGradient>
<linearGradient id="paint44_linear_412_6711" x1="147.198" y1="-55.28" x2="171.416" y2="-20.0883" gradientUnits="userSpaceOnUse">
<stop stop-color="#09005D"/>
<stop offset="1" stop-color="#1A0F91"/>
</linearGradient>
<linearGradient id="paint45_linear_412_6711" x1="146.468" y1="-54.7974" x2="170.687" y2="-19.6034" gradientUnits="userSpaceOnUse">
<stop stop-color="#09005D"/>
<stop offset="1" stop-color="#1A0F91"/>
</linearGradient>
<linearGradient id="paint46_linear_412_6711" x1="153.566" y1="-59.9278" x2="177.805" y2="-24.7051" gradientUnits="userSpaceOnUse">
<stop stop-color="#09005D"/>
<stop offset="1" stop-color="#1A0F91"/>
</linearGradient>
<linearGradient id="paint47_linear_412_6711" x1="86.2814" y1="-76.1707" x2="26.1905" y2="104.088" gradientUnits="userSpaceOnUse">
<stop stop-color="#FEBBBA"/>
<stop offset="1" stop-color="#FF928E"/>
</linearGradient>
<linearGradient id="paint48_linear_412_6711" x1="209.793" y1="2.66344" x2="244.641" y2="2.66344" gradientUnits="userSpaceOnUse">
<stop stop-color="#090056"/>
<stop offset="1" stop-color="#020039"/>
</linearGradient>
<linearGradient id="paint49_linear_412_6711" x1="-715.016" y1="-2051.7" x2="-764.71" y2="-2178.81" gradientUnits="userSpaceOnUse">
<stop stop-color="#FEBBBA"/>
<stop offset="1" stop-color="#FF928E"/>
</linearGradient>
<linearGradient id="paint50_linear_412_6711" x1="116.772" y1="130.685" x2="162.435" y2="13.8934" gradientUnits="userSpaceOnUse">
<stop stop-color="#FEBBBA"/>
<stop offset="1" stop-color="#FF928E"/>
</linearGradient>
</defs>
</svg>
