<svg width="24" height="24" viewBox="0 0 24 24" fill="none" xmlns="http://www.w3.org/2000/svg">
<g clip-path="url(#clip0_408_111)">
<path d="M22.3359 0.0327606C18.9422 0.304636 15.5531 1.63589 12.6328 3.83901C11.9578 4.34526 11.5547 4.70151 10.7578 5.48432L10.0547 6.17807L9.49219 6.2062C6.70781 6.34682 3.71719 7.64995 1.67344 9.61401C1.28438 9.98901 1.26562 10.0171 1.26562 10.2046C1.26562 10.3546 1.29844 10.439 1.39688 10.5468L1.52344 10.6921L3.52969 10.9828L5.53125 11.2734L5.25469 11.5874C4.94063 11.9437 4.87969 12.1078 4.9875 12.3374C5.09063 12.5484 11.5172 18.9656 11.6906 19.0312C11.9062 19.1109 12.0703 19.0453 12.4125 18.7499L12.7266 18.4734L13.0078 20.4281C13.2094 21.8249 13.3125 22.4249 13.3688 22.5093C13.4813 22.6781 13.7344 22.7578 13.9453 22.6874C14.2359 22.5937 15.075 21.614 15.7594 20.5781C16.9359 18.8015 17.6906 16.5374 17.7938 14.5078L17.8219 13.9453L18.5156 13.2421C19.5563 12.1828 20.1328 11.4796 20.8969 10.3265C22.8375 7.41557 24 3.85776 24 0.853073C24 0.346823 23.9156 0.131199 23.6906 0.0468235C23.5828 0.00463486 22.7812 -0.00473976 22.3359 0.0327606ZM17.6391 4.42964C18.6094 4.63589 19.3641 5.39057 19.5703 6.36089C19.6078 6.53432 19.6406 6.76401 19.6406 6.86714C19.6406 7.75307 19.0547 8.69995 18.2719 9.08432C17.9391 9.24838 17.4422 9.37495 17.1328 9.37495C16.2516 9.37495 15.3 8.78432 14.9156 8.0062C14.7516 7.67338 14.625 7.17651 14.625 6.86714C14.625 6.24838 14.9156 5.5687 15.375 5.10932C15.9891 4.49526 16.8047 4.25151 17.6391 4.42964Z" fill="#475D87"/>
<path d="M4.47651 16.0359C3.90464 16.1203 3.36558 16.364 2.88276 16.7625C2.24995 17.2781 1.48589 18.9281 0.487452 21.9234C-0.0469231 23.5265 -0.0656731 23.625 0.154639 23.8453C0.374952 24.0656 0.478077 24.0469 2.06714 23.5172C5.06714 22.5187 6.72183 21.75 7.23745 21.1172C8.28276 19.8422 8.24058 18.1265 7.13433 16.9594C6.66089 16.4578 6.02808 16.1344 5.31558 16.0312C4.94526 15.9797 4.86558 15.9797 4.47651 16.0359Z" fill="#475D87"/>
</g>
<defs>
<clipPath id="clip0_408_111">
<rect width="24" height="24" fill="white"/>
</clipPath>
</defs>
</svg>
