<svg width="25" height="24" viewBox="0 0 25 24" fill="none" xmlns="http://www.w3.org/2000/svg">
<path d="M11.031 0.0784197C8.72546 0.497108 6.89998 2.27793 6.42547 4.56676C6.33615 5.00777 6.3194 5.24782 6.34173 5.91214C6.37522 6.90583 6.48687 7.36918 6.91115 8.22888C8.1058 10.6684 10.791 11.9022 13.465 11.2379C15.0337 10.8415 16.3958 9.72499 17.1271 8.22888C17.5458 7.37476 17.6631 6.90583 17.6966 5.91214C17.7189 5.24224 17.7021 5.00777 17.6128 4.56676C17.0601 1.88715 14.6932 -0.027648 11.9689 0.000264168C11.673 0.000264168 11.2543 0.0393419 11.031 0.0784197Z" fill="#475D87"/>
<path d="M9.81405 12.6168C4.43251 13.1639 0.301455 17.5015 0.033495 22.8942L0 23.6031L0.195388 23.7985L0.396358 23.9995H11.9577C24.6691 23.9995 23.7536 24.0274 23.9378 23.6646C24.0383 23.4747 24.0439 23.0393 23.9601 22.2801C23.5693 18.6905 21.4927 15.5811 18.3274 13.8505C17.3839 13.3369 16.0162 12.8791 14.8383 12.6893C14.1852 12.5833 10.6514 12.533 9.81405 12.6168Z" fill="#475D87"/>
</svg>
